{
.appVersion = "3108";
.formatVersion = 3;
axes = (
{
name = Weight;
tag = wght;
}
);
customParameters = (
{
name = "Variable Font Origin";
value = m01;
}
);
date = "2022-03-20 03:42:48 +0000";
familyName = "SA Beginner";
fontMaster = (
{
axesValues = (
300
);
guides = (
{
locked = 1;
pos = (314,650);
},
{
locked = 1;
pos = (223,568);
}
);
iconName = SemiLight;
id = m01;
metricValues = (
{
over = 4;
pos = 700;
},
{
over = 4;
pos = 650;
},
{
over = 4;
pos = 350;
},
{
over = -4;
},
{
over = -4;
pos = -300;
},
{
over = -16;
pos = 6;
}
);
name = Regular;
stemValues = (
46,
50
);
userData = {
GSOffsetHorizontal = 15;
GSOffsetKeepCompatible = 1;
GSOffsetVertical = 10;
};
},
{
axesValues = (
800
);
guides = (
{
locked = 1;
pos = (314,650);
},
{
locked = 1;
pos = (223,568);
}
);
iconName = Bold;
id = m002;
metricValues = (
{
over = 4;
pos = 700;
},
{
over = 4;
pos = 650;
},
{
over = 4;
pos = 350;
},
{
over = -4;
},
{
over = -4;
pos = -300;
},
{
over = -16;
pos = 6;
}
);
name = "Extra Bold";
stemValues = (
90,
100
);
userData = {
GSOffsetHorizontal = 25;
GSOffsetKeepCompatible = 1;
GSOffsetVertical = 25;
};
visible = 1;
}
);
glyphs = (
{
glyphname = A;
lastChange = "2022-03-21 02:36:12 +0000";
layers = (
{
layerId = m01;
shapes = (
{
closed = 1;
nodes = (
(9,-4,o),
(22,8,o),
(29,24,cs),
(272,583,l),
(302,625,l),
(300,640,o),
(295,650,o),
(276,650,cs),
(259,650,o),
(253,641,o),
(246,626,cs),
(-17,40,ls),
(-27,18,o),
(-22,4,o),
(-7,0,cs)
);
},
{
closed = 1;
nodes = (
(329,327,l),
(321,372,l),
(161,372,l),
(142,327,l)
);
},
{
closed = 1;
nodes = (
(391,2,o),
(396,16,o),
(393,34,cs),
(302,625,l),
(264,586,l),
(345,28,ls),
(347,12,o),
(351,-2,o),
(372,0,cs)
);
}
);
width = 440;
},
{
layerId = m002;
shapes = (
{
closed = 1;
nodes = (
(40,-7,o),
(71,3,o),
(84,33,cs),
(281,502,l),
(339,619,l),
(335,639,o),
(319,650,o),
(291,650,cs),
(260,650,o),
(251,639,o),
(241,616,cs),
(-7,66,ls),
(-20,37,o),
(-6,11,o),
(17,2,cs)
);
},
{
closed = 1;
nodes = (
(345,247,l),
(334,327,l),
(166,327,l),
(132,247,l)
);
},
{
closed = 1;
nodes = (
(418,4,o),
(431,26,o),
(426,61,cs),
(339,619,l),
(276,502,l),
(333,49,ls),
(338,12,o),
(358,-5,o),
(390,0,cs)
);
}
);
width = 481;
}
);
unicode = 65;
},
{
glyphname = B;
lastChange = "2022-03-21 00:47:29 +0000";
layers = (
{
layerId = m01;
shapes = (
{
closed = 1;
nodes = (
(455,594,o),
(339,660,o),
(122,650,c),
(134,604,l),
(313,616,o),
(399,556,o),
(391,488,cs),
(383,423,o),
(345,365,o),
(109,357,c),
(105,321,l),
(396,333,o),
(430,402,o),
(441,484,cs)
);
},
{
closed = 1;
nodes = (
(454,308,o),
(325,373,o),
(104,356,c),
(100,312,l),
(287,330,o),
(400,277,o),
(391,189,cs),
(382,104,o),
(270,46,o),
(75,46,c),
(56,0,l),
(284,0,o),
(429,69,o),
(441,182,cs)
);
},
{
closed = 1;
nodes = (
(30,14,o),
(41,0,o),
(56,0,c),
(82,29,l),
(144,619,l),
(122,650,l),
(105,649,o),
(96,641,o),
(94,623,cs),
(32,31,ls)
);
}
);
width = 485;
},
{
layerId = m002;
shapes = (
{
closed = 1;
nodes = (
(511,595,o),
(391,650,o),
(162,650,c),
(185,559,l),
(326,559,o),
(404,520,o),
(399,474,cs),
(392,411,o),
(357,368,o),
(166,361,c),
(159,300,l),
(449,312,o),
(488,381,o),
(498,474,cs)
);
},
{
closed = 1;
nodes = (
(511,308,o),
(376,377,o),
(159,360,c),
(151,281,l),
(302,294,o),
(403,256,o),
(395,195,cs),
(387,137,o),
(291,97,o),
(135,97,c),
(95,0,l),
(333,0,o),
(485,69,o),
(498,182,cs)
);
},
{
closed = 1;
nodes = (
(45,23,o),
(65,0,o),
(95,0,c),
(142,29,l),
(202,598,l),
(164,650,l),
(129,650,o),
(111,643,o),
(107,602,cs),
(48,53,ls)
);
}
);
width = 540;
}
);
metricLeft = N;
unicode = 66;
},
{
glyphname = C;
lastChange = "2022-03-21 02:28:19 +0000";
layers = (
{
layerId = m01;
shapes = (
{
closed = 1;
nodes = (
(297,-4,o),
(375,63,o),
(406,125,cs),
(419,151,o),
(421,165,o),
(404,174,cs),
(387,183,o),
(375,172,o),
(364,149,cs),
(338,99,o),
(284,42,o),
(203,42,cs),
(107,42,o),
(63,138,o),
(99,334,cs),
(127,488,o),
(189,600,o),
(303,600,cs),
(351,600,o),
(390,572,o),
(411,557,cs),
(421,549,o),
(439,542,o),
(452,557,cs),
(465,572,o),
(457,587,o),
(448,595,cs),
(420,620,o),
(378,649,o),
(300,649,cs),
(161,649,o),
(82,514,o),
(49,340,cs),
(7,122,o),
(66,-4,o),
(207,-4,cs)
);
}
);
width = 443;
},
{
layerId = m002;
shapes = (
{
closed = 1;
nodes = (
(335,-4,o),
(418,55,o),
(452,116,cs),
(475,158,o),
(460,191,o),
(435,204,cs),
(410,217,o),
(387,207,o),
(375,181,cs),
(352,132,o),
(304,84,o),
(227,84,cs),
(152,84,o),
(122,163,o),
(143,331,cs),
(161,477,o),
(222,560,o),
(330,560,cs),
(369,560,o),
(410,536,o),
(431,521,cs),
(453,506,o),
(478,509,o),
(494,537,cs),
(511,567,o),
(498,597,o),
(480,610,cs),
(455,629,o),
(384,650,o),
(323,650,cs),
(167,650,o),
(72,546,o),
(42,343,cs),
(11,132,o),
(73,-4,o),
(226,-4,cs)
);
}
);
width = 490;
}
);
unicode = 67;
},
{
glyphname = D;
lastChange = "2022-03-21 00:52:07 +0000";
layers = (
{
layerId = m01;
shapes = (
{
closed = 1;
nodes = (
(472,526,o),
(367,650,o),
(179,650,cs),
(123,650,l),
(132,604,l),
(186,604,ls),
(335,604,o),
(419,496,o),
(402,344,cs),
(380,152,o),
(291,46,o),
(117,46,cs),
(76,46,l),
(56,0,l),
(120,0,ls),
(319,0,o),
(427,128,o),
(451,340,cs)
);
},
{
closed = 1;
nodes = (
(29,12,o),
(38,0,o),
(56,0,c),
(81,25,l),
(144,619,l),
(123,650,l),
(101,650,o),
(96,639,o),
(94,623,cs),
(31,27,ls)
);
}
);
width = 489;
},
{
layerId = m002;
shapes = (
{
closed = 1;
nodes = (
(532,523,o),
(418,650,o),
(226,650,cs),
(155,650,l),
(146,562,l),
(215,562,ls),
(349,562,o),
(430,489,o),
(416,339,cs),
(401,173,o),
(309,89,o),
(166,89,cs),
(108,89,l),
(96,0,l),
(172,0,ls),
(365,0,o),
(491,129,o),
(513,336,cs)
);
},
{
closed = 1;
nodes = (
(45,21,o),
(67,0,o),
(98,0,c),
(148,41,l),
(207,600,l),
(157,650,l),
(125,650,o),
(110,636,o),
(107,609,cs),
(48,49,ls)
);
}
);
width = 553;
}
);
metricLeft = N;
unicode = 68;
},
{
glyphname = E;
lastChange = "2022-03-21 00:52:37 +0000";
layers = (
{
layerId = m01;
shapes = (
{
closed = 1;
nodes = (
(29,12,o),
(38,0,o),
(56,0,c),
(81,25,l),
(144,619,l),
(123,650,l),
(101,650,o),
(96,639,o),
(94,623,c),
(31,27,ls)
);
},
{
closed = 1;
nodes = (
(397,38,o),
(390,50,o),
(370,50,cs),
(74,50,l),
(56,0,l),
(370,0,ls),
(390,0,o),
(397,14,o),
(397,26,cs)
);
},
{
closed = 1;
nodes = (
(409,362,o),
(401,374,o),
(381,374,cs),
(108,374,l),
(103,326,l),
(379,326,ls),
(399,326,o),
(409,338,o),
(409,350,cs)
);
},
{
closed = 1;
nodes = (
(461,637,o),
(454,650,o),
(434,650,cs),
(123,650,l),
(132,600,l),
(434,600,ls),
(454,600,o),
(461,613,o),
(461,625,cs)
);
}
);
width = 459;
},
{
layerId = m002;
shapes = (
{
closed = 1;
nodes = (
(45,22,o),
(58,0,o),
(88,0,c),
(147,40,l),
(206,597,l),
(158,650,l),
(127,650,o),
(110,639,o),
(107,611,cs),
(48,50,ls)
);
},
{
closed = 1;
nodes = (
(467,76,o),
(448,95,o),
(416,95,cs),
(139,95,l),
(93,0,l),
(420,0,ls),
(450,0,o),
(467,26,o),
(467,52,cs)
);
},
{
closed = 1;
nodes = (
(474,357,o),
(452,373,o),
(422,373,cs),
(169,373,l),
(159,288,l),
(423,288,ls),
(455,288,o),
(474,307,o),
(474,331,cs)
);
},
{
closed = 1;
nodes = (
(527,631,o),
(506,650,o),
(475,650,cs),
(163,650,l),
(188,555,l),
(479,555,ls),
(509,555,o),
(527,580,o),
(527,606,cs)
);
}
);
width = 539;
}
);
metricLeft = N;
unicode = 69;
},
{
glyphname = F;
lastChange = "2022-03-21 00:52:56 +0000";
layers = (
{
layerId = m01;
shapes = (
{
closed = 1;
nodes = (
(78,0,o),
(80,15,o),
(81,25,cs),
(144,619,l),
(123,650,l),
(101,650,o),
(96,639,o),
(94,623,cs),
(31,27,ls),
(29,12,o),
(38,0,o),
(56,0,cs)
);
},
{
closed = 1;
nodes = (
(400,362,o),
(392,374,o),
(372,374,cs),
(111,374,l),
(106,326,l),
(372,326,ls),
(392,326,o),
(400,338,o),
(400,350,cs)
);
},
{
closed = 1;
nodes = (
(461,637,o),
(454,650,o),
(434,650,cs),
(123,650,l),
(135,600,l),
(434,600,ls),
(454,600,o),
(461,613,o),
(461,625,cs)
);
}
);
width = 436;
},
{
layerId = m002;
shapes = (
{
closed = 1;
nodes = (
(128,0,o),
(145,21,o),
(148,51,c),
(206,597,l),
(156,650,l),
(125,650,o),
(110,638,o),
(107,610,cs),
(48,54,ls),
(45,27,o),
(59,0,o),
(87,0,cs)
);
},
{
closed = 1;
nodes = (
(482,359,o),
(461,375,o),
(431,375,cs),
(170,375,l),
(161,290,l),
(436,290,ls),
(468,290,o),
(482,309,o),
(482,333,cs)
);
},
{
closed = 1;
nodes = (
(541,632,o),
(520,650,o),
(489,650,cs),
(157,650,l),
(189,555,l),
(490,555,ls),
(520,555,o),
(541,575,o),
(541,604,cs)
);
}
);
width = 543;
}
);
metricLeft = N;
unicode = 70;
},
{
glyphname = G;
lastChange = "2022-03-21 02:28:38 +0000";
layers = (
{
layerId = m01;
shapes = (
{
closed = 1;
nodes = (
(288,-4,o),
(368,80,o),
(437,289,c),
(437,350,l),
(420,350,o),
(417,340,o),
(411,327,cs),
(340,161,o),
(285,42,o),
(196,42,cs),
(101,42,o),
(72,166,o),
(100,334,cs),
(123,471,o),
(205,604,o),
(316,604,cs),
(386,604,o),
(418,574,o),
(440,550,cs),
(451,539,o),
(466,532,o),
(477,542,cs),
(489,553,o),
(486,566,o),
(476,579,cs),
(451,611,o),
(391,650,o),
(323,650,cs),
(174,650,o),
(80,498,o),
(51,341,cs),
(14,141,o),
(69,-4,o),
(187,-4,cs)
);
},
{
closed = 1;
nodes = (
(429,-1,o),
(433,16,o),
(435,36,cs),
(465,323,ls),
(467,340,o),
(454,350,o),
(437,350,c),
(408,259,l),
(385,36,ls),
(383,15,o),
(386,1,o),
(406,0,cs)
);
}
);
width = 526;
},
{
layerId = m002;
shapes = (
{
closed = 1;
nodes = (
(297,-4,o),
(369,161,o),
(430,285,c),
(432,370,l),
(394,370,o),
(390,361,o),
(338,271,cs),
(307,217,o),
(229,86,o),
(190,86,cs),
(140,86,o),
(121,171,o),
(140,329,cs),
(156,462,o),
(191,560,o),
(305,560,cs),
(362,560,o),
(392,546,o),
(402,521,cs),
(415,490,o),
(432,477,o),
(465,486,cs),
(492,493,o),
(495,520,o),
(488,545,cs),
(470,616,o),
(396,650,o),
(305,650,cs),
(145,650,o),
(69,531,o),
(41,342,cs),
(11,139,o),
(40,-4,o),
(184,-4,cs)
);
},
{
closed = 1;
nodes = (
(438,0,o),
(448,18,o),
(451,42,cs),
(481,320,ls),
(484,351,o),
(463,370,o),
(432,370,c),
(375,276,l),
(351,49,ls),
(348,18,o),
(369,0,o),
(403,0,cs)
);
}
);
width = 536;
}
);
unicode = 71;
},
{
glyphname = H;
lastChange = "2022-03-21 00:58:08 +0000";
layers = (
{
layerId = m01;
shapes = (
{
closed = 1;
nodes = (
(78,0,o),
(80,15,o),
(81,25,cs),
(144,619,ls),
(146,637,o),
(140,650,o),
(123,650,cs),
(104,650,o),
(96,639,o),
(94,623,cs),
(31,27,ls),
(29,12,o),
(38,0,o),
(56,0,cs)
);
},
{
closed = 1;
nodes = (
(411,327,l),
(416,373,l),
(105,373,l),
(100,327,l)
);
},
{
closed = 1;
nodes = (
(411,0,o),
(416,13,o),
(417,22,cs),
(481,621,ls),
(483,638,o),
(476,650,o),
(456,650,cs),
(438,650,o),
(432,638,o),
(431,628,cs),
(367,27,ls),
(366,15,o),
(369,0,o),
(392,0,cs)
);
}
);
width = 517;
},
{
layerId = m002;
shapes = (
{
closed = 1;
nodes = (
(133,0,o),
(147,20,o),
(149,40,cs),
(206,597,ls),
(210,632,o),
(192,650,o),
(163,650,cs),
(136,650,o),
(110,637,o),
(107,609,cs),
(49,49,ls),
(46,21,o),
(67,0,o),
(99,0,cs)
);
},
{
closed = 1;
nodes = (
(425,292,l),
(433,372,l),
(168,372,l),
(160,292,l)
);
},
{
closed = 1;
nodes = (
(461,0,o),
(481,17,o),
(483,37,cs),
(542,599,ls),
(545,631,o),
(524,650,o),
(493,650,cs),
(465,650,o),
(445,635,o),
(443,613,cs),
(384,49,ls),
(381,20,o),
(399,0,o),
(432,0,cs)
);
}
);
width = 595;
}
);
metricLeft = N;
metricRight = N;
unicode = 72;
},
{
glyphname = I;
lastChange = "2022-03-21 01:26:03 +0000";
layers = (
{
layerId = m01;
shapes = (
{
closed = 1;
nodes = (
(129,38,l),
(190,607,l),
(139,607,l),
(79,38,l)
);
},
{
closed = 1;
nodes = (
(95,615,o),
(103,604,o),
(123,604,cs),
(212,604,ls),
(232,604,o),
(236,615,o),
(236,627,cs),
(236,639,o),
(229,650,o),
(209,650,cs),
(120,650,ls),
(100,650,o),
(95,639,o),
(95,627,cs)
);
},
{
closed = 1;
nodes = (
(32,11,o),
(40,0,o),
(60,0,cs),
(149,0,ls),
(169,0,o),
(173,11,o),
(173,23,cs),
(173,35,o),
(166,46,o),
(146,46,cs),
(57,46,ls),
(37,46,o),
(32,35,o),
(32,23,cs)
);
}
);
width = 280;
},
{
layerId = m002;
shapes = (
{
closed = 1;
nodes = (
(218,69,l),
(271,573,l),
(171,573,l),
(118,70,l)
);
},
{
closed = 1;
nodes = (
(106,580,o),
(128,560,o),
(160,560,cs),
(295,560,ls),
(327,560,o),
(342,580,o),
(342,604,cs),
(342,630,o),
(318,650,o),
(288,650,cs),
(153,650,ls),
(123,650,o),
(108,630,o),
(107,604,cs)
);
},
{
closed = 1;
nodes = (
(46,20,o),
(68,0,o),
(100,0,cs),
(235,0,ls),
(267,0,o),
(282,20,o),
(282,44,cs),
(282,70,o),
(258,90,o),
(228,90,cs),
(93,90,ls),
(63,90,o),
(48,70,o),
(47,44,cs)
);
}
);
width = 395;
}
);
metricLeft = N;
unicode = 73;
},
{
glyphname = J;
lastChange = "2022-03-21 00:54:03 +0000";
layers = (
{
layerId = m01;
shapes = (
{
closed = 1;
nodes = (
(275,608,l),
(234,205,ls),
(222,88,o),
(184,46,o),
(119,46,cs),
(77,46,o),
(52,71,o),
(32,96,cs),
(21,110,o),
(6,114,o),
(-5,103,cs),
(-17,91,o),
(-14,77,o),
(-5,65,cs),
(24,28,o),
(65,0,o),
(119,0,cs),
(220,0,o),
(269,57,o),
(284,205,cs),
(325,608,l)
);
},
{
closed = 1;
nodes = (
(232,615,o),
(240,604,o),
(260,604,cs),
(349,604,ls),
(369,604,o),
(373,615,o),
(373,627,cs),
(373,639,o),
(366,650,o),
(346,650,cs),
(257,650,ls),
(237,650,o),
(232,639,o),
(232,627,cs)
);
}
);
width = 391;
},
{
layerId = m002;
shapes = (
{
closed = 1;
nodes = (
(273,570,l),
(236,217,ls),
(224,107,o),
(195,85,o),
(142,85,cs),
(111,85,o),
(84,118,o),
(69,133,cs),
(50,152,o),
(11,149,o),
(-4,128,cs),
(-19,107,o),
(-15,78,o),
(-1,63,cs),
(17,44,o),
(56,-4,o),
(146,-4,cs),
(243,-4,o),
(317,54,o),
(332,193,cs),
(372,569,l)
);
},
{
closed = 1;
nodes = (
(208,587,o),
(230,567,o),
(262,567,cs),
(397,567,ls),
(429,567,o),
(444,587,o),
(444,611,cs),
(444,637,o),
(420,657,o),
(390,657,cs),
(255,657,ls),
(225,657,o),
(210,637,o),
(209,611,cs)
);
}
);
width = 468;
}
);
unicode = 74;
},
{
glyphname = K;
lastChange = "2022-03-21 01:28:21 +0000";
layers = (
{
layerId = m01;
shapes = (
{
closed = 1;
nodes = (
(171,344,l),
(464,600,ls),
(475,610,o),
(481,619,o),
(482,628,cs),
(482,640,o),
(474,650,o),
(461,650,cs),
(452,651,o),
(442,647,o),
(430,637,cs),
(113,360,l),
(114,348,l)
);
},
{
closed = 1;
nodes = (
(405,0,o),
(415,6,o),
(417,17,cs),
(418,24,o),
(417,32,o),
(409,42,cs),
(170,354,l),
(113,356,l),
(114,345,l),
(364,19,ls),
(371,9,o),
(382,0,o),
(395,0,cs)
);
},
{
closed = 1;
nodes = (
(78,0,o),
(81,18,o),
(82,31,cs),
(145,619,ls),
(147,637,o),
(143,650,o),
(124,650,cs),
(104,650,o),
(97,639,o),
(95,623,cs),
(32,32,ls),
(30,17,o),
(39,0,o),
(57,0,cs)
);
}
);
width = 450;
},
{
layerId = m002;
shapes = (
{
closed = 1;
nodes = (
(239,320,l),
(518,562,ls),
(531,574,o),
(542,587,o),
(543,602,cs),
(544,625,o),
(525,650,o),
(496,650,cs),
(480,650,o),
(466,644,o),
(451,631,cs),
(171,382,l),
(167,329,l)
);
},
{
closed = 1;
nodes = (
(454,0,o),
(476,10,o),
(479,31,cs),
(481,44,o),
(479,60,o),
(468,74,cs),
(242,368,l),
(171,340,l),
(165,312,l),
(384,25,ls),
(396,9,o),
(415,0,o),
(434,0,cs)
);
},
{
closed = 1;
nodes = (
(131,0,o),
(145,19,o),
(148,45,cs),
(207,597,ls),
(211,636,o),
(185,650,o),
(161,650,cs),
(135,650,o),
(111,637,o),
(108,609,cs),
(48,54,ls),
(45,24,o),
(68,0,o),
(100,0,cs)
);
}
);
width = 528;
}
);
metricLeft = N;
unicode = 75;
},
{
glyphname = L;
lastChange = "2022-03-21 02:29:04 +0000";
layers = (
{
layerId = m01;
shapes = (
{
closed = 1;
nodes = (
(29,12,o),
(38,0,o),
(56,0,c),
(81,25,l),
(144,619,ls),
(146,637,o),
(143,650,o),
(123,650,cs),
(103,650,o),
(96,639,o),
(94,623,cs),
(31,27,ls)
);
},
{
closed = 1;
nodes = (
(383,40,o),
(374,50,o),
(356,50,cs),
(76,50,l),
(56,0,l),
(357,0,ls),
(375,0,o),
(383,13,o),
(383,26,cs)
);
}
);
width = 415;
},
{
layerId = m002;
shapes = (
{
closed = 1;
nodes = (
(45,21,o),
(61,0,o),
(91,0,c),
(147,39,l),
(206,597,ls),
(210,639,o),
(185,650,o),
(160,650,cs),
(131,650,o),
(110,637,o),
(107,609,cs),
(48,49,ls)
);
},
{
closed = 1;
nodes = (
(454,70,o),
(431,91,o),
(401,91,cs),
(139,91,l),
(91,0,l),
(407,0,ls),
(437,0,o),
(454,22,o),
(454,46,cs)
);
}
);
width = 480;
}
);
metricLeft = N;
unicode = 76;
},
{
glyphname = M;
lastChange = "2022-03-22 01:22:09 +0000";
layers = (
{
layerId = m01;
shapes = (
{
closed = 1;
nodes = (
(11,0,o),
(23,7,o),
(32,25,cs),
(309,593,l),
(300,650,l),
(282,650,o),
(276,639,o),
(269,625,cs),
(-17,38,ls),
(-23,26,o),
(-23,16,o),
(-19,10,cs),
(-15,4,o),
(-8,0,o),
(0,0,cs)
);
},
{
closed = 1;
nodes = (
(391,61,l),
(325,631,ls),
(324,639,o),
(317,650,o),
(299,650,c),
(280,584,l),
(345,24,ls),
(346,14,o),
(350,0,o),
(374,0,c)
);
},
{
closed = 1;
nodes = (
(392,0,o),
(400,17,o),
(404,24,cs),
(676,586,l),
(666,650,l),
(651,650,o),
(644,635,o),
(639,624,cs),
(366,61,l),
(372,0,l)
);
},
{
closed = 1;
nodes = (
(760,0,o),
(769,11,o),
(767,26,cs),
(698,622,ls),
(696,638,o),
(694,650,o),
(665,650,c),
(649,608,l),
(717,24,ls),
(718,14,o),
(723,0,o),
(744,0,cs)
);
}
);
width = 814;
},
{
layerId = m002;
shapes = (
{
closed = 1;
nodes = (
(51,0,o),
(79,9,o),
(91,33,cs),
(345,555,l),
(313,650,l),
(285,650,o),
(275,638,o),
(265,617,cs),
(-6,64,ls),
(-14,47,o),
(-14,34,o),
(-7,21,cs),
(0,8,o),
(18,0,o),
(33,0,cs)
);
},
{
closed = 1;
nodes = (
(428,91,l),
(367,606,ls),
(364,635,o),
(353,650,o),
(312,650,c),
(270,559,l),
(332,40,ls),
(335,18,o),
(351,0,o),
(382,0,c)
);
},
{
closed = 1;
nodes = (
(421,0,o),
(431,19,o),
(437,31,cs),
(702,566,l),
(676,650,l),
(645,650,o),
(627,638,o),
(616,616,cs),
(352,86,l),
(381,0,l)
);
},
{
closed = 1;
nodes = (
(762,0,o),
(782,20,o),
(779,46,cs),
(718,606,ls),
(715,635,o),
(710,650,o),
(674,650,c),
(621,562,l),
(679,40,ls),
(681,19,o),
(702,0,o),
(733,0,cs)
);
}
);
width = 834;
}
);
metricLeft = A;
metricRight = A;
unicode = 77;
},
{
glyphname = N;
lastChange = "2022-03-21 01:31:14 +0000";
layers = (
{
layerId = m01;
shapes = (
{
closed = 1;
nodes = (
(464,67,l),
(154,630,ls),
(148,641,o),
(140,650,o),
(122,650,c),
(119,594,l),
(434,18,ls),
(440,7,o),
(449,0,o),
(462,0,c)
);
},
{
closed = 1;
nodes = (
(78,0,o),
(80,16,o),
(81,28,cs),
(143,612,l),
(122,650,l),
(101,650,o),
(96,639,o),
(94,623,cs),
(31,27,ls),
(29,12,o),
(38,0,o),
(56,0,cs)
);
},
{
closed = 1;
nodes = (
(462,0,l),
(480,0,o),
(483,9,o),
(485,25,cs),
(548,619,ls),
(550,637,o),
(546,650,o),
(527,650,cs),
(507,650,o),
(500,639,o),
(498,623,cs),
(437,48,l)
);
}
);
width = 584;
},
{
layerId = m002;
shapes = (
{
closed = 1;
nodes = (
(486,127,l),
(212,621,ls),
(200,642,o),
(182,650,o),
(159,650,c),
(131,569,l),
(431,28,ls),
(441,10,o),
(456,0,o),
(481,0,c)
);
},
{
closed = 1;
nodes = (
(128,0,o),
(147,19,o),
(149,42,cs),
(206,592,l),
(159,650,l),
(127,650,o),
(110,636,o),
(107,609,cs),
(49,49,ls),
(46,21,o),
(66,0,o),
(95,0,cs)
);
},
{
closed = 1;
nodes = (
(481,0,l),
(515,0,o),
(524,19,o),
(526,40,cs),
(584,597,ls),
(587,629,o),
(570,653,o),
(537,653,cs),
(509,653,o),
(488,637,o),
(485,609,cs),
(432,105,l)
);
}
);
width = 637;
}
);
unicode = 78;
},
{
glyphname = O;
lastChange = "2022-03-21 02:27:19 +0000";
layers = (
{
layerId = m01;
shapes = (
{
closed = 1;
nodes = (
(339,-4,o),
(436,169,o),
(454,347,cs),
(465,455,o),
(424,650,o),
(273,650,cs),
(128,650,o),
(61,477,o),
(43,299,cs),
(29,164,o),
(85,-4,o),
(211,-4,cs)
);
},
{
closed = 1;
nodes = (
(133,42,o),
(80,162,o),
(93,292,cs),
(104,399,o),
(139,604,o),
(273,604,cs),
(386,604,o),
(414,439,o),
(403,337,cs),
(390,214,o),
(316,42,o),
(212,42,cs)
);
}
);
width = 501;
},
{
layerId = m002;
shapes = (
{
closed = 1;
nodes = (
(406,-4,o),
(498,169,o),
(516,347,cs),
(527,455,o),
(478,650,o),
(307,650,cs),
(128,650,o),
(70,477,o),
(52,299,cs),
(38,164,o),
(106,-4,o),
(245,-4,cs)
);
},
{
closed = 1;
nodes = (
(186,86,o),
(140,188,o),
(153,299,cs),
(160,389,o),
(190,560,o),
(304,560,cs),
(399,560,o),
(423,424,o),
(413,335,cs),
(402,230,o),
(339,86,o),
(253,86,cs)
);
}
);
width = 569;
}
);
unicode = 79;
},
{
glyphname = P;
lastChange = "2022-03-21 01:34:29 +0000";
layers = (
{
layerId = m01;
shapes = (
{
closed = 1;
nodes = (
(282,293,o),
(436,336,o),
(450,472,cs),
(462,593,o),
(331,650,o),
(124,650,c),
(135,604,l),
(307,604,o),
(408,557,o),
(400,477,cs),
(389,372,o),
(267,338,o),
(107,339,c),
(103,294,l)
);
},
{
closed = 1;
nodes = (
(79,0,o),
(81,19,o),
(82,29,cs),
(145,619,l),
(124,650,l),
(104,650,o),
(97,640,o),
(95,623,cs),
(32,31,ls),
(30,16,o),
(39,0,o),
(57,0,cs)
);
}
);
width = 446;
},
{
layerId = m002;
shapes = (
{
closed = 1;
nodes = (
(283,269,o),
(471,289,o),
(490,467,cs),
(505,602,o),
(364,650,o),
(153,650,c),
(189,559,l),
(342,559,o),
(397,535,o),
(390,472,cs),
(380,382,o),
(251,359,o),
(170,357,c),
(161,267,l)
);
},
{
closed = 1;
nodes = (
(130,0,o),
(146,17,o),
(148,39,cs),
(206,597,l),
(153,650,l),
(127,650,o),
(110,637,o),
(107,609,cs),
(48,48,ls),
(45,21,o),
(63,0,o),
(96,0,cs)
);
}
);
width = 494;
}
);
metricLeft = N;
unicode = 80;
},
{
glyphname = Q;
lastChange = "2022-03-21 02:27:25 +0000";
layers = (
{
layerId = m01;
shapes = (
{
closed = 1;
nodes = (
(414,-14,o),
(413,6,o),
(402,22,cs),
(291,172,ls),
(279,190,o),
(259,200,o),
(246,188,cs),
(235,179,o),
(236,163,o),
(250,144,cs),
(360,-6,ls),
(372,-21,o),
(390,-28,o),
(401,-20,cs)
);
},
{
closed = 1;
nodes = (
(339,-4,o),
(436,169,o),
(454,347,cs),
(465,455,o),
(424,650,o),
(273,650,cs),
(128,650,o),
(61,477,o),
(43,299,cs),
(29,164,o),
(85,-4,o),
(211,-4,cs)
);
},
{
closed = 1;
nodes = (
(133,42,o),
(80,162,o),
(93,292,cs),
(104,399,o),
(139,604,o),
(273,604,cs),
(386,604,o),
(414,439,o),
(403,337,cs),
(390,214,o),
(316,42,o),
(212,42,cs)
);
}
);
width = 501;
},
{
layerId = m002;
shapes = (
{
closed = 1;
nodes = (
(460,2,o),
(462,28,o),
(445,52,cs),
(337,201,ls),
(316,230,o),
(283,235,o),
(262,218,cs),
(243,202,o),
(239,177,o),
(260,150,cs),
(366,5,ls),
(386,-21,o),
(417,-34,o),
(439,-16,cs)
);
},
{
closed = 1;
nodes = (
(406,-4,o),
(498,169,o),
(516,347,cs),
(527,455,o),
(478,650,o),
(307,650,cs),
(128,650,o),
(70,477,o),
(52,299,cs),
(38,164,o),
(106,-4,o),
(245,-4,cs)
);
},
{
closed = 1;
nodes = (
(186,86,o),
(140,188,o),
(153,299,cs),
(160,389,o),
(190,560,o),
(304,560,cs),
(399,560,o),
(423,424,o),
(413,335,cs),
(402,230,o),
(339,86,o),
(253,86,cs)
);
}
);
width = 569;
}
);
metricLeft = O;
metricRight = O;
unicode = 81;
},
{
glyphname = R;
lastChange = "2022-03-21 01:37:09 +0000";
layers = (
{
layerId = m01;
shapes = (
{
closed = 1;
nodes = (
(283,304,o),
(431,380,o),
(440,486,cs),
(450,606,o),
(337,650,o),
(127,650,c),
(130,604,l),
(310,604,o),
(399,569,o),
(390,491,cs),
(381,413,o),
(255,348,o),
(108,348,c),
(104,304,l)
);
},
{
closed = 1;
nodes = (
(375,0,o),
(385,7,o),
(387,15,cs),
(389,23,o),
(387,34,o),
(375,50,cs),
(161,321,l),
(103,314,l),
(334,19,ls),
(344,6,o),
(357,0,o),
(365,0,cs)
);
},
{
closed = 1;
nodes = (
(78,0,o),
(80,16,o),
(82,31,cs),
(144,619,l),
(123,650,l),
(101,650,o),
(96,639,o),
(94,623,cs),
(32,33,ls),
(30,16,o),
(38,0,o),
(56,0,cs)
);
}
);
width = 466;
},
{
layerId = m002;
shapes = (
{
closed = 1;
nodes = (
(331,271,o),
(499,335,o),
(509,471,cs),
(520,622,o),
(389,650,o),
(160,650,c),
(189,563,l),
(360,563,o),
(417,553,o),
(409,479,cs),
(401,413,o),
(301,351,o),
(169,351,c),
(160,271,l)
);
},
{
closed = 1;
nodes = (
(426,0,o),
(445,9,o),
(453,26,cs),
(459,39,o),
(461,58,o),
(451,71,cs),
(287,291,l),
(158,285,l),
(360,23,ls),
(376,2,o),
(394,0,o),
(407,0,cs)
);
},
{
closed = 1;
nodes = (
(126,0,o),
(144,18,o),
(148,53,cs),
(206,597,l),
(160,650,l),
(129,650,o),
(110,637,o),
(107,609,cs),
(49,60,ls),
(46,27,o),
(58,0,o),
(91,0,cs)
);
}
);
width = 529;
}
);
metricLeft = N;
unicode = 82;
},
{
glyphname = S;
lastChange = "2022-03-21 00:48:36 +0000";
layers = (
{
layerId = m01;
shapes = (
{
closed = 1;
nodes = (
(270,-4,o),
(355,49,o),
(367,162,cs),
(377,258,o),
(316,323,o),
(236,369,cs),
(154,416,o),
(103,455,o),
(109,512,cs),
(115,569,o),
(170,608,o),
(265,608,cs),
(316,608,o),
(347,583,o),
(360,547,cs),
(365,534,o),
(379,528,o),
(392,532,cs),
(406,536,o),
(408,552,o),
(402,570,cs),
(386,617,o),
(341,654,o),
(263,654,cs),
(135,654,o),
(69,590,o),
(61,516,cs),
(53,436,o),
(119,378,o),
(198,333,cs),
(286,283,o),
(324,236,o),
(318,169,cs),
(310,82,o),
(240,42,o),
(170,42,cs),
(107,42,o),
(70,68,o),
(62,99,cs),
(58,116,o),
(43,122,o),
(29,118,cs),
(14,114,o),
(12,98,o),
(16,82,cs),
(29,30,o),
(85,-4,o),
(154,-4,cs)
);
}
);
width = 422;
},
{
layerId = m002;
shapes = (
{
closed = 1;
nodes = (
(295,-2,o),
(406,51,o),
(418,168,cs),
(431,285,o),
(355,348,o),
(287,388,cs),
(226,424,o),
(155,467,o),
(160,508,cs),
(165,546,o),
(206,566,o),
(267,566,cs),
(325,566,o),
(349,554,o),
(358,531,cs),
(369,502,o),
(395,491,o),
(424,500,cs),
(449,508,o),
(458,529,o),
(451,553,cs),
(431,625,o),
(381,655,o),
(282,655,cs),
(144,655,o),
(67,604,o),
(57,511,cs),
(47,415,o),
(157,348,o),
(222,311,cs),
(293,271,o),
(328,227,o),
(323,172,cs),
(318,122,o),
(266,94,o),
(195,94,cs),
(133,94,o),
(116,103,o),
(107,124,cs),
(94,154,o),
(61,163,o),
(36,155,cs),
(14,148,o),
(-3,126,o),
(4,102,cs),
(21,34,o),
(84,-2,o),
(196,-2,cs)
);
}
);
width = 469;
}
);
unicode = 83;
},
{
glyphname = T;
lastChange = "2022-03-21 01:37:38 +0000";
layers = (
{
layerId = m01;
shapes = (
{
closed = 1;
nodes = (
(187,0,o),
(193,18,o),
(195,34,cs),
(257,624,l),
(207,624,l),
(145,37,ls),
(143,17,o),
(148,0,o),
(167,0,cs)
);
},
{
closed = 1;
nodes = (
(421,600,ls),
(441,600,o),
(445,613,o),
(445,625,cs),
(445,637,o),
(438,650,o),
(418,650,cs),
(44,650,ls),
(24,650,o),
(19,637,o),
(19,625,cs),
(19,613,o),
(27,600,o),
(47,600,cs)
);
}
);
width = 410;
},
{
layerId = m002;
shapes = (
{
closed = 1;
nodes = (
(233,-2,o),
(249,22,o),
(251,43,cs),
(306,574,l),
(205,574,l),
(151,49,ls),
(148,21,o),
(169,-2,o),
(200,-2,cs)
);
},
{
closed = 1;
nodes = (
(448,560,ls),
(480,560,o),
(495,580,o),
(495,604,cs),
(495,630,o),
(471,650,o),
(441,650,cs),
(73,650,ls),
(43,650,o),
(28,630,o),
(27,604,cs),
(26,580,o),
(48,560,o),
(80,560,cs)
);
}
);
width = 477;
}
);
unicode = 84;
},
{
glyphname = U;
lastChange = "2022-03-21 01:37:56 +0000";
layers = (
{
layerId = m01;
shapes = (
{
closed = 1;
nodes = (
(336,-4,o),
(439,138,o),
(456,301,cs),
(490,623,ls),
(492,638,o),
(483,649,o),
(465,649,cs),
(447,649,o),
(441,637,o),
(440,625,cs),
(405,301,ls),
(392,182,o),
(314,42,o),
(220,42,cs),
(141,42,o),
(87,162,o),
(101,292,cs),
(136,619,ls),
(138,634,o),
(128,650,o),
(113,650,cs),
(97,650,o),
(87,636,o),
(85,620,cs),
(51,295,ls),
(37,160,o),
(94,-4,o),
(219,-4,cs)
);
}
);
width = 526;
},
{
layerId = m002;
shapes = (
{
closed = 1;
nodes = (
(394,-4,o),
(496,138,o),
(514,301,cs),
(547,604,ls),
(550,630,o),
(536,650,o),
(498,650,cs),
(466,650,o),
(450,629,o),
(447,606,cs),
(413,301,ls),
(400,182,o),
(327,86,o),
(253,86,cs),
(194,86,o),
(145,162,o),
(159,292,cs),
(193,605,ls),
(196,629,o),
(182,650,o),
(146,650,cs),
(111,650,o),
(94,629,o),
(92,606,cs),
(59,295,ls),
(45,160,o),
(102,-4,o),
(252,-4,cs)
);
}
);
width = 599;
}
);
unicode = 85;
},
{
glyphname = V;
lastChange = "2022-03-21 00:49:37 +0000";
layers = (
{
layerId = m01;
shapes = (
{
closed = 1;
nodes = (
(447,618,ls),
(455,638,o),
(445,650,o),
(430,650,cs),
(411,650,o),
(403,642,o),
(396,625,cs),
(215,171,l),
(167,39,l),
(182,0,l),
(201,0,o),
(204,11,o),
(210,25,cs)
);
},
{
closed = 1;
nodes = (
(155,15,o),
(164,0,o),
(182,0,c),
(198,37,l),
(182,169,l),
(112,626,ls),
(110,636,o),
(106,650,o),
(84,650,c),
(66,650,o),
(60,639,o),
(62,624,cs),
(153,28,ls)
);
}
);
width = 449;
},
{
layerId = m002;
shapes = (
{
closed = 1;
nodes = (
(471,591,ls),
(485,625,o),
(463,650,o),
(431,650,cs),
(402,650,o),
(382,638,o),
(374,618,cs),
(242,304,l),
(168,98,l),
(189,-2,l),
(218,-2,o),
(234,15,o),
(242,34,cs)
);
},
{
closed = 1;
nodes = (
(144,19,o),
(159,-1,o),
(189,-2,c),
(226,98,l),
(200,304,l),
(151,610,ls),
(147,633,o),
(126,650,o),
(94,650,cs),
(65,650,o),
(46,634,o),
(51,604,cs),
(140,44,ls)
);
}
);
width = 463;
}
);
unicode = 86;
},
{
glyphname = W;
lastChange = "2022-03-21 00:49:56 +0000";
layers = (
{
layerId = m01;
shapes = (
{
closed = 1;
nodes = (
(787,618,ls),
(796,639,o),
(782,650,o),
(768,650,cs),
(749,650,o),
(744,644,o),
(736,625,cs),
(562,188,l),
(523,68,l),
(520,0,l),
(539,0,o),
(543,11,o),
(549,25,cs)
);
},
{
closed = 1;
nodes = (
(155,12,o),
(167,0,o),
(181,0,c),
(191,63,l),
(177,189,l),
(112,626,ls),
(110,636,o),
(106,650,o),
(84,650,c),
(66,650,o),
(60,639,o),
(62,624,cs),
(153,28,ls)
);
},
{
closed = 1;
nodes = (
(394,495,l),
(422,590,l),
(422,650,l),
(406,650,o),
(397,637,o),
(393,626,cs),
(223,189,l),
(181,65,l),
(181,0,l),
(201,0,o),
(206,15,o),
(210,26,cs)
);
},
{
closed = 1;
nodes = (
(495,13,o),
(503,0,o),
(520,0,c),
(529,65,l),
(517,192,l),
(452,626,ls),
(450,637,o),
(446,650,o),
(422,650,c),
(412,595,l),
(423,492,l),
(493,25,ls)
);
}
);
width = 789;
},
{
layerId = m002;
shapes = (
{
closed = 1;
nodes = (
(810,591,ls),
(820,615,o),
(805,650,o),
(767,650,cs),
(735,650,o),
(718,630,o),
(712,616,cs),
(577,276,l),
(533,158,l),
(528,0,l),
(559,0,o),
(572,12,o),
(581,33,cs)
);
},
{
closed = 1;
nodes = (
(140,15,o),
(160,0,o),
(193,0,c),
(216,126,l),
(197,280,l),
(151,610,ls),
(148,633,o),
(127,650,o),
(95,650,cs),
(66,650,o),
(46,634,o),
(51,604,cs),
(136,44,ls)
);
},
{
closed = 1;
nodes = (
(398,412,l),
(424,492,l),
(429,650,l),
(397,650,o),
(382,634,o),
(374,612,cs),
(245,277,l),
(193,134,l),
(193,0,l),
(224,0,o),
(247,14,o),
(258,43,cs)
);
},
{
closed = 1;
nodes = (
(480,15,o),
(498,0,o),
(528,0,c),
(550,158,l),
(536,276,l),
(488,610,ls),
(484,635,o),
(464,650,o),
(429,650,c),
(412,496,l),
(420,412,l),
(477,32,ls)
);
}
);
width = 801;
}
);
metricLeft = V;
metricRight = V;
unicode = 87;
},
{
glyphname = X;
lastChange = "2022-03-21 00:57:15 +0000";
layers = (
{
layerId = m01;
shapes = (
{
closed = 1;
nodes = (
(10,-3,o),
(27,-2,o),
(37,13,cs),
(227,301,l),
(233,301,l),
(434,609,ls),
(444,624,o),
(441,638,o),
(432,645,cs),
(421,653,o),
(402,652,o),
(392,637,cs),
(207,352,l),
(200,351,l),
(-6,38,ls),
(-14,26,o),
(-11,13,o),
(-1,6,cs)
);
},
{
closed = 1;
nodes = (
(374,8,o),
(381,20,o),
(374,35,cs),
(235,345,l),
(107,631,ls),
(99,650,o),
(78,654,o),
(67,649,cs),
(55,645,o),
(52,632,o),
(60,614,cs),
(197,308,l),
(326,20,ls),
(334,1,o),
(352,-3,o),
(365,3,cs)
);
}
);
width = 438;
},
{
layerId = m002;
shapes = (
{
closed = 1;
nodes = (
(14,-3,o),
(55,-8,o),
(70,16,cs),
(237,279,l),
(242,279,l),
(445,578,ls),
(461,602,o),
(454,623,o),
(435,639,cs),
(416,655,o),
(376,656,o),
(360,631,cs),
(198,375,l),
(193,375,l),
(-15,69,ls),
(-29,48,o),
(-25,29,o),
(-6,13,cs)
);
},
{
closed = 1;
nodes = (
(393,17,o),
(401,36,o),
(390,61,cs),
(253,367,l),
(139,623,ls),
(126,651,o),
(91,654,o),
(69,647,cs),
(43,637,o),
(32,617,o),
(46,586,cs),
(180,286,l),
(295,28,ls),
(308,-1,o),
(350,-6,o),
(373,6,cs)
);
}
);
width = 445;
}
);
unicode = 88;
},
{
glyphname = Y;
lastChange = "2022-03-21 01:39:32 +0000";
layers = (
{
layerId = m01;
shapes = (
{
closed = 1;
nodes = (
(59,642,o),
(57,629,o),
(64,613,cs),
(234,241,l),
(267,290,l),
(111,630,ls),
(106,642,o),
(95,655,o),
(76,648,cs)
);
},
{
closed = 1;
nodes = (
(101,-3,o),
(119,-3,o),
(128,12,cs),
(479,609,ls),
(488,624,o),
(484,639,o),
(469,647,cs),
(457,653,o),
(445,650,o),
(436,635,cs),
(86,38,ls),
(79,26,o),
(80,13,o),
(90,6,cs)
);
}
);
width = 488;
},
{
layerId = m002;
shapes = (
{
closed = 1;
nodes = (
(27,636,o),
(22,608,o),
(33,584,cs),
(201,223,l),
(260,314,l),
(126,621,ls),
(116,644,o),
(89,657,o),
(58,646,cs)
);
},
{
closed = 1;
nodes = (
(81,-7,o),
(123,-2,o),
(137,22,cs),
(469,578,ls),
(483,602,o),
(476,630,o),
(450,645,cs),
(429,656,o),
(396,650,o),
(380,624,cs),
(50,75,ls),
(37,54,o),
(42,25,o),
(61,9,cs)
);
}
);
width = 449;
}
);
unicode = 89;
},
{
glyphname = Z;
lastChange = "2022-03-21 01:40:11 +0000";
layers = (
{
layerId = m01;
shapes = (
{
closed = 1;
nodes = (
(-5,21,o),
(6,0,o),
(29,0,c),
(47,13,l),
(445,609,ls),
(459,631,o),
(443,650,o),
(425,650,c),
(407,636,l),
(7,39,ls)
);
},
{
closed = 1;
nodes = (
(386,37,o),
(380,50,o),
(360,50,cs),
(60,50,l),
(29,0,l),
(363,0,ls),
(383,0,o),
(388,13,o),
(387,25,cs)
);
},
{
closed = 1;
nodes = (
(66,613,o),
(73,600,o),
(93,600,cs),
(394,600,l),
(425,650,l),
(90,650,ls),
(70,650,o),
(64,637,o),
(65,625,cs)
);
}
);
width = 449;
},
{
layerId = m002;
shapes = (
{
closed = 1;
nodes = (
(-18,42,o),
(-1,0,o),
(43,0,c),
(78,17,l),
(462,577,ls),
(483,608,o),
(468,653,o),
(425,653,c),
(384,633,l),
(1,70,ls)
);
},
{
closed = 1;
nodes = (
(411,70,o),
(391,90,o),
(361,90,cs),
(104,90,l),
(43,0,l),
(364,0,ls),
(396,0,o),
(411,19,o),
(411,43,c)
);
},
{
closed = 1;
nodes = (
(55,583,o),
(75,563,o),
(107,563,cs),
(353,563,l),
(425,653,l),
(100,653,ls),
(70,653,o),
(52,633,o),
(54,607,cs)
);
}
);
width = 459;
}
);
unicode = 90;
},
{
glyphname = a;
lastChange = "2022-03-21 01:07:58 +0000";
layers = (
{
layerId = m01;
shapes = (
{
closed = 1;
nodes = (
(171,-4,o),
(208,35,o),
(231,82,c),
(249,244,l),
(245,244,l),
(244,239,o),
(240,213,o),
(239,208,cs),
(222,147,o),
(176,42,o),
(128,42,cs),
(76,42,o),
(57,108,o),
(64,173,cs),
(73,258,o),
(114,304,o),
(163,304,cs),
(191,304,o),
(232,296,o),
(251,267,c),
(256,313,l),
(231,341,o),
(194,350,o),
(164,350,cs),
(90,350,o),
(26,291,o),
(14,176,cs),
(5,88,o),
(40,-4,o),
(127,-4,cs)
);
},
{
closed = 1;
nodes = (
(256,0,o),
(269,10,o),
(271,28,cs),
(302,320,ls),
(304,340,o),
(292,350,o),
(280,350,cs),
(267,350,o),
(254,341,o),
(252,323,cs),
(221,28,ls),
(219,9,o),
(231,0,o),
(244,0,cs)
);
}
);
width = 354;
},
{
layerId = m002;
shapes = (
{
closed = 1;
nodes = (
(173,-4,o),
(226,75,o),
(249,114,c),
(262,262,l),
(205,262,l),
(201,240,o),
(197,220,o),
(194,209,cs),
(173,131,o),
(150,86,o),
(126,86,cs),
(101,86,o),
(91,119,o),
(97,170,cs),
(104,236,o),
(126,261,o),
(157,261,cs),
(179,261,o),
(201,257,o),
(253,179,c),
(265,297,l),
(240,331,o),
(192,354,o),
(158,354,cs),
(79,354,o),
(12,294,o),
(0,179,cs),
(-9,91,o),
(21,-4,o),
(119,-4,cs)
);
},
{
closed = 1;
nodes = (
(255,0,o),
(281,14,o),
(284,43,cs),
(311,300,ls),
(314,333,o),
(289,350,o),
(262,350,cs),
(237,350,o),
(216,337,o),
(213,308,cs),
(186,49,ls),
(183,17,o),
(204,0,o),
(231,0,cs)
);
}
);
width = 377;
}
);
unicode = 97;
},
{
glyphname = b;
lastChange = "2022-03-21 02:31:39 +0000";
layers = (
{
layerId = m01;
shapes = (
{
closed = 1;
nodes = (
(55,0,o),
(67,7,o),
(69,22,cs),
(133,624,ls),
(135,640,o),
(122,650,o),
(108,650,cs),
(97,650,o),
(85,644,o),
(83,629,cs),
(19,27,ls),
(17,9,o),
(30,0,o),
(44,0,cs)
);
},
{
closed = 1;
nodes = (
(82,5,o),
(119,-4,o),
(149,-4,cs),
(223,-4,o),
(287,55,o),
(299,170,cs),
(308,258,o),
(273,350,o),
(186,350,cs),
(142,350,o),
(105,311,o),
(82,264,c),
(64,102,l),
(68,102,l),
(69,107,o),
(73,133,o),
(74,138,cs),
(91,199,o),
(137,304,o),
(185,304,cs),
(237,304,o),
(256,238,o),
(249,173,cs),
(240,88,o),
(199,42,o),
(150,42,cs),
(122,42,o),
(81,50,o),
(62,79,c),
(57,33,l)
);
}
);
width = 353;
},
{
layerId = m002;
shapes = (
{
closed = 1;
nodes = (
(76,0,o),
(98,24,o),
(102,57,cs),
(160,597,ls),
(163,625,o),
(148,650,o),
(113,650,cs),
(83,650,o),
(63,629,o),
(60,602,cs),
(1,57,ls),
(-3,21,o),
(14,0,o),
(47,0,cs)
);
},
{
closed = 1;
nodes = (
(82,29,o),
(123,-4,o),
(158,-4,cs),
(236,-4,o),
(305,53,o),
(318,168,cs),
(327,256,o),
(286,354,o),
(190,354,cs),
(137,354,o),
(93,286,o),
(71,238,c),
(53,84,l),
(109,84,l),
(114,110,o),
(115,132,o),
(116,138,cs),
(134,238,o),
(165,264,o),
(189,264,cs),
(212,264,o),
(224,228,o),
(218,176,cs),
(211,111,o),
(189,86,o),
(159,86,cs),
(130,86,o),
(115,90,o),
(64,168,c),
(51,56,l)
);
}
);
width = 383;
}
);
unicode = 98;
},
{
glyphname = c;
lastChange = "2022-03-21 01:08:37 +0000";
layers = (
{
layerId = m01;
shapes = (
{
closed = 1;
nodes = (
(185,-4,o),
(224,32,o),
(249,77,cs),
(254,87,o),
(251,101,o),
(239,108,cs),
(226,115,o),
(211,111,o),
(206,101,cs),
(187,65,o),
(160,42,o),
(134,42,cs),
(78,42,o),
(59,108,o),
(66,173,cs),
(75,258,o),
(116,304,o),
(165,304,cs),
(188,304,o),
(206,295,o),
(216,278,cs),
(221,270,o),
(233,265,o),
(246,272,cs),
(258,279,o),
(261,294,o),
(256,301,cs),
(237,331,o),
(207,350,o),
(166,350,cs),
(92,350,o),
(28,291,o),
(16,176,cs),
(7,88,o),
(42,-4,o),
(129,-4,cs)
);
}
);
width = 302;
},
{
layerId = m002;
shapes = (
{
closed = 1;
nodes = (
(186,-4,o),
(227,35,o),
(251,78,cs),
(262,98,o),
(255,125,o),
(234,135,cs),
(212,148,o),
(186,140,o),
(175,120,cs),
(160,93,o),
(146,81,o),
(131,81,cs),
(99,81,o),
(88,118,o),
(94,171,cs),
(101,239,o),
(126,266,o),
(158,266,cs),
(174,266,o),
(178,263,o),
(184,254,cs),
(194,236,o),
(219,228,o),
(240,241,cs),
(262,253,o),
(267,281,o),
(256,297,cs),
(236,328,o),
(204,350,o),
(159,350,cs),
(84,350,o),
(6,290,o),
(-6,178,cs),
(-15,93,o),
(34,-4,o),
(127,-4,cs)
);
}
);
width = 306;
}
);
unicode = 99;
},
{
glyphname = d;
lastChange = "2022-03-21 02:31:09 +0000";
layers = (
{
layerId = m01;
shapes = (
{
closed = 1;
nodes = (
(256,313,l),
(231,341,o),
(194,350,o),
(164,350,cs),
(90,350,o),
(26,291,o),
(14,176,cs),
(5,88,o),
(40,-4,o),
(127,-4,cs),
(171,-4,o),
(208,35,o),
(231,82,c),
(249,244,l),
(245,244,l),
(244,239,o),
(240,213,o),
(239,208,cs),
(222,147,o),
(176,42,o),
(128,42,cs),
(76,42,o),
(57,108,o),
(64,173,cs),
(73,258,o),
(114,304,o),
(163,304,cs),
(191,304,o),
(232,291,o),
(251,262,c)
);
},
{
closed = 1;
nodes = (
(256,0,o),
(269,10,o),
(271,28,cs),
(333,620,ls),
(335,640,o),
(323,650,o),
(311,650,cs),
(298,650,o),
(285,641,o),
(283,623,cs),
(221,28,ls),
(219,9,o),
(231,0,o),
(244,0,cs)
);
}
);
width = 363;
},
{
layerId = m002;
shapes = (
{
closed = 1;
nodes = (
(262,296,l),
(231,328,o),
(193,351,o),
(154,351,cs),
(75,351,o),
(9,294,o),
(-3,179,cs),
(-12,91,o),
(16,-4,o),
(113,-4,cs),
(168,-4,o),
(211,65,o),
(235,97,c),
(259,262,l),
(205,262,l),
(201,237,o),
(198,214,o),
(198,211,cs),
(186,115,o),
(147,86,o),
(123,86,cs),
(98,86,o),
(88,119,o),
(94,170,cs),
(101,236,o),
(123,261,o),
(154,261,cs),
(174,261,o),
(197,266,o),
(251,183,c)
);
},
{
closed = 1;
nodes = (
(257,0,o),
(279,24,o),
(283,57,cs),
(341,597,ls),
(344,625,o),
(329,650,o),
(294,650,cs),
(264,650,o),
(244,629,o),
(241,602,cs),
(182,57,ls),
(178,21,o),
(195,0,o),
(228,0,cs)
);
}
);
width = 373;
}
);
unicode = 100;
},
{
glyphname = e;
lastChange = "2022-03-21 01:09:11 +0000";
layers = (
{
layerId = m01;
shapes = (
{
closed = 1;
nodes = (
(188,-4,o),
(227,32,o),
(252,77,cs),
(257,87,o),
(254,101,o),
(242,108,cs),
(229,115,o),
(214,111,o),
(209,101,cs),
(190,65,o),
(163,42,o),
(137,42,cs),
(81,42,o),
(62,108,o),
(69,173,cs),
(78,258,o),
(119,304,o),
(168,304,cs),
(212,304,o),
(222,281,o),
(206,266,cs),
(179,240,o),
(113,189,o),
(61,157,c),
(68,106,l),
(156,164,o),
(290,250,o),
(259,301,cs),
(240,332,o),
(210,350,o),
(169,350,cs),
(95,350,o),
(31,291,o),
(19,176,cs),
(10,88,o),
(45,-4,o),
(132,-4,cs)
);
}
);
width = 310;
},
{
layerId = m002;
shapes = (
{
closed = 1;
nodes = (
(192,-4,o),
(239,24,o),
(264,69,cs),
(275,91,o),
(267,118,o),
(245,131,cs),
(219,146,o),
(197,137,o),
(186,114,cs),
(171,88,o),
(147,86,o),
(134,86,cs),
(105,86,o),
(89,119,o),
(95,170,cs),
(102,236,o),
(130,265,o),
(161,265,cs),
(184,265,o),
(187,257,o),
(184,254,cs),
(160,230,o),
(93,181,o),
(48,155,c),
(51,73,l),
(125,125,o),
(311,223,o),
(262,303,cs),
(240,337,o),
(208,354,o),
(162,354,cs),
(83,354,o),
(16,294,o),
(4,179,cs),
(-5,91,o),
(32,-4,o),
(130,-4,cs)
);
}
);
width = 333;
}
);
unicode = 101;
},
{
glyphname = f;
lastChange = "2022-03-21 01:09:34 +0000";
layers = (
{
layerId = m01;
shapes = (
{
closed = 1;
nodes = (
(83,0,o),
(89,15,o),
(90,27,cs),
(142,518,ls),
(148,573,o),
(168,604,o),
(199,604,cs),
(222,604,o),
(240,594,o),
(250,577,cs),
(255,569,o),
(267,564,o),
(280,571,cs),
(292,578,o),
(295,593,o),
(290,600,cs),
(271,630,o),
(241,650,o),
(200,650,cs),
(144,650,o),
(102,609,o),
(93,527,cs),
(40,28,ls),
(39,16,o),
(48,0,o),
(66,0,cs)
);
},
{
closed = 1;
nodes = (
(198,305,ls),
(218,305,o),
(222,316,o),
(222,328,cs),
(222,340,o),
(215,350,o),
(195,350,cs),
(0,350,ls),
(-20,350,o),
(-25,340,o),
(-25,328,cs),
(-25,316,o),
(-17,305,o),
(3,305,cs)
);
}
);
width = 248;
},
{
layerId = m002;
shapes = (
{
closed = 1;
nodes = (
(101,-1,o),
(116,25,o),
(118,47,cs),
(165,494,ls),
(170,538,o),
(179,560,o),
(193,560,cs),
(207,560,o),
(216,557,o),
(224,544,cs),
(235,526,o),
(256,514,o),
(280,527,cs),
(301,540,o),
(313,570,o),
(299,593,cs),
(277,627,o),
(241,650,o),
(194,650,cs),
(128,650,o),
(75,597,o),
(66,508,cs),
(18,54,ls),
(15,27,o),
(37,-1,o),
(69,-1,cs)
);
},
{
closed = 1;
nodes = (
(187,265,ls),
(223,265,o),
(235,287,o),
(235,309,cs),
(235,337,o),
(213,355,o),
(184,355,cs),
(13,355,ls),
(-19,355,o),
(-35,334,o),
(-35,309,cs),
(-35,280,o),
(-12,265,o),
(16,265,cs)
);
}
);
width = 257;
}
);
unicode = 102;
},
{
glyphname = g;
lastChange = "2022-03-21 02:31:59 +0000";
layers = (
{
layerId = m01;
shapes = (
{
closed = 1;
nodes = (
(171,-4,o),
(208,35,o),
(231,82,c),
(249,244,l),
(245,244,l),
(244,239,o),
(240,213,o),
(239,208,cs),
(222,147,o),
(176,42,o),
(128,42,cs),
(76,42,o),
(57,108,o),
(64,173,cs),
(73,258,o),
(114,304,o),
(163,304,cs),
(191,304,o),
(232,296,o),
(251,267,c),
(256,313,l),
(231,341,o),
(194,350,o),
(164,350,cs),
(90,350,o),
(26,291,o),
(14,176,cs),
(5,88,o),
(40,-4,o),
(127,-4,cs)
);
},
{
closed = 1;
nodes = (
(178,-300,o),
(243,-238,o),
(255,-123,cs),
(302,320,ls),
(304,340,o),
(292,350,o),
(280,350,cs),
(267,350,o),
(254,341,o),
(252,323,cs),
(205,-123,ls),
(196,-208,o),
(154,-254,o),
(100,-254,cs),
(57,-254,o),
(39,-245,o),
(29,-228,cs),
(24,-220,o),
(12,-215,o),
(-1,-222,cs),
(-13,-229,o),
(-16,-244,o),
(-11,-251,cs),
(8,-281,o),
(38,-300,o),
(99,-300,cs)
);
}
);
width = 355;
},
{
layerId = m002;
shapes = (
{
closed = 1;
nodes = (
(172,-4,o),
(224,60,o),
(245,107,c),
(264,260,l),
(212,260,l),
(211,235,o),
(210,225,o),
(207,210,cs),
(192,136,o),
(155,86,o),
(130,86,cs),
(104,86,o),
(91,118,o),
(98,170,cs),
(104,238,o),
(129,260,o),
(160,260,cs),
(182,260,o),
(222,258,o),
(256,187,c),
(265,290,l),
(237,316,o),
(210,350,o),
(161,350,cs),
(82,350,o),
(11,292,o),
(0,179,cs),
(-9,92,o),
(23,-4,o),
(119,-4,cs)
);
},
{
closed = 1;
nodes = (
(192,-300,o),
(263,-231,o),
(276,-111,cs),
(320,292,ls),
(324,326,o),
(299,350,o),
(272,350,cs),
(246,350,o),
(223,331,o),
(220,301,cs),
(176,-105,ls),
(168,-181,o),
(143,-210,o),
(105,-210,cs),
(79,-210,o),
(59,-200,o),
(53,-192,cs),
(38,-172,o),
(18,-165,o),
(-7,-178,cs),
(-31,-193,o),
(-35,-222,o),
(-22,-242,cs),
(1,-276,o),
(37,-300,o),
(104,-300,cs)
);
}
);
width = 389;
}
);
unicode = 103;
},
{
glyphname = h;
lastChange = "2022-03-21 01:10:14 +0000";
layers = (
{
layerId = m01;
shapes = (
{
closed = 1;
nodes = (
(259,0,o),
(259,18,o),
(260,31,cs),
(283,234,ls),
(289,291,o),
(263,354,o),
(205,354,cs),
(150,354,o),
(111,310,o),
(68,238,c),
(61,128,l),
(121,264,o),
(160,305,o),
(202,305,cs),
(225,305,o),
(237,272,o),
(233,234,cs),
(211,31,ls),
(209,15,o),
(211,0,o),
(233,0,c)
);
},
{
closed = 1;
nodes = (
(45,0,o),
(57,7,o),
(59,23,cs),
(123,623,ls),
(125,641,o),
(115,650,o),
(102,650,cs),
(89,650,o),
(75,641,o),
(73,623,cs),
(9,23,ls),
(7,8,o),
(19,0,o),
(32,0,cs)
);
}
);
width = 340;
},
{
layerId = m002;
shapes = (
{
closed = 1;
nodes = (
(290,0,o),
(300,31,o),
(302,51,cs),
(322,224,ls),
(329,287,o),
(294,354,o),
(224,354,cs),
(160,354,o),
(120,299,o),
(78,229,c),
(56,38,l),
(154,261,o),
(197,264,o),
(211,264,cs),
(223,264,o),
(224,244,o),
(222,230,cs),
(202,57,ls),
(199,30,o),
(210,0,o),
(249,0,cs)
);
},
{
closed = 1;
nodes = (
(75,0,o),
(96,18,o),
(100,51,cs),
(159,597,ls),
(162,625,o),
(147,650,o),
(112,650,cs),
(82,650,o),
(62,629,o),
(59,602,cs),
(0,57,ls),
(-4,21,o),
(13,0,o),
(46,0,cs)
);
}
);
width = 393;
}
);
unicode = 104;
},
{
glyphname = i;
lastChange = "2022-03-21 02:32:06 +0000";
layers = (
{
layerId = m01;
shapes = (
{
closed = 1;
nodes = (
(48,0,o),
(61,10,o),
(63,28,cs),
(94,320,ls),
(96,340,o),
(84,350,o),
(72,350,cs),
(59,350,o),
(46,341,o),
(44,323,cs),
(13,28,ls),
(11,9,o),
(23,0,o),
(36,0,cs)
);
},
{
closed = 1;
nodes = (
(106,428,o),
(123,447,o),
(123,467,cs),
(123,487,o),
(106,505,o),
(86,505,cs),
(65,505,o),
(46,487,o),
(46,467,cs),
(46,447,o),
(65,428,o),
(86,428,cs)
);
}
);
width = 147;
},
{
layerId = m002;
shapes = (
{
closed = 1;
nodes = (
(83,0,o),
(106,15,o),
(109,43,cs),
(136,299,ls),
(139,332,o),
(116,350,o),
(90,350,cs),
(65,350,o),
(41,337,o),
(38,308,cs),
(11,48,ls),
(8,16,o),
(31,0,o),
(58,0,cs)
);
},
{
closed = 1;
nodes = (
(138,427,o),
(161,456,o),
(161,483,cs),
(161,509,o),
(138,537,o),
(106,537,cs),
(76,537,o),
(51,511,o),
(51,482,cs),
(51,452,o),
(76,427,o),
(106,427,cs)
);
}
);
width = 209;
}
);
unicode = 105;
},
{
glyphname = j;
lastChange = "2022-03-21 02:32:13 +0000";
layers = (
{
layerId = m01;
shapes = (
{
closed = 1;
nodes = (
(110,428,o),
(127,446,o),
(127,467,cs),
(127,489,o),
(109,505,o),
(89,505,cs),
(68,505,o),
(50,488,o),
(50,467,cs),
(50,445,o),
(69,428,o),
(89,428,cs)
);
},
{
closed = 1;
nodes = (
(-26,-299,o),
(39,-237,o),
(51,-122,cs),
(98,321,ls),
(100,341,o),
(88,351,o),
(76,351,cs),
(63,351,o),
(50,342,o),
(48,324,cs),
(1,-122,ls),
(-8,-207,o),
(-50,-253,o),
(-104,-253,cs),
(-147,-253,o),
(-165,-244,o),
(-175,-227,cs),
(-180,-219,o),
(-192,-214,o),
(-205,-221,cs),
(-217,-228,o),
(-220,-243,o),
(-215,-250,cs),
(-196,-280,o),
(-166,-299,o),
(-105,-299,cs)
);
}
);
width = 151;
},
{
layerId = m002;
shapes = (
{
closed = 1;
nodes = (
(135,419,o),
(163,448,o),
(163,483,cs),
(163,519,o),
(134,545,o),
(101,545,cs),
(67,545,o),
(37,518,o),
(37,483,cs),
(37,447,o),
(68,419,o),
(101,419,cs)
);
},
{
closed = 1;
nodes = (
(4,-300,o),
(74,-240,o),
(87,-120,cs),
(131,295,ls),
(135,329,o),
(111,350,o),
(84,350,cs),
(58,350,o),
(34,331,o),
(31,301,cs),
(-13,-114,ls),
(-20,-184,o),
(-45,-210,o),
(-83,-210,cs),
(-111,-210,o),
(-129,-205,o),
(-134,-198,cs),
(-148,-179,o),
(-165,-170,o),
(-190,-183,cs),
(-215,-198,o),
(-219,-230,o),
(-206,-250,cs),
(-184,-284,o),
(-142,-300,o),
(-89,-300,cs)
);
}
);
width = 208;
}
);
unicode = 106;
},
{
glyphname = k;
lastChange = "2022-03-21 02:32:54 +0000";
layers = (
{
layerId = m01;
shapes = (
{
closed = 1;
nodes = (
(57,0,o),
(67,7,o),
(69,26,cs),
(133,621,ls),
(135,642,o),
(124,650,o),
(108,650,cs),
(93,650,o),
(85,639,o),
(83,622,cs),
(19,26,ls),
(17,10,o),
(28,0,o),
(41,0,cs)
);
},
{
closed = 1;
nodes = (
(232,0,o),
(242,6,o),
(244,17,cs),
(245,24,o),
(244,32,o),
(236,42,cs),
(117,185,l),
(79,153,l),
(191,19,ls),
(199,9,o),
(209,0,o),
(222,0,cs)
);
},
{
closed = 1;
nodes = (
(259,300,ls),
(270,310,o),
(276,319,o),
(277,328,cs),
(277,340,o),
(269,350,o),
(256,350,cs),
(247,351,o),
(237,347,o),
(225,337,cs),
(80,210,l),
(75,140,l)
);
}
);
width = 287;
},
{
layerId = m002;
shapes = (
{
closed = 1;
nodes = (
(74,0,o),
(95,18,o),
(99,51,cs),
(158,597,ls),
(161,625,o),
(146,650,o),
(111,650,cs),
(81,650,o),
(61,629,o),
(58,602,cs),
(-1,57,ls),
(-5,21,o),
(12,0,o),
(45,0,cs)
);
},
{
closed = 1;
nodes = (
(243,0,o),
(263,14,o),
(268,37,cs),
(270,51,o),
(270,66,o),
(256,83,cs),
(171,187,l),
(94,123,l),
(173,27,ls),
(189,7,o),
(202,0,o),
(221,0,cs)
);
},
{
closed = 1;
nodes = (
(271,258,ls),
(287,272,o),
(294,288,o),
(295,302,cs),
(296,324,o),
(280,349,o),
(251,350,cs),
(236,351,o),
(219,346,o),
(204,332,cs),
(87,229,l),
(79,90,l)
);
}
);
width = 336;
}
);
unicode = 107;
},
{
glyphname = l;
lastChange = "2022-03-21 01:11:32 +0000";
layers = (
{
layerId = m01;
shapes = (
{
closed = 1;
nodes = (
(46,0,o),
(58,7,o),
(59,22,cs),
(123,624,ls),
(125,640,o),
(111,650,o),
(97,650,cs),
(86,650,o),
(75,644,o),
(73,629,cs),
(9,27,ls),
(7,9,o),
(21,0,o),
(35,0,cs)
);
}
);
width = 139;
},
{
layerId = m002;
shapes = (
{
closed = 1;
nodes = (
(75,0,o),
(96,18,o),
(100,51,cs),
(159,597,ls),
(162,625,o),
(147,650,o),
(112,650,cs),
(82,650,o),
(62,629,o),
(59,602,cs),
(0,57,ls),
(-4,21,o),
(13,0,o),
(46,0,cs)
);
}
);
width = 189;
}
);
unicode = 108;
},
{
glyphname = m;
lastChange = "2022-03-21 01:11:54 +0000";
layers = (
{
layerId = m01;
shapes = (
{
closed = 1;
nodes = (
(56,0,o),
(58,18,o),
(59,30,cs),
(91,323,ls),
(93,340,o),
(90,350,o),
(73,350,c),
(54,350,o),
(43,342,o),
(41,323,cs),
(10,30,ls),
(8,15,o),
(11,0,o),
(33,0,cs)
);
},
{
closed = 1;
nodes = (
(243,0,o),
(246,18,o),
(247,30,cs),
(270,234,ls),
(276,291,o),
(253,354,o),
(195,354,cs),
(140,354,o),
(103,305,o),
(62,235,c),
(53,114,l),
(115,251,o),
(150,305,o),
(192,305,cs),
(217,305,o),
(223,261,o),
(220,234,cs),
(198,30,ls),
(196,15,o),
(198,0,o),
(220,0,cs)
);
},
{
closed = 1;
nodes = (
(432,0,o),
(434,18,o),
(435,30,cs),
(458,234,ls),
(464,291,o),
(441,354,o),
(383,354,cs),
(328,354,o),
(291,305,o),
(250,235,c),
(241,114,l),
(303,251,o),
(338,305,o),
(380,305,cs),
(405,305,o),
(411,261,o),
(408,234,cs),
(386,30,ls),
(384,15,o),
(386,0,o),
(408,0,cs)
);
}
);
width = 515;
},
{
layerId = m002;
shapes = (
{
closed = 1;
nodes = (
(83,0,o),
(95,25,o),
(97,45,cs),
(125,302,ls),
(129,335,o),
(109,350,o),
(80,350,cs),
(50,350,o),
(30,338,o),
(27,308,cs),
(0,51,ls),
(-3,23,o),
(9,0,o),
(45,0,cs)
);
},
{
closed = 1;
nodes = (
(254,0,o),
(270,22,o),
(271,46,c),
(292,224,ls),
(299,284,o),
(267,354,o),
(195,354,cs),
(152,354,o),
(125,329,o),
(99,295,c),
(77,105,l),
(134,217,o),
(177,265,o),
(189,265,cs),
(194,265,o),
(197,255,o),
(194,230,cs),
(175,51,ls),
(172,23,o),
(183,0,o),
(219,0,cs)
);
},
{
closed = 1;
nodes = (
(432,0,o),
(444,25,o),
(446,45,cs),
(466,224,ls),
(473,284,o),
(449,354,o),
(377,354,cs),
(330,354,o),
(296,322,o),
(265,282,c),
(252,115,l),
(316,242,o),
(350,265,o),
(364,265,cs),
(370,265,o),
(370,252,o),
(368,230,cs),
(349,51,ls),
(346,23,o),
(357,0,o),
(393,0,cs)
);
}
);
width = 538;
}
);
unicode = 109;
},
{
glyphname = n;
lastChange = "2022-03-21 01:12:02 +0000";
layers = (
{
layerId = m01;
shapes = (
{
closed = 1;
nodes = (
(59,0,o),
(57,18,o),
(59,31,cs),
(93,323,ls),
(95,340,o),
(92,350,o),
(75,350,cs),
(55,350,o),
(45,341,o),
(43,323,cs),
(10,31,ls),
(8,15,o),
(11,0,o),
(33,0,cs)
);
},
{
closed = 1;
nodes = (
(253,0,o),
(252,18,o),
(254,31,cs),
(279,234,ls),
(286,291,o),
(259,354,o),
(201,354,cs),
(146,354,o),
(103,305,o),
(65,226,c),
(55,114,l),
(118,252,o),
(156,305,o),
(198,305,cs),
(223,305,o),
(232,261,o),
(229,234,cs),
(205,31,ls),
(203,15,o),
(205,0,o),
(227,0,c)
);
}
);
width = 336;
},
{
layerId = m002;
shapes = (
{
closed = 1;
nodes = (
(87,0,o),
(95,24,o),
(97,45,cs),
(127,302,ls),
(130,331,o),
(116,350,o),
(84,350,cs),
(53,350,o),
(32,337,o),
(29,308,cs),
(0,52,ls),
(-3,24,o),
(9,0,o),
(45,0,cs)
);
},
{
closed = 1;
nodes = (
(268,0,o),
(280,24,o),
(283,46,cs),
(305,224,ls),
(313,287,o),
(284,355,o),
(214,355,cs),
(175,355,o),
(145,328,o),
(118,294,c),
(103,166,l),
(153,247,o),
(186,265,o),
(196,265,cs),
(207,265,o),
(210,248,o),
(208,230,cs),
(187,52,ls),
(184,24,o),
(195,0,o),
(233,0,cs)
);
}
);
width = 377;
}
);
unicode = 110;
},
{
glyphname = o;
lastChange = "2022-03-21 02:33:12 +0000";
layers = (
{
layerId = m01;
shapes = (
{
closed = 1;
nodes = (
(220,-1,o),
(268,91,o),
(277,176,cs),
(286,264,o),
(251,350,o),
(164,350,cs),
(90,350,o),
(26,291,o),
(14,176,cs),
(5,88,o),
(40,-1,o),
(127,-1,cs)
);
},
{
closed = 1;
nodes = (
(76,45,o),
(57,108,o),
(64,173,cs),
(73,258,o),
(114,304,o),
(163,304,cs),
(223,304,o),
(232,224,o),
(227,178,cs),
(218,96,o),
(173,45,o),
(132,45,cs)
);
}
);
width = 322;
},
{
layerId = m002;
shapes = (
{
closed = 1;
nodes = (
(215,-1,o),
(267,91,o),
(276,173,cs),
(285,261,o),
(246,350,o),
(150,350,cs),
(71,350,o),
(4,294,o),
(-8,179,cs),
(-17,91,o),
(19,-1,o),
(115,-1,cs)
);
},
{
closed = 1;
nodes = (
(90,89,o),
(84,118,o),
(90,170,cs),
(97,237,o),
(118,260,o),
(149,260,cs),
(178,260,o),
(183,218,o),
(178,181,cs),
(171,117,o),
(143,89,o),
(119,89,cs)
);
}
);
width = 336;
}
);
unicode = 111;
},
{
glyphname = p;
lastChange = "2022-03-21 01:12:37 +0000";
layers = (
{
layerId = m01;
shapes = (
{
closed = 1;
nodes = (
(55,37,l),
(80,9,o),
(117,0,o),
(147,0,cs),
(221,0,o),
(285,59,o),
(297,174,cs),
(306,262,o),
(271,354,o),
(184,354,cs),
(140,354,o),
(103,315,o),
(80,268,c),
(62,106,l),
(66,106,l),
(67,111,o),
(71,137,o),
(72,142,cs),
(89,203,o),
(135,308,o),
(183,308,cs),
(235,308,o),
(254,242,o),
(247,177,cs),
(238,92,o),
(197,46,o),
(148,46,cs),
(120,46,o),
(79,59,o),
(60,88,c)
);
},
{
closed = 1;
nodes = (
(55,350,o),
(42,340,o),
(40,322,cs),
(-22,-270,ls),
(-24,-290,o),
(-12,-300,o),
(0,-300,cs),
(13,-300,o),
(26,-291,o),
(28,-273,cs),
(90,322,ls),
(92,341,o),
(80,350,o),
(67,350,cs)
);
}
);
width = 343;
},
{
layerId = m002;
shapes = (
{
closed = 1;
nodes = (
(48,54,l),
(79,22,o),
(117,-1,o),
(156,-1,cs),
(235,-1,o),
(301,56,o),
(313,171,cs),
(322,259,o),
(294,354,o),
(197,354,cs),
(142,354,o),
(99,285,o),
(75,253,c),
(51,88,l),
(105,88,l),
(109,113,o),
(112,136,o),
(112,139,cs),
(124,235,o),
(163,264,o),
(187,264,cs),
(212,264,o),
(222,231,o),
(216,180,cs),
(209,114,o),
(187,89,o),
(156,89,cs),
(136,89,o),
(113,84,o),
(59,167,c)
);
},
{
closed = 1;
nodes = (
(53,350,o),
(31,326,o),
(27,293,cs),
(-31,-247,ls),
(-34,-275,o),
(-19,-300,o),
(16,-300,cs),
(46,-300,o),
(66,-279,o),
(69,-252,cs),
(128,293,ls),
(132,329,o),
(115,350,o),
(82,350,cs)
);
}
);
width = 372;
}
);
unicode = 112;
},
{
glyphname = q;
lastChange = "2022-03-21 01:13:22 +0000";
layers = (
{
layerId = m01;
shapes = (
{
closed = 1;
nodes = (
(171,-4,o),
(208,35,o),
(231,82,c),
(249,244,l),
(245,244,l),
(244,239,o),
(240,213,o),
(239,208,cs),
(222,147,o),
(176,42,o),
(128,42,cs),
(76,42,o),
(57,108,o),
(64,173,cs),
(73,258,o),
(114,304,o),
(163,304,cs),
(191,304,o),
(232,296,o),
(251,267,c),
(256,313,l),
(231,341,o),
(194,350,o),
(164,350,cs),
(90,350,o),
(26,291,o),
(14,176,cs),
(5,88,o),
(40,-4,o),
(127,-4,cs)
);
},
{
closed = 1;
nodes = (
(224,-300,o),
(237,-290,o),
(239,-272,cs),
(302,320,ls),
(304,340,o),
(292,350,o),
(280,350,cs),
(267,350,o),
(254,341,o),
(252,323,cs),
(189,-272,ls),
(187,-291,o),
(199,-300,o),
(212,-300,cs)
);
},
{
closed = 1;
nodes = (
(318,-219,ls),
(330,-209,o),
(335,-199,o),
(337,-190,cs),
(338,-178,o),
(330,-168,o),
(317,-168,cs),
(309,-167,o),
(298,-171,o),
(286,-181,cs),
(242,-218,l),
(225,-296,l)
);
}
);
width = 349;
},
{
layerId = m002;
shapes = (
{
closed = 1;
nodes = (
(177,-4,o),
(221,64,o),
(243,112,c),
(261,266,l),
(205,266,l),
(200,240,o),
(199,218,o),
(198,212,cs),
(180,112,o),
(149,86,o),
(125,86,cs),
(102,86,o),
(90,122,o),
(96,174,cs),
(103,239,o),
(125,264,o),
(155,264,cs),
(184,264,o),
(199,260,o),
(250,182,c),
(263,294,l),
(232,321,o),
(191,354,o),
(156,354,cs),
(78,354,o),
(9,297,o),
(-4,182,cs),
(-13,94,o),
(28,-4,o),
(124,-4,cs)
);
},
{
closed = 1;
nodes = (
(231,-300,o),
(251,-279,o),
(254,-252,cs),
(313,293,ls),
(317,329,o),
(300,350,o),
(267,350,cs),
(238,350,o),
(216,326,o),
(212,293,cs),
(154,-247,ls),
(151,-275,o),
(166,-300,o),
(201,-300,cs)
);
},
{
closed = 1;
nodes = (
(330,-209,ls),
(345,-197,o),
(356,-183,o),
(358,-170,cs),
(362,-145,o),
(342,-126,o),
(317,-125,cs),
(304,-124,o),
(288,-129,o),
(272,-142,cs),
(256,-155,l),
(236,-288,l)
);
}
);
width = 352;
}
);
unicode = 113;
},
{
glyphname = r;
lastChange = "2022-03-21 01:13:46 +0000";
layers = (
{
layerId = m01;
shapes = (
{
closed = 1;
nodes = (
(44,0,o),
(56,9,o),
(58,27,cs),
(89,320,ls),
(91,340,o),
(80,350,o),
(67,350,cs),
(55,350,o),
(41,341,o),
(39,323,cs),
(8,27,ls),
(6,9,o),
(18,0,o),
(31,0,cs)
);
},
{
closed = 1;
nodes = (
(267,258,o),
(275,268,o),
(271,287,cs),
(262,324,o),
(237,354,o),
(197,354,cs),
(142,354,o),
(102,310,o),
(61,224,c),
(51,114,l),
(113,251,o),
(152,305,o),
(194,305,cs),
(211,305,o),
(219,284,o),
(224,262,cs),
(226,251,o),
(244,247,o),
(256,253,cs)
);
}
);
width = 283;
},
{
layerId = m002;
shapes = (
{
closed = 1;
nodes = (
(68,0,o),
(93,14,o),
(96,44,cs),
(123,299,ls),
(127,332,o),
(105,350,o),
(77,350,cs),
(53,350,o),
(29,336,o),
(26,307,cs),
(-1,49,ls),
(-4,17,o),
(15,0,o),
(43,0,cs)
);
},
{
closed = 1;
nodes = (
(275,229,o),
(288,249,o),
(282,279,cs),
(272,320,o),
(246,354,o),
(195,354,cs),
(131,354,o),
(106,305,o),
(46,230,c),
(37,68,l),
(119,221,o),
(159,268,o),
(173,268,cs),
(186,268,o),
(192,260,o),
(196,248,cs),
(205,220,o),
(229,206,o),
(255,219,cs)
);
}
);
width = 297;
}
);
unicode = 114;
},
{
glyphname = s;
lastChange = "2022-03-21 01:14:03 +0000";
layers = (
{
layerId = m01;
shapes = (
{
closed = 1;
nodes = (
(171,-4,o),
(216,22,o),
(224,73,cs),
(231,115,o),
(213,146,o),
(193,162,cs),
(168,183,o),
(140,201,o),
(114,216,cs),
(76,238,o),
(61,256,o),
(67,276,cs),
(73,296,o),
(95,302,o),
(120,302,cs),
(155,302,o),
(182,288,o),
(199,276,cs),
(215,265,o),
(230,262,o),
(239,276,cs),
(248,289,o),
(238,310,o),
(219,322,cs),
(186,343,o),
(154,351,o),
(127,351,cs),
(72,351,o),
(32,334,o),
(19,289,cs),
(6,244,o),
(37,204,o),
(83,176,cs),
(111,159,o),
(133,147,o),
(151,133,cs),
(165,122,o),
(180,102,o),
(175,80,cs),
(169,55,o),
(150,46,o),
(125,46,cs),
(88,46,o),
(51,69,o),
(36,81,cs),
(22,92,o),
(8,89,o),
(-2,74,cs),
(-12,59,o),
(-1,47,o),
(16,34,cs),
(36,19,o),
(80,-4,o),
(123,-4,cs)
);
}
);
width = 272;
},
{
layerId = m002;
shapes = (
{
closed = 1;
nodes = (
(174,-9,o),
(228,21,o),
(238,82,cs),
(246,130,o),
(223,167,o),
(201,185,cs),
(178,204,o),
(151,221,o),
(127,234,cs),
(99,251,o),
(98,252,o),
(99,255,cs),
(100,259,o),
(101,259,o),
(120,259,cs),
(144,259,o),
(160,251,o),
(174,241,cs),
(203,221,o),
(231,225,o),
(246,248,cs),
(262,271,o),
(253,305,o),
(220,327,cs),
(187,348,o),
(153,356,o),
(126,356,cs),
(70,356,o),
(22,336,o),
(5,283,cs),
(-10,227,o),
(27,181,o),
(73,153,cs),
(99,137,o),
(116,128,o),
(130,117,cs),
(139,110,o),
(143,105,o),
(142,98,cs),
(140,89,o),
(140,89,o),
(124,89,cs),
(99,89,o),
(74,104,o),
(63,114,cs),
(39,133,o),
(9,128,o),
(-9,102,cs),
(-28,75,o),
(-13,49,o),
(13,30,cs),
(32,16,o),
(77,-9,o),
(122,-9,cs)
);
}
);
width = 304;
}
);
unicode = 115;
},
{
glyphname = t;
lastChange = "2022-03-21 01:14:21 +0000";
layers = (
{
guides = (
{
pos = (326,568);
}
);
layerId = m01;
shapes = (
{
closed = 1;
nodes = (
(109,0,o),
(119,7,o),
(121,23,cs),
(177,541,ls),
(179,559,o),
(166,568,o),
(152,568,cs),
(141,568,o),
(129,561,o),
(127,547,cs),
(71,24,ls),
(69,8,o),
(83,0,o),
(96,0,cs)
);
},
{
closed = 1;
nodes = (
(-3,316,o),
(5,305,o),
(25,305,cs),
(238,305,ls),
(258,305,o),
(262,316,o),
(262,328,cs),
(262,340,o),
(255,350,o),
(235,350,cs),
(22,350,ls),
(2,350,o),
(-3,340,o),
(-3,328,cs)
);
}
);
width = 286;
},
{
guides = (
{
pos = (309,568);
}
);
layerId = m002;
shapes = (
{
closed = 1;
nodes = (
(108,0,o),
(130,15,o),
(133,45,cs),
(184,513,ls),
(188,546,o),
(163,568,o),
(134,568,cs),
(111,568,o),
(86,553,o),
(83,525,cs),
(32,51,ls),
(29,20,o),
(54,0,o),
(82,0,cs)
);
},
{
closed = 1;
nodes = (
(-33,280,o),
(-10,261,o),
(18,261,cs),
(205,261,ls),
(241,261,o),
(253,287,o),
(253,308,cs),
(253,337,o),
(230,354,o),
(202,354,cs),
(16,354,ls),
(-17,354,o),
(-33,334,o),
(-33,308,cs)
);
}
);
width = 247;
}
);
unicode = 116;
},
{
glyphname = u;
lastChange = "2022-03-21 01:14:41 +0000";
layers = (
{
layerId = m01;
shapes = (
{
closed = 1;
nodes = (
(149,-4,o),
(191,49,o),
(233,120,c),
(242,230,l),
(180,93,o),
(139,45,o),
(97,45,cs),
(72,45,o),
(62,76,o),
(66,116,cs),
(88,321,ls),
(90,335,o),
(88,350,o),
(66,350,cs),
(44,350,o),
(41,334,o),
(40,323,cs),
(16,116,ls),
(8,51,o),
(36,-4,o),
(94,-4,cs)
);
},
{
closed = 1;
nodes = (
(242,0,o),
(251,9,o),
(253,27,cs),
(284,321,ls),
(286,335,o),
(283,350,o),
(262,350,cs),
(241,350,o),
(236,334,o),
(235,323,cs),
(203,27,ls),
(201,10,o),
(205,0,o),
(222,0,cs)
);
}
);
width = 335;
},
{
layerId = m002;
shapes = (
{
closed = 1;
nodes = (
(151,-4,o),
(186,36,o),
(218,83,c),
(237,276,l),
(186,132,o),
(134,86,o),
(116,86,cs),
(101,86,o),
(96,103,o),
(98,120,cs),
(118,295,ls),
(121,321,o),
(110,350,o),
(71,350,cs),
(39,350,o),
(25,327,o),
(22,302,cs),
(1,126,ls),
(-7,55,o),
(31,-4,o),
(100,-4,cs)
);
},
{
closed = 1;
nodes = (
(262,0,o),
(282,13,o),
(285,43,cs),
(312,294,ls),
(315,323,o),
(300,350,o),
(266,350,cs),
(234,350,o),
(218,327,o),
(215,303,cs),
(187,49,ls),
(183,17,o),
(201,0,o),
(231,0,cs)
);
}
);
width = 381;
}
);
unicode = 117;
},
{
glyphname = v;
lastChange = "2022-03-21 02:34:37 +0000";
layers = (
{
layerId = m01;
shapes = (
{
closed = 1;
nodes = (
(143,61,l),
(88,333,ls),
(86,343,o),
(76,350,o),
(66,350,cs),
(48,350,o),
(37,335,o),
(42,308,cs),
(100,21,ls),
(103,5,o),
(114,0,o),
(126,0,c)
);
},
{
closed = 1;
nodes = (
(137,0,o),
(146,3,o),
(153,19,cs),
(287,309,ls),
(298,334,o),
(286,348,o),
(268,350,cs),
(258,351,o),
(248,345,o),
(244,336,cs),
(120,67,l),
(125,0,l)
);
}
);
width = 325;
},
{
layerId = m002;
shapes = (
{
closed = 1;
nodes = (
(176,74,l),
(126,319,ls),
(122,340,o),
(102,355,o),
(80,355,cs),
(47,355,o),
(24,326,o),
(33,286,cs),
(84,34,ls),
(91,0,o),
(122,-11,o),
(154,-2,c)
);
},
{
closed = 1;
nodes = (
(137,-10,o),
(166,-5,o),
(181,27,cs),
(299,281,ls),
(316,319,o),
(294,351,o),
(260,355,cs),
(240,357,o),
(221,346,o),
(212,328,cs),
(101,86,l),
(106,-1,l)
);
}
);
width = 341;
}
);
unicode = 118;
},
{
glyphname = w;
lastChange = "2022-03-21 02:34:44 +0000";
layers = (
{
layerId = m01;
shapes = (
{
closed = 1;
nodes = (
(143,61,l),
(88,333,ls),
(86,343,o),
(76,350,o),
(66,350,cs),
(48,350,o),
(37,335,o),
(42,308,cs),
(100,21,ls),
(103,5,o),
(114,0,o),
(126,0,c)
);
},
{
closed = 1;
nodes = (
(137,0,o),
(146,3,o),
(153,19,cs),
(271,274,l),
(268,350,l),
(258,351,o),
(248,345,o),
(244,336,cs),
(120,67,l),
(125,0,l)
);
},
{
closed = 1;
nodes = (
(345,61,l),
(290,333,ls),
(288,343,o),
(278,350,o),
(268,350,c),
(251,274,l),
(302,21,ls),
(305,5,o),
(316,0,o),
(328,0,c)
);
},
{
closed = 1;
nodes = (
(339,0,o),
(348,3,o),
(355,19,cs),
(489,309,ls),
(500,334,o),
(488,348,o),
(470,350,cs),
(460,351,o),
(450,345,o),
(446,336,cs),
(322,67,l),
(327,0,l)
);
}
);
width = 527;
},
{
layerId = m002;
shapes = (
{
closed = 1;
nodes = (
(175,74,l),
(125,319,ls),
(121,340,o),
(102,355,o),
(80,355,cs),
(47,355,o),
(24,326,o),
(33,286,cs),
(83,35,ls),
(89,-1,o),
(126,-12,o),
(154,-1,c)
);
},
{
closed = 1;
nodes = (
(137,-10,o),
(167,-5,o),
(181,28,cs),
(286,256,l),
(283,345,l),
(257,365,o),
(222,353,o),
(211,327,cs),
(99,86,l),
(107,-1,l)
);
},
{
closed = 1;
nodes = (
(352,74,l),
(302,319,ls),
(296,348,o),
(262,365,o),
(233,349,c),
(213,262,l),
(260,34,ls),
(267,0,o),
(298,-11,o),
(330,-2,c)
);
},
{
closed = 1;
nodes = (
(316,-10,o),
(341,-5,o),
(357,27,cs),
(475,281,ls),
(492,319,o),
(470,351,o),
(436,355,cs),
(416,357,o),
(397,346,o),
(388,328,cs),
(277,86,l),
(283,-1,l)
);
}
);
width = 517;
}
);
metricLeft = v;
metricRight = v;
unicode = 119;
},
{
glyphname = x;
lastChange = "2022-03-21 01:15:27 +0000";
layers = (
{
layerId = m01;
shapes = (
{
closed = 1;
nodes = (
(12,0,o),
(19,6,o),
(28,18,cs),
(130,153,l),
(133,158,l),
(243,304,ls),
(251,314,o),
(255,323,o),
(255,330,cs),
(255,341,o),
(240,350,o),
(228,350,cs),
(221,350,o),
(213,347,o),
(206,338,cs),
(105,203,l),
(102,198,l),
(-9,49,ls),
(-20,34,o),
(-23,29,o),
(-23,22,cs),
(-23,10,o),
(-7,0,o),
(4,0,cs)
);
},
{
closed = 1;
nodes = (
(210,0,o),
(224,10,o),
(224,24,cs),
(224,30,o),
(218,41,o),
(214,49,cs),
(135,195,l),
(61,333,ls),
(55,343,o),
(46,350,o),
(36,350,cs),
(24,350,o),
(10,339,o),
(10,327,cs),
(10,321,o),
(14,314,o),
(17,309,cs),
(100,155,l),
(173,21,ls),
(182,5,o),
(189,0,o),
(197,0,cs)
);
}
);
width = 276;
},
{
layerId = m002;
shapes = (
{
closed = 1;
nodes = (
(39,-5,o),
(52,2,o),
(67,22,cs),
(156,140,l),
(159,144,l),
(254,272,ls),
(266,287,o),
(270,301,o),
(270,311,cs),
(270,339,o),
(241,355,o),
(220,355,cs),
(206,355,o),
(191,349,o),
(179,335,c),
(90,215,l),
(87,210,l),
(-10,81,ls),
(-22,63,o),
(-27,53,o),
(-27,41,cs),
(-27,12,o),
(3,-5,o),
(24,-5,cs)
);
},
{
closed = 1;
nodes = (
(215,-5,o),
(243,13,o),
(243,43,cs),
(243,54,o),
(237,67,o),
(231,78,cs),
(162,206,l),
(97,327,l),
(86,344,o),
(69,355,o),
(52,355,cs),
(30,355,o),
(2,337,o),
(2,308,cs),
(2,299,o),
(6,288,o),
(12,279,c),
(84,145,l),
(148,28,ls),
(159,5,o),
(176,-5,o),
(193,-5,cs)
);
}
);
width = 351;
}
);
unicode = 120;
},
{
glyphname = y;
lastChange = "2022-03-21 01:15:43 +0000";
layers = (
{
layerId = m01;
shapes = (
{
closed = 1;
nodes = (
(156,-4,o),
(196,46,o),
(238,117,c),
(247,236,l),
(185,99,o),
(146,45,o),
(104,45,cs),
(79,45,o),
(69,80,o),
(73,116,cs),
(95,321,ls),
(97,335,o),
(93,351,o),
(73,350,cs),
(53,349,o),
(47,332,o),
(46,321,cs),
(23,116,ls),
(16,51,o),
(43,-4,o),
(101,-4,cs)
);
},
{
closed = 1;
nodes = (
(168,-300,o),
(233,-238,o),
(245,-123,cs),
(292,320,ls),
(294,340,o),
(282,350,o),
(270,350,cs),
(257,350,o),
(244,341,o),
(242,323,cs),
(195,-123,ls),
(186,-208,o),
(144,-254,o),
(90,-254,cs),
(47,-254,o),
(29,-245,o),
(19,-228,cs),
(14,-220,o),
(2,-215,o),
(-11,-222,cs),
(-23,-229,o),
(-26,-244,o),
(-21,-251,cs),
(-2,-281,o),
(28,-300,o),
(89,-300,cs)
);
}
);
width = 343;
},
{
layerId = m002;
shapes = (
{
closed = 1;
nodes = (
(150,-4,o),
(185,36,o),
(217,83,c),
(236,276,l),
(185,132,o),
(133,86,o),
(115,86,cs),
(100,86,o),
(95,103,o),
(97,120,cs),
(117,295,ls),
(120,321,o),
(109,350,o),
(70,350,cs),
(38,350,o),
(24,327,o),
(21,302,cs),
(0,126,ls),
(-8,55,o),
(30,-4,o),
(99,-4,cs)
);
},
{
closed = 1;
nodes = (
(193,-306,o),
(263,-237,o),
(276,-117,cs),
(320,295,ls),
(324,329,o),
(300,353,o),
(273,353,cs),
(246,353,o),
(223,334,o),
(219,303,cs),
(176,-111,ls),
(168,-181,o),
(143,-209,o),
(105,-209,cs),
(70,-209,o),
(67,-207,o),
(62,-198,cs),
(50,-179,o),
(23,-169,o),
(-2,-182,cs),
(-27,-198,o),
(-34,-229,o),
(-20,-249,cs),
(2,-283,o),
(37,-306,o),
(104,-306,cs)
);
}
);
width = 382;
}
);
unicode = 121;
},
{
glyphname = z;
lastChange = "2022-03-21 01:16:30 +0000";
layers = (
{
layerId = m01;
shapes = (
{
closed = 1;
nodes = (
(-28,26,o),
(-14,0,o),
(5,0,c),
(20,11,l),
(250,309,ls),
(265,329,o),
(251,350,o),
(231,350,c),
(214,341,l),
(-14,44,ls)
);
},
{
closed = 1;
nodes = (
(226,37,o),
(219,50,o),
(199,50,cs),
(40,50,l),
(5,0,l),
(202,0,ls),
(222,0,o),
(226,13,o),
(226,25,cs)
);
},
{
closed = 1;
nodes = (
(11,313,o),
(19,300,o),
(39,300,cs),
(196,300,l),
(231,350,l),
(36,350,ls),
(16,350,o),
(11,337,o),
(11,325,cs)
);
}
);
width = 280;
},
{
layerId = m002;
shapes = (
{
closed = 1;
nodes = (
(-37,41,o),
(-6,-14,o),
(40,-4,c),
(61,13,l),
(265,276,l),
(292,314,o),
(263,361,o),
(219,354,c),
(194,341,l),
(-9,77,ls)
);
},
{
closed = 1;
nodes = (
(249,65,o),
(234,93,o),
(199,93,cs),
(101,93,l),
(34,-5,l),
(201,-5,ls),
(233,-5,o),
(249,16,o),
(249,44,cs)
);
},
{
closed = 1;
nodes = (
(7,285,o),
(23,257,o),
(59,257,cs),
(156,257,l),
(225,355,l),
(56,355,ls),
(19,355,o),
(7,328,o),
(7,306,cs)
);
}
);
width = 311;
}
);
unicode = 122;
},
{
glyphname = zero;
lastChange = "2022-03-21 01:20:16 +0000";
layers = (
{
layerId = m01;
shapes = (
{
closed = 1;
nodes = (
(329,-4,o),
(400,122,o),
(418,300,cs),
(429,408,o),
(404,567,o),
(253,567,cs),
(108,567,o),
(53,430,o),
(35,252,cs),
(21,117,o),
(75,-4,o),
(201,-4,cs)
);
},
{
closed = 1;
nodes = (
(123,42,o),
(72,115,o),
(85,245,cs),
(96,352,o),
(119,521,o),
(253,521,cs),
(366,521,o),
(378,392,o),
(367,290,cs),
(354,167,o),
(306,42,o),
(202,42,cs)
);
}
);
width = 454;
},
{
layerId = m002;
shapes = (
{
closed = 1;
nodes = (
(353,-4,o),
(433,122,o),
(453,300,cs),
(465,408,o),
(436,567,o),
(270,567,cs),
(111,567,o),
(50,430,o),
(30,252,cs),
(14,117,o),
(76,-4,o),
(214,-4,cs)
);
},
{
closed = 1;
nodes = (
(158,86,o),
(119,138,o),
(130,248,cs),
(140,339,o),
(151,477,o),
(261,477,cs),
(352,477,o),
(360,372,o),
(351,287,cs),
(340,183,o),
(306,86,o),
(223,86,cs)
);
}
);
width = 496;
}
);
unicode = 48;
},
{
glyphname = one;
lastChange = "2022-03-21 01:20:29 +0000";
layers = (
{
layerId = m01;
shapes = (
{
closed = 1;
nodes = (
(106,0,o),
(118,6,o),
(120,23,cs),
(176,543,ls),
(178,560,o),
(166,568,o),
(153,568,cs),
(140,568,o),
(127,561,o),
(125,543,cs),
(70,28,ls),
(68,9,o),
(81,0,o),
(94,0,cs)
);
}
);
width = 251;
},
{
layerId = m002;
shapes = (
{
closed = 1;
nodes = (
(124,0,o),
(145,18,o),
(149,51,cs),
(200,515,ls),
(203,543,o),
(188,568,o),
(153,568,cs),
(123,568,o),
(103,547,o),
(100,520,cs),
(49,57,ls),
(45,21,o),
(62,0,o),
(95,0,cs)
);
}
);
width = 243;
}
);
unicode = 49;
},
{
glyphname = two;
lastChange = "2022-03-21 01:20:45 +0000";
layers = (
{
layerId = m01;
shapes = (
{
closed = 1;
nodes = (
(49,454,o),
(65,451,o),
(89,471,cs),
(138,513,o),
(235,534,o),
(280,508,cs),
(332,478,o),
(283,393,o),
(235,332,cs),
(211,301,o),
(71,128,o),
(-8,35,cs),
(-20,21,o),
(-8,0,o),
(10,0,cs),
(23,0,l),
(68,49,l),
(120,115,o),
(248,263,o),
(282,306,cs),
(375,423,o),
(382,504,o),
(300,552,cs),
(228,594,o),
(110,557,o),
(50,505,cs),
(28,486,o),
(32,473,o),
(41,463,cs)
);
},
{
closed = 1;
nodes = (
(305,37,o),
(299,50,o),
(279,50,cs),
(28,50,l),
(10,0,l),
(282,0,ls),
(302,0,o),
(307,13,o),
(306,25,cs)
);
}
);
width = 375;
},
{
layerId = m002;
shapes = (
{
closed = 1;
nodes = (
(61,421,o),
(95,413,o),
(124,439,cs),
(169,478,o),
(245,493,o),
(278,473,cs),
(306,457,o),
(273,398,o),
(230,343,cs),
(206,313,o),
(116,207,o),
(15,80,cs),
(-16,41,o),
(0,0,o),
(40,0,cs),
(75,0,l),
(115,49,l),
(165,112,o),
(261,225,o),
(293,265,cs),
(412,414,o),
(416,491,o),
(321,547,cs),
(243,593,o),
(116,559,o),
(57,504,cs),
(30,479,o),
(34,457,o),
(48,438,cs)
);
},
{
closed = 1;
nodes = (
(340,65,o),
(321,86,o),
(289,86,cs),
(33,86,l),
(39,0,l),
(295,0,ls),
(325,0,o),
(344,14,o),
(342,41,cs)
);
}
);
width = 426;
}
);
unicode = 50;
},
{
glyphname = three;
lastChange = "2022-03-21 01:21:04 +0000";
layers = (
{
layerId = m01;
shapes = (
{
closed = 1;
nodes = (
(-5,56,o),
(-6,45,o),
(11,31,cs),
(29,16,o),
(72,-4,o),
(139,-4,cs),
(225,-4,o),
(339,49,o),
(350,154,cs),
(360,255,o),
(283,313,o),
(209,320,c),
(105,330,ls),
(96,331,o),
(85,320,o),
(85,307,cs),
(85,294,o),
(95,282,o),
(105,282,cs),
(148,282,o),
(182,277,o),
(219,272,cs),
(275,264,o),
(306,217,o),
(300,153,cs),
(292,76,o),
(197,42,o),
(137,42,cs),
(79,42,o),
(58,54,o),
(38,68,cs),
(21,80,o),
(8,76,o),
(1,66,cs)
);
},
{
closed = 1;
nodes = (
(61,488,o),
(74,484,o),
(91,496,cs),
(111,510,o),
(132,522,o),
(199,522,cs),
(259,522,o),
(311,500,o),
(304,437,cs),
(299,391,o),
(264,348,o),
(219,341,cs),
(182,335,o),
(148,330,o),
(105,330,c),
(105,282,l),
(209,292,l),
(278,299,o),
(345,352,o),
(354,436,cs),
(364,526,o),
(278,568,o),
(201,568,cs),
(125,568,o),
(82,548,o),
(64,533,cs),
(47,519,o),
(48,508,o),
(54,498,cs)
);
}
);
width = 388;
},
{
layerId = m002;
shapes = (
{
closed = 1;
nodes = (
(-24,81,o),
(-23,56,o),
(4,34,cs),
(25,17,o),
(64,-4,o),
(133,-4,cs),
(222,-4,o),
(351,46,o),
(363,161,cs),
(375,273,o),
(289,337,o),
(207,345,cs),
(111,354,ls),
(87,356,o),
(63,334,o),
(63,306,cs),
(63,283,o),
(81,256,o),
(108,256,cs),
(146,256,o),
(176,251,o),
(210,246,cs),
(251,241,o),
(268,216,o),
(263,167,cs),
(258,112,o),
(189,86,o),
(138,86,cs),
(92,86,o),
(74,95,o),
(56,107,cs),
(27,128,o),
(4,125,o),
(-11,102,cs)
);
},
{
closed = 1;
nodes = (
(57,435,o),
(84,439,o),
(108,458,cs),
(126,470,o),
(142,477,o),
(196,477,cs),
(246,477,o),
(272,460,o),
(267,422,cs),
(264,387,o),
(242,369,o),
(210,364,cs),
(168,358,o),
(133,354,o),
(111,354,c),
(108,256,l),
(207,265,ls),
(284,272,o),
(357,323,o),
(367,415,cs),
(378,519,o),
(280,567,o),
(197,567,cs),
(120,567,o),
(74,546,o),
(53,529,cs),
(26,507,o),
(25,482,o),
(39,460,cs)
);
}
);
width = 417;
}
);
unicode = 51;
},
{
glyphname = four;
lastChange = "2022-03-21 01:21:22 +0000";
layers = (
{
layerId = m01;
shapes = (
{
closed = 1;
nodes = (
(129,540,ls),
(131,558,o),
(118,568,o),
(106,568,cs),
(94,568,o),
(81,562,o),
(79,544,cs),
(44,219,ls),
(43,207,o),
(53,196,o),
(66,196,c),
(95,220,l)
);
},
{
closed = 1;
nodes = (
(215,0,o),
(228,6,o),
(230,26,cs),
(262,321,ls),
(264,338,o),
(255,350,o),
(240,350,cs),
(227,350,o),
(214,345,o),
(212,328,cs),
(180,31,ls),
(178,11,o),
(190,0,o),
(203,0,cs)
);
},
{
closed = 1;
nodes = (
(364,196,ls),
(380,196,o),
(388,207,o),
(388,219,cs),
(388,231,o),
(376,241,o),
(360,241,cs),
(82,241,l),
(64,196,l)
);
}
);
width = 377;
},
{
layerId = m002;
shapes = (
{
closed = 1;
nodes = (
(162,519,ls),
(165,551,o),
(140,568,o),
(115,568,cs),
(91,568,o),
(66,555,o),
(63,527,cs),
(31,221,ls),
(28,196,o),
(50,173,o),
(82,173,c),
(130,215,l)
);
},
{
closed = 1;
nodes = (
(247,0,o),
(264,16,o),
(267,44,cs),
(290,298,ls),
(293,327,o),
(278,349,o),
(251,350,cs),
(223,351,o),
(201,339,o),
(198,311,cs),
(173,59,ls),
(170,26,o),
(184,0,o),
(215,0,cs)
);
},
{
closed = 1;
nodes = (
(375,173,ls),
(403,173,o),
(420,193,o),
(421,219,cs),
(422,243,o),
(404,263,o),
(376,263,cs),
(122,263,l),
(82,173,l)
);
}
);
width = 433;
}
);
unicode = 52;
},
{
glyphname = five;
lastChange = "2022-03-21 01:21:35 +0000";
layers = (
{
layerId = m01;
shapes = (
{
closed = 1;
nodes = (
(252,-3,o),
(340,96,o),
(340,201,cs),
(340,296,o),
(262,354,o),
(163,354,cs),
(135,354,o),
(96,342,o),
(75,333,c),
(75,286,l),
(120,299,o),
(145,304,o),
(170,304,cs),
(243,304,o),
(289,264,o),
(289,201,cs),
(289,118,o),
(221,47,o),
(128,47,cs),
(103,47,o),
(80,53,o),
(65,67,cs),
(58,74,o),
(51,76,o),
(42,76,cs),
(31,76,o),
(21,67,o),
(21,54,cs),
(21,45,o),
(26,37,o),
(36,28,cs),
(58,8,o),
(92,-3,o),
(131,-3,cs)
);
},
{
closed = 1;
nodes = (
(45,295,o),
(60,282,o),
(75,286,c),
(95,310,l),
(122,542,l),
(104,568,l),
(84,568,o),
(74,560,o),
(72,541,cs),
(47,310,ls)
);
},
{
closed = 1;
nodes = (
(352,557,o),
(344,568,o),
(324,568,cs),
(104,568,l),
(104,523,l),
(325,523,ls),
(345,523,o),
(352,533,o),
(352,545,cs)
);
}
);
width = 373;
},
{
layerId = m002;
shapes = (
{
closed = 1;
nodes = (
(257,-4,o),
(352,95,o),
(352,200,cs),
(352,290,o),
(279,359,o),
(170,359,cs),
(138,359,o),
(122,356,o),
(114,354,c),
(86,262,l),
(115,267,o),
(132,268,o),
(168,268,cs),
(228,268,o),
(251,235,o),
(251,193,cs),
(251,132,o),
(194,82,o),
(125,82,cs),
(107,82,o),
(92,85,o),
(81,92,cs),
(69,100,o),
(55,109,o),
(42,109,cs),
(21,109,o),
(1,96,o),
(1,71,cs),
(1,57,o),
(9,44,o),
(24,30,cs),
(49,7,o),
(94,-4,o),
(135,-4,cs)
);
},
{
closed = 1;
nodes = (
(22,278,o),
(58,254,o),
(86,262,c),
(128,301,l),
(151,526,l),
(118,568,l),
(75,568,o),
(54,552,o),
(50,521,cs),
(26,309,ls)
);
},
{
closed = 1;
nodes = (
(382,553,o),
(359,568,o),
(329,568,cs),
(118,568,l),
(131,484,l),
(335,484,ls),
(367,484,o),
(380,502,o),
(381,526,cs)
);
}
);
width = 386;
}
);
unicode = 53;
},
{
glyphname = six;
lastChange = "2022-03-21 01:21:53 +0000";
layers = (
{
layerId = m01;
shapes = (
{
closed = 1;
nodes = (
(276,0,o),
(334,128,o),
(336,211,cs),
(339,300,o),
(286,359,o),
(198,353,cs),
(128,348,o),
(74,297,o),
(48,233,c),
(33,101,l),
(41,40,o),
(100,-12,o),
(185,-6,cs)
);
},
{
closed = 1;
nodes = (
(131,36,o),
(90,48,o),
(79,126,cs),
(69,205,o),
(117,301,o),
(200,307,cs),
(273,312,o),
(289,265,o),
(286,202,cs),
(284,148,o),
(241,44,o),
(181,40,cs)
);
},
{
closed = 1;
nodes = (
(80,109,l),
(76,147,o),
(79,192,o),
(86,245,cs),
(103,400,o),
(151,519,o),
(233,525,cs),
(268,527,o),
(291,519,o),
(313,494,cs),
(322,484,o),
(338,480,o),
(350,493,cs),
(361,506,o),
(355,516,o),
(347,525,cs),
(318,559,o),
(283,574,o),
(226,570,cs),
(109,562,o),
(56,423,o),
(36,247,cs),
(29,195,o),
(27,141,o),
(33,101,c)
);
}
);
width = 389;
},
{
layerId = m002;
shapes = (
{
closed = 1;
nodes = (
(279,1,o),
(349,122,o),
(352,208,cs),
(356,300,o),
(295,361,o),
(196,354,cs),
(127,349,o),
(58,305,o),
(30,236,c),
(16,107,l),
(23,35,o),
(88,-13,o),
(178,-6,cs)
);
},
{
closed = 1;
nodes = (
(148,82,o),
(120,88,o),
(112,141,cs),
(104,206,o),
(135,259,o),
(191,263,cs),
(228,266,o),
(254,261,o),
(252,202,cs),
(251,158,o),
(217,87,o),
(183,84,cs)
);
},
{
closed = 1;
nodes = (
(105,96,l),
(94,132,o),
(107,175,o),
(114,238,cs),
(130,379,o),
(171,476,o),
(231,480,cs),
(257,482,o),
(273,477,o),
(288,459,cs),
(308,439,o),
(336,429,o),
(359,454,cs),
(377,476,o),
(373,499,o),
(356,518,cs),
(323,556,o),
(283,574,o),
(221,570,cs),
(92,561,o),
(39,416,o),
(20,246,cs),
(11,184,o),
(9,119,o),
(22,79,c)
);
}
);
width = 400;
}
);
unicode = 54;
},
{
glyphname = seven;
lastChange = "2022-03-21 01:22:12 +0000";
layers = (
{
layerId = m01;
shapes = (
{
closed = 1;
nodes = (
(-18,0,o),
(-5,8,o),
(5,26,cs),
(291,533,ls),
(301,551,o),
(291,568,o),
(271,568,cs),
(260,568,o),
(249,560,o),
(243,549,cs),
(-42,46,ls),
(-59,15,o),
(-43,0,o),
(-30,0,cs)
);
},
{
closed = 1;
nodes = (
(239,523,l),
(272,568,l),
(31,568,ls),
(13,568,o),
(5,557,o),
(6,546,cs),
(7,534,o),
(16,523,o),
(34,523,cs)
);
}
);
width = 337;
},
{
layerId = m002;
shapes = (
{
closed = 1;
nodes = (
(25,0,o),
(44,18,o),
(57,42,cs),
(318,503,ls),
(337,537,o),
(318,568,o),
(275,568,cs),
(253,568,o),
(235,558,o),
(223,537,cs),
(-36,75,ls),
(-63,27,o),
(-25,0,o),
(2,0,cs)
);
},
{
closed = 1;
nodes = (
(222,478,l),
(276,568,l),
(43,568,ls),
(13,568,o),
(-5,546,o),
(-4,522,cs),
(-3,498,o),
(19,478,o),
(49,478,cs)
);
}
);
width = 379;
}
);
unicode = 55;
},
{
glyphname = eight;
lastChange = "2022-03-21 01:22:29 +0000";
layers = (
{
layerId = m01;
shapes = (
{
closed = 1;
nodes = (
(108,42,o),
(70,73,o),
(70,137,cs),
(70,201,o),
(103,235,o),
(180,291,cs),
(257,347,o),
(340,402,o),
(340,464,cs),
(340,547,o),
(268,568,o),
(201,568,cs),
(128,568,o),
(50,533,o),
(50,448,cs),
(50,387,o),
(119,329,o),
(146,302,cs),
(161,287,ls),
(197,251,o),
(255,194,o),
(255,149,cs),
(255,77,o),
(216,42,o),
(158,42,cs)
);
},
{
closed = 1;
nodes = (
(243,-4,o),
(305,58,o),
(305,149,cs),
(305,199,o),
(260,255,o),
(203,310,cs),
(173,339,ls),
(149,363,o),
(100,406,o),
(100,451,cs),
(100,504,o),
(154,522,o),
(198,522,cs),
(247,522,o),
(290,518,o),
(290,465,cs),
(290,421,o),
(219,376,o),
(149,325,cs),
(52,254,o),
(20,209,o),
(20,133,cs),
(20,54,o),
(79,-4,o),
(155,-4,cs)
);
}
);
width = 359;
},
{
layerId = m002;
shapes = (
{
closed = 1;
nodes = (
(145,81,o),
(117,108,o),
(117,148,cs),
(117,177,o),
(137,219,o),
(230,287,cs),
(308,344,o),
(377,399,o),
(377,472,cs),
(377,539,o),
(292,568,o),
(220,568,cs),
(143,568,o),
(60,526,o),
(60,428,cs),
(60,355,o),
(124,311,o),
(146,289,cs),
(165,270,ls),
(201,234,o),
(248,190,o),
(248,147,cs),
(248,113,o),
(219,81,o),
(178,81,cs)
);
},
{
closed = 1;
nodes = (
(294,-4,o),
(343,86,o),
(343,156,cs),
(343,218,o),
(289,275,o),
(238,322,cs),
(213,345,ls),
(185,371,o),
(152,397,o),
(152,433,cs),
(152,470,o),
(189,488,o),
(224,488,cs),
(256,488,o),
(284,483,o),
(284,463,cs),
(284,443,o),
(224,391,o),
(167,352,cs),
(63,281,o),
(22,204,o),
(22,148,cs),
(22,87,o),
(68,-4,o),
(179,-4,cs)
);
}
);
width = 393;
}
);
unicode = 56;
},
{
glyphname = nine;
lastChange = "2022-03-21 01:22:46 +0000";
layers = (
{
layerId = m01;
shapes = (
{
closed = 1;
nodes = (
(260,0,o),
(272,6,o),
(274,21,cs),
(329,541,ls),
(331,559,o),
(318,568,o),
(304,568,cs),
(293,568,o),
(281,561,o),
(279,546,cs),
(224,26,ls),
(222,10,o),
(235,0,o),
(249,0,cs)
);
},
{
closed = 1;
nodes = (
(206,218,o),
(243,257,o),
(266,304,c),
(284,466,l),
(280,466,l),
(279,461,o),
(275,435,o),
(274,430,cs),
(257,369,o),
(211,264,o),
(163,264,cs),
(111,264,o),
(92,330,o),
(99,395,cs),
(108,480,o),
(149,526,o),
(198,526,cs),
(226,526,o),
(267,518,o),
(286,489,c),
(291,535,l),
(266,563,o),
(229,572,o),
(199,572,cs),
(125,572,o),
(61,513,o),
(49,398,cs),
(40,310,o),
(75,218,o),
(162,218,cs)
);
}
);
width = 365;
},
{
layerId = m002;
shapes = (
{
closed = 1;
nodes = (
(276,0,o),
(296,21,o),
(299,48,cs),
(349,511,ls),
(353,547,o),
(336,568,o),
(303,568,cs),
(274,568,o),
(252,544,o),
(248,511,cs),
(199,53,ls),
(196,25,o),
(211,0,o),
(246,0,cs)
);
},
{
closed = 1;
nodes = (
(213,214,o),
(257,282,o),
(279,330,c),
(297,484,l),
(241,484,l),
(236,458,o),
(235,436,o),
(234,430,cs),
(216,330,o),
(185,304,o),
(161,304,cs),
(138,304,o),
(126,340,o),
(132,392,cs),
(139,457,o),
(161,482,o),
(191,482,cs),
(220,482,o),
(235,478,o),
(286,400,c),
(299,512,l),
(268,539,o),
(227,572,o),
(192,572,cs),
(114,572,o),
(45,515,o),
(32,400,cs),
(23,312,o),
(64,214,o),
(160,214,cs)
);
}
);
width = 389;
}
);
unicode = 57;
},
{
glyphname = .notdef;
lastChange = "2022-03-21 00:29:12 +0000";
layers = (
{
layerId = m01;
shapes = (
{
closed = 1;
nodes = (
(464,0,o),
(474,12,o),
(476,27,cs),
(545,673,ls),
(547,689,o),
(539,700,o),
(525,700,cs),
(129,700,ls),
(112,700,o),
(102,689,o),
(100,673,cs),
(31,27,ls),
(29,12,o),
(38,0,o),
(57,0,cs),
(453,0,ls)
);
},
{
closed = 1;
nodes = (
(149,655,l),
(492,655,l),
(428,45,l),
(84,45,l)
);
}
);
width = 576;
},
{
layerId = m002;
shapes = (
{
closed = 1;
nodes = (
(505,0,o),
(526,26,o),
(529,49,cs),
(593,659,ls),
(596,687,o),
(580,700,o),
(543,700,c),
(163,700,l),
(135,700,o),
(115,687,o),
(112,659,cs),
(48,49,ls),
(45,21,o),
(60,0,o),
(99,0,cs),
(480,0,ls)
);
},
{
closed = 1;
nodes = (
(209,605,l),
(486,605,l),
(431,95,l),
(154,95,l)
);
}
);
width = 639;
}
);
},
{
glyphname = period;
lastChange = "2022-03-21 02:12:14 +0000";
layers = (
{
layerId = m01;
shapes = (
{
closed = 1;
nodes = (
(69,-9,o),
(86,11,o),
(86,32,cs),
(86,53,o),
(69,71,o),
(47,71,cs),
(25,71,o),
(6,53,o),
(6,32,cs),
(6,11,o),
(25,-9,o),
(47,-9,cs)
);
}
);
width = 162;
},
{
layerId = m002;
shapes = (
{
closed = 1;
nodes = (
(116,-12,o),
(142,14,o),
(142,44,cs),
(142,73,o),
(116,98,o),
(87,98,cs),
(56,98,o),
(32,73,o),
(32,44,cs),
(32,15,o),
(56,-12,o),
(87,-12,cs)
);
}
);
width = 231;
}
);
unicode = 46;
},
{
glyphname = comma;
lastChange = "2022-03-21 00:29:12 +0000";
layers = (
{
layerId = m01;
shapes = (
{
closed = 1;
nodes = (
(33,-103,o),
(48,-96,o),
(50,-76,cs),
(60,18,ls),
(62,39,o),
(51,49,o),
(38,50,cs),
(24,52,o),
(12,45,o),
(10,28,cs),
(0,-71,ls),
(-2,-89,o),
(9,-99,o),
(21,-101,cs)
);
}
);
width = 140;
},
{
layerId = m002;
shapes = (
{
closed = 1;
nodes = (
(88,-105,o),
(117,-90,o),
(120,-60,cs),
(131,39,ls),
(134,71,o),
(112,91,o),
(84,94,cs),
(59,97,o),
(33,83,o),
(30,54,cs),
(20,-45,ls),
(17,-76,o),
(39,-97,o),
(64,-101,cs)
);
}
);
width = 222;
}
);
unicode = 44;
},
{
glyphname = colon;
lastChange = "2022-03-21 02:10:55 +0000";
layers = (
{
layerId = m01;
shapes = (
{
closed = 1;
nodes = (
(72,-9,o),
(89,11,o),
(89,32,cs),
(89,53,o),
(72,71,o),
(51,71,cs),
(30,71,o),
(9,53,o),
(9,32,cs),
(9,11,o),
(30,-9,o),
(51,-9,cs)
);
},
{
closed = 1;
nodes = (
(98,239,o),
(116,259,o),
(116,280,cs),
(116,301,o),
(98,319,o),
(77,319,cs),
(56,319,o),
(36,301,o),
(36,280,cs),
(36,259,o),
(56,239,o),
(77,239,cs)
);
}
);
width = 157;
},
{
layerId = m002;
shapes = (
{
closed = 1;
nodes = (
(108,-8,o),
(134,17,o),
(134,47,cs),
(134,77,o),
(108,101,o),
(78,102,cs),
(47,102,o),
(24,77,o),
(24,48,cs),
(24,19,o),
(47,-7,o),
(78,-8,cs)
);
},
{
closed = 1;
nodes = (
(135,240,o),
(161,266,o),
(161,296,cs),
(161,325,o),
(135,349,o),
(106,350,cs),
(75,350,o),
(51,324,o),
(51,296,cs),
(51,268,o),
(75,241,o),
(105,240,cs)
);
}
);
width = 221;
}
);
unicode = 58;
},
{
glyphname = semicolon;
lastChange = "2022-03-21 02:09:26 +0000";
layers = (
{
layerId = m01;
shapes = (
{
closed = 1;
nodes = (
(58,-103,o),
(70,-95,o),
(72,-78,cs),
(84,21,ls),
(86,39,o),
(74,49,o),
(61,50,cs),
(47,52,o),
(35,45,o),
(33,28,cs),
(23,-71,ls),
(21,-90,o),
(34,-101,o),
(47,-102,cs)
);
},
{
closed = 1;
nodes = (
(101,239,o),
(121,258,o),
(121,278,cs),
(121,299,o),
(101,315,o),
(81,315,cs),
(60,315,o),
(44,298,o),
(44,278,cs),
(44,259,o),
(60,239,o),
(81,239,cs)
);
}
);
width = 164;
},
{
layerId = m002;
shapes = (
{
closed = 1;
nodes = (
(99,-104,o),
(124,-89,o),
(127,-60,cs),
(138,39,ls),
(142,71,o),
(119,91,o),
(91,94,cs),
(66,97,o),
(40,83,o),
(37,54,cs),
(27,-45,ls),
(24,-78,o),
(49,-100,o),
(76,-102,cs)
);
},
{
closed = 1;
nodes = (
(144,239,o),
(169,266,o),
(169,296,cs),
(169,325,o),
(143,350,o),
(114,350,cs),
(83,350,o),
(59,324,o),
(59,296,cs),
(59,268,o),
(84,239,o),
(114,239,cs)
);
}
);
width = 228;
}
);
unicode = 59;
},
{
glyphname = ellipsis;
lastChange = "2022-03-21 02:20:20 +0000";
layers = (
{
layerId = m01;
shapes = (
{
closed = 1;
nodes = (
(286,-30,o),
(303,-12,o),
(303,9,cs),
(303,29,o),
(286,46,o),
(266,46,cs),
(245,46,o),
(228,29,o),
(228,9,cs),
(228,-11,o),
(245,-30,o),
(266,-30,cs)
);
},
{
closed = 1;
nodes = (
(65,-30,o),
(83,-12,o),
(83,9,cs),
(83,29,o),
(65,46,o),
(45,46,cs),
(24,46,o),
(8,29,o),
(8,9,cs),
(8,-11,o),
(24,-30,o),
(45,-30,cs)
);
},
{
closed = 1;
nodes = (
(175,-30,o),
(193,-12,o),
(193,9,cs),
(193,29,o),
(175,46,o),
(155,46,cs),
(134,46,o),
(118,29,o),
(118,9,cs),
(118,-11,o),
(134,-30,o),
(155,-30,cs)
);
}
);
width = 384;
},
{
layerId = m002;
shapes = (
{
closed = 1;
nodes = (
(401,-31,o),
(428,-6,o),
(428,25,cs),
(428,56,o),
(402,79,o),
(373,79,cs),
(345,79,o),
(318,57,o),
(318,25,cs),
(318,-6,o),
(344,-31,o),
(373,-31,cs)
);
},
{
closed = 1;
nodes = (
(110,-31,o),
(138,-6,o),
(138,25,cs),
(138,56,o),
(111,79,o),
(82,79,cs),
(54,79,o),
(28,57,o),
(28,25,cs),
(28,-6,o),
(53,-31,o),
(82,-31,cs)
);
},
{
closed = 1;
nodes = (
(256,-30,o),
(283,-6,o),
(283,25,cs),
(283,56,o),
(256,79,o),
(228,79,cs),
(199,79,o),
(173,56,o),
(173,25,cs),
(173,-6,o),
(199,-30,o),
(228,-30,cs)
);
}
);
width = 522;
}
);
unicode = 8230;
},
{
glyphname = exclam;
lastChange = "2022-03-21 02:05:43 +0000";
layers = (
{
layerId = m01;
shapes = (
{
closed = 1;
nodes = (
(101,174,o),
(115,183,o),
(117,202,cs),
(163,629,ls),
(165,643,o),
(154,650,o),
(142,650,cs),
(129,650,o),
(114,643,o),
(112,629,cs),
(66,202,ls),
(64,185,o),
(77,176,o),
(89,175,cs)
);
},
{
closed = 1;
nodes = (
(95,-9,o),
(111,10,o),
(111,30,cs),
(111,50,o),
(95,68,o),
(74,68,cs),
(52,68,o),
(34,49,o),
(34,30,cs),
(34,11,o),
(53,-9,o),
(74,-9,cs)
);
}
);
width = 223;
},
{
layerId = m002;
shapes = (
{
closed = 1;
nodes = (
(142,173,o),
(170,191,o),
(173,220,cs),
(215,605,ls),
(218,632,o),
(190,650,o),
(166,650,cs),
(144,650,o),
(116,635,o),
(113,611,cs),
(71,226,ls),
(68,197,o),
(94,177,o),
(119,175,cs)
);
},
{
closed = 1;
nodes = (
(134,-11,o),
(163,17,o),
(164,47,cs),
(165,78,o),
(135,106,o),
(103,106,cs),
(70,106,o),
(47,76,o),
(47,47,cs),
(47,19,o),
(69,-11,o),
(102,-11,cs)
);
}
);
width = 270;
}
);
unicode = 33;
},
{
glyphname = exclamdown;
lastChange = "2022-03-21 02:07:31 +0000";
layers = (
{
layerId = m002;
shapes = (
{
closed = 1;
nodes = (
(196,433,o),
(169,450,o),
(145,452,cs),
(121,454,o),
(95,437,o),
(92,407,cs),
(53,47,ls),
(50,17,o),
(76,-2,o),
(104,0,cs),
(126,0,o),
(150,14,o),
(153,39,cs),
(192,399,ls)
);
},
{
closed = 1;
nodes = (
(191,540,o),
(216,566,o),
(216,595,cs),
(216,623,o),
(191,650,o),
(161,650,cs),
(130,650,o),
(106,623,o),
(106,595,cs),
(106,566,o),
(130,540,o),
(161,540,cs)
);
}
);
width = 270;
},
{
layerId = m01;
shapes = (
{
closed = 1;
nodes = (
(132,441,o),
(120,450,o),
(107,451,cs),
(95,452,o),
(81,443,o),
(79,424,cs),
(34,21,ls),
(32,6,o),
(44,-1,o),
(57,0,cs),
(69,0,o),
(83,7,o),
(85,21,cs),
(130,424,ls)
);
},
{
closed = 1;
nodes = (
(146,580,o),
(161,598,o),
(161,613,cs),
(161,632,o),
(145,650,o),
(126,650,cs),
(107,650,o),
(92,631,o),
(92,614,cs),
(92,595,o),
(108,580,o),
(126,580,cs)
);
}
);
width = 196;
}
);
unicode = 161;
},
{
glyphname = question;
lastChange = "2022-03-21 02:13:34 +0000";
layers = (
{
layerId = m002;
shapes = (
{
closed = 1;
nodes = (
(104,427,o),
(138,443,o),
(141,476,cs),
(145,524,o),
(167,565,o),
(229,565,cs),
(280,565,o),
(312,545,o),
(307,504,cs),
(303,459,o),
(293,355,o),
(158,356,c),
(142,267,l),
(318,256,o),
(386,353,o),
(403,492,cs),
(412,577,o),
(332,654,o),
(235,654,cs),
(118,654,o),
(56,586,o),
(46,493,cs),
(41,458,o),
(57,439,o),
(79,434,cs)
);
},
{
closed = 1;
nodes = (
(159,-11,o),
(187,17,o),
(188,47,cs),
(189,78,o),
(160,106,o),
(128,106,cs),
(95,106,o),
(71,76,o),
(71,47,cs),
(71,19,o),
(94,-11,o),
(127,-11,cs)
);
},
{
closed = 1;
nodes = (
(173,171,o),
(195,193,o),
(199,225,cs),
(209,313,l),
(158,356,l),
(137,356,o),
(116,342,o),
(114,321,cs),
(104,233,ls),
(101,207,o),
(117,182,o),
(147,176,cs)
);
}
);
width = 419;
},
{
layerId = m01;
shapes = (
{
closed = 1;
nodes = (
(89,453,o),
(108,462,o),
(110,484,cs),
(116,541,o),
(150,604,o),
(235,604,cs),
(301,604,o),
(356,569,o),
(350,496,cs),
(343,419,o),
(306,322,o),
(168,322,c),
(168,272,l),
(324,272,o),
(386,365,o),
(399,488,cs),
(409,583,o),
(336,655,o),
(245,654,cs),
(130,654,o),
(71,589,o),
(61,494,cs),
(58,472,o),
(64,459,o),
(75,456,cs)
);
},
{
closed = 1;
nodes = (
(164,-6,o),
(184,11,o),
(184,33,cs),
(184,54,o),
(165,74,o),
(143,74,cs),
(121,74,o),
(104,53,o),
(104,33,cs),
(104,12,o),
(121,-6,o),
(143,-6,cs)
);
},
{
closed = 1;
nodes = (
(169,173,o),
(182,180,o),
(185,202,c),
(196,303,l),
(168,322,l),
(157,322,o),
(146,313,o),
(145,302,cs),
(134,201,ls),
(132,187,o),
(144,177,o),
(156,174,cs)
);
}
);
width = 420;
}
);
unicode = 63;
},
{
glyphname = questiondown;
lastChange = "2022-03-21 02:15:30 +0000";
layers = (
{
layerId = m002;
shapes = (
{
closed = 1;
nodes = (
(150,398,o),
(76,296,o),
(61,160,cs),
(53,76,o),
(129,1,o),
(224,1,cs),
(339,1,o),
(406,67,o),
(417,159,cs),
(419,194,o),
(405,212,o),
(384,217,cs),
(359,224,o),
(325,208,o),
(322,175,cs),
(318,128,o),
(296,89,o),
(236,89,cs),
(186,89,o),
(156,108,o),
(161,148,cs),
(165,192,o),
(181,300,o),
(303,289,c),
(325,386,l)
);
},
{
closed = 1;
nodes = (
(363,454,o),
(343,473,o),
(319,479,cs),
(292,484,o),
(264,470,o),
(260,435,cs),
(249,333,ls),
(247,310,o),
(272,289,o),
(303,289,cs),
(325,289,o),
(347,304,o),
(349,326,cs),
(360,428,ls)
);
},
{
closed = 1;
nodes = (
(354,540,o),
(380,568,o),
(380,597,cs),
(380,625,o),
(353,650,o),
(324,650,cs),
(294,650,o),
(270,625,o),
(270,598,cs),
(270,568,o),
(293,540,o),
(324,540,cs)
);
}
);
width = 486;
},
{
layerId = m01;
shapes = (
{
closed = 1;
nodes = (
(119,382,o),
(58,290,o),
(42,151,cs),
(34,72,o),
(107,0,o),
(198,0,cs),
(313,0,o),
(373,64,o),
(383,159,cs),
(385,181,o),
(379,194,o),
(368,197,cs),
(355,200,o),
(336,191,o),
(333,169,cs),
(327,112,o),
(294,50,o),
(209,50,cs),
(143,50,o),
(86,86,o),
(93,147,cs),
(98,193,o),
(112,332,o),
(274,332,c),
(275,382,l)
);
},
{
closed = 1;
nodes = (
(312,466,o),
(301,476,o),
(289,479,cs),
(275,481,o),
(261,474,o),
(259,452,cs),
(248,351,ls),
(247,344,o),
(256,332,o),
(276,332,cs),
(287,332,o),
(298,340,o),
(299,351,cs),
(310,452,ls)
);
},
{
closed = 1;
nodes = (
(325,574,o),
(342,595,o),
(342,613,cs),
(342,634,o),
(323,650,o),
(304,650,cs),
(284,650,o),
(266,633,o),
(266,614,cs),
(266,592,o),
(284,574,o),
(304,574,cs)
);
}
);
width = 450;
}
);
unicode = 191;
},
{
glyphname = periodcentered;
lastChange = "2022-03-21 02:16:34 +0000";
layers = (
{
layerId = m002;
shapes = (
{
closed = 1;
nodes = (
(127,121,o),
(154,148,o),
(154,178,cs),
(154,208,o),
(128,231,o),
(99,231,cs),
(68,231,o),
(44,206,o),
(44,178,cs),
(44,150,o),
(67,121,o),
(98,121,cs)
);
}
);
width = 231;
},
{
layerId = m01;
shapes = (
{
closed = 1;
nodes = (
(82,138,o),
(101,157,o),
(101,178,cs),
(101,198,o),
(82,214,o),
(62,214,cs),
(41,214,o),
(26,197,o),
(26,178,cs),
(26,158,o),
(41,138,o),
(62,138,cs)
);
}
);
width = 164;
}
);
unicode = 183;
},
{
glyphname = bullet;
lastChange = "2022-03-21 02:17:50 +0000";
layers = (
{
layerId = m01;
shapes = (
{
closed = 1;
nodes = (
(159,278,o),
(195,314,o),
(195,355,cs),
(195,396,o),
(160,430,o),
(119,430,cs),
(78,430,o),
(45,395,o),
(45,355,cs),
(45,316,o),
(77,278,o),
(119,278,cs)
);
}
);
width = 240;
},
{
layerId = m002;
shapes = (
{
closed = 1;
nodes = (
(215,254,o),
(263,301,o),
(263,355,cs),
(263,409,o),
(215,454,o),
(161,454,cs),
(106,454,o),
(63,407,o),
(63,355,cs),
(63,303,o),
(105,254,o),
(161,254,cs)
);
}
);
width = 322;
}
);
unicode = 8226;
},
{
glyphname = asterisk;
lastChange = "2022-03-21 00:29:12 +0000";
layers = (
{
layerId = m002;
shapes = (
{
closed = 1;
nodes = (
(91,418,o),
(122,411,o),
(148,428,cs),
(313,535,ls),
(338,551,o),
(346,575,o),
(330,598,cs),
(318,614,o),
(288,621,o),
(265,606,cs),
(96,497,l),
(75,481,o),
(65,458,o),
(79,437,cs)
);
},
{
closed = 1;
nodes = (
(346,448,o),
(342,470,o),
(319,487,cs),
(155,608,ls),
(132,625,o),
(103,621,o),
(91,604,cs),
(77,586,o),
(81,563,o),
(106,545,cs),
(267,426,l),
(293,409,o),
(322,413,o),
(334,430,cs)
);
},
{
closed = 1;
nodes = (
(210,368,o),
(238,385,o),
(241,416,cs),
(263,615,ls),
(267,647,o),
(244,667,o),
(220,667,cs),
(199,667,o),
(177,650,o),
(174,623,cs),
(152,424,ls),
(149,395,o),
(167,378,o),
(188,373,cs)
);
}
);
width = 373;
},
{
layerId = m01;
shapes = (
{
closed = 1;
nodes = (
(90,483,o),
(102,481,o),
(118,490,cs),
(248,574,ls),
(264,584,o),
(266,598,o),
(260,607,cs),
(254,614,o),
(242,617,o),
(227,608,cs),
(97,524,ls),
(81,513,o),
(78,499,o),
(85,491,cs)
);
},
{
closed = 1;
nodes = (
(255,499,o),
(254,511,o),
(241,521,cs),
(127,606,ls),
(114,616,o),
(102,614,o),
(97,606,cs),
(90,599,o),
(91,586,o),
(105,576,cs),
(218,492,ls),
(231,482,o),
(244,484,o),
(251,492,cs)
);
},
{
closed = 1;
nodes = (
(170,447,o),
(182,456,o),
(184,475,cs),
(199,623,ls),
(201,641,o),
(193,650,o),
(184,650,cs),
(174,650,o),
(162,641,o),
(160,623,cs),
(145,475,ls),
(143,458,o),
(151,450,o),
(160,448,cs)
);
}
);
width = 302;
}
);
unicode = 42;
},
{
glyphname = numbersign;
lastChange = "2022-03-21 00:29:12 +0000";
layers = (
{
layerId = m01;
shapes = (
{
closed = 1;
nodes = (
(211,-1,o),
(225,8,o),
(228,28,cs),
(283,543,ls),
(285,559,o),
(273,568,o),
(260,568,cs),
(247,568,o),
(234,560,o),
(232,543,cs),
(177,28,ls),
(175,10,o),
(186,0,o),
(198,0,cs)
);
},
{
closed = 1;
nodes = (
(469,0,o),
(482,9,o),
(484,28,cs),
(539,543,ls),
(541,559,o),
(529,567,o),
(517,568,cs),
(504,568,o),
(490,560,o),
(488,543,cs),
(433,28,ls),
(431,9,o),
(443,-1,o),
(456,0,cs)
);
},
{
closed = 1;
nodes = (
(48,159,o),
(58,147,o),
(75,147,cs),
(620,147,ls),
(637,147,o),
(645,159,o),
(644,170,cs),
(643,181,o),
(635,192,o),
(617,192,cs),
(72,192,ls),
(54,192,o),
(46,181,o),
(47,170,cs)
);
},
{
closed = 1;
nodes = (
(72,395,o),
(82,384,o),
(100,384,cs),
(644,384,ls),
(662,384,o),
(670,395,o),
(670,406,cs),
(669,417,o),
(659,429,o),
(641,429,cs),
(97,429,ls),
(79,429,o),
(71,417,o),
(72,406,cs)
);
}
);
width = 729;
},
{
layerId = m002;
shapes = (
{
closed = 1;
nodes = (
(231,0,o),
(259,10,o),
(262,39,cs),
(313,523,ls),
(316,552,o),
(291,568,o),
(264,568,cs),
(239,568,o),
(219,557,o),
(216,530,cs),
(164,47,ls),
(161,16,o),
(181,0,o),
(207,0,cs)
);
},
{
closed = 1;
nodes = (
(479,0,o),
(500,11,o),
(503,39,cs),
(554,523,ls),
(558,555,o),
(533,568,o),
(510,568,cs),
(486,568,o),
(459,558,o),
(456,531,cs),
(405,47,ls),
(401,13,o),
(428,0,o),
(455,0,cs)
);
},
{
closed = 1;
nodes = (
(43,153,o),
(66,133,o),
(95,133,cs),
(607,133,ls),
(636,133,o),
(654,153,o),
(653,177,cs),
(651,200,o),
(631,218,o),
(601,218,cs),
(89,218,ls),
(59,218,o),
(40,200,o),
(42,177,cs)
);
},
{
closed = 1;
nodes = (
(67,375,o),
(88,357,o),
(118,357,cs),
(629,357,ls),
(659,357,o),
(679,375,o),
(677,399,cs),
(675,422,o),
(653,442,o),
(623,442,cs),
(112,442,ls),
(82,442,o),
(63,422,o),
(65,399,cs)
);
}
);
width = 724;
}
);
unicode = 35;
},
{
glyphname = slash;
lastChange = "2022-03-21 01:48:33 +0000";
layers = (
{
layerId = m01;
shapes = (
{
closed = 1;
nodes = (
(56,-39,o),
(67,-33,o),
(72,-19,cs),
(299,616,ls),
(307,637,o),
(291,650,o),
(276,650,cs),
(265,650,o),
(254,644,o),
(248,627,cs),
(21,-8,ls),
(14,-27,o),
(29,-39,o),
(45,-39,cs)
);
}
);
width = 336;
},
{
layerId = m002;
shapes = (
{
closed = 1;
nodes = (
(104,-52,o),
(126,-42,o),
(134,-20,cs),
(356,588,ls),
(369,624,o),
(337,650,o),
(307,650,cs),
(287,650,o),
(265,639,o),
(256,614,cs),
(35,8,ls),
(22,-27,o),
(53,-52,o),
(85,-52,cs)
);
}
);
width = 406;
}
);
unicode = 47;
},
{
glyphname = backslash;
lastChange = "2022-03-21 01:50:55 +0000";
layers = (
{
layerId = m01;
shapes = (
{
closed = 1;
nodes = (
(36,650,o),
(21,638,o),
(28,619,cs),
(255,-16,ls),
(261,-33,o),
(272,-39,o),
(283,-39,cs),
(298,-39,o),
(314,-26,o),
(306,-5,cs),
(79,630,ls),
(74,644,o),
(63,650,o),
(52,650,cs)
);
}
);
width = 301;
},
{
layerId = m002;
shapes = (
{
closed = 1;
nodes = (
(38,650,o),
(7,625,o),
(20,590,cs),
(241,-16,ls),
(250,-41,o),
(272,-52,o),
(292,-52,cs),
(322,-52,o),
(354,-26,o),
(341,10,cs),
(119,618,ls),
(111,640,o),
(89,650,o),
(70,650,cs)
);
}
);
width = 360;
}
);
unicode = 92;
},
{
glyphname = hyphen;
lastChange = "2022-03-21 00:29:12 +0000";
layers = (
{
layerId = m01;
shapes = (
{
closed = 1;
nodes = (
(28,190,o),
(40,175,o),
(57,175,cs),
(205,175,ls),
(223,175,o),
(230,190,o),
(230,201,cs),
(230,212,o),
(220,225,o),
(202,225,cs),
(54,225,ls),
(35,225,o),
(28,211,o),
(28,199,cs)
);
}
);
width = 291;
},
{
layerId = m002;
shapes = (
{
closed = 1;
nodes = (
(46,171,o),
(72,153,o),
(101,153,cs),
(249,153,ls),
(280,153,o),
(297,173,o),
(298,198,cs),
(299,222,o),
(274,242,o),
(243,242,cs),
(95,242,ls),
(62,242,o),
(46,220,o),
(46,194,cs)
);
}
);
width = 373;
}
);
unicode = 45;
},
{
glyphname = endash;
lastChange = "2022-03-21 00:29:12 +0000";
layers = (
{
layerId = m01;
shapes = (
{
closed = 1;
nodes = (
(302,175,o),
(310,187,o),
(309,199,cs),
(308,210,o),
(299,220,o),
(281,220,cs),
(54,220,ls),
(36,220,o),
(27,210,o),
(28,199,cs),
(29,187,o),
(39,175,o),
(57,175,cs),
(284,175,ls)
);
}
);
width = 370;
},
{
layerId = m002;
shapes = (
{
closed = 1;
nodes = (
(359,153,o),
(379,174,o),
(377,199,cs),
(375,223,o),
(353,242,o),
(322,242,cs),
(95,242,ls),
(64,242,o),
(44,223,o),
(46,199,cs),
(48,174,o),
(70,153,o),
(101,153,cs),
(328,153,ls)
);
}
);
width = 452;
}
);
unicode = 8211;
},
{
glyphname = emdash;
lastChange = "2022-03-21 00:29:12 +0000";
layers = (
{
layerId = m01;
shapes = (
{
closed = 1;
nodes = (
(403,175,o),
(413,187,o),
(412,199,cs),
(411,209,o),
(401,220,o),
(380,220,cs),
(57,220,ls),
(37,220,o),
(27,209,o),
(28,199,cs),
(29,187,o),
(41,175,o),
(60,175,cs),
(383,175,ls)
);
}
);
width = 473;
},
{
layerId = m002;
shapes = (
{
closed = 1;
nodes = (
(460,153,o),
(482,174,o),
(480,199,cs),
(478,222,o),
(455,242,o),
(421,242,cs),
(98,242,ls),
(65,242,o),
(44,222,o),
(46,199,cs),
(48,174,o),
(72,153,o),
(104,153,cs),
(427,153,ls)
);
}
);
width = 555;
}
);
unicode = 8212;
},
{
glyphname = underscore;
lastChange = "2022-03-21 00:29:12 +0000";
layers = (
{
layerId = m01;
shapes = (
{
closed = 1;
nodes = (
(336,-77,o),
(345,-66,o),
(344,-54,cs),
(343,-43,o),
(333,-32,o),
(315,-32,cs),
(26,-32,ls),
(7,-32,o),
(0,-43,o),
(1,-55,cs),
(2,-66,o),
(12,-77,o),
(29,-77,cs),
(318,-77,ls)
);
}
);
width = 431;
},
{
layerId = m002;
shapes = (
{
closed = 1;
nodes = (
(395,-99,o),
(415,-79,o),
(413,-54,cs),
(411,-30,o),
(389,-10,o),
(358,-10,cs),
(69,-10,ls),
(37,-10,o),
(18,-30,o),
(20,-55,cs),
(22,-79,o),
(45,-99,o),
(75,-99,cs),
(364,-99,ls)
);
}
);
width = 515;
}
);
unicode = 95;
},
{
glyphname = parenleft;
lastChange = "2022-03-21 00:29:12 +0000";
layers = (
{
layerId = m002;
shapes = (
{
closed = 1;
nodes = (
(263,-283,o),
(266,-264,o),
(252,-235,c),
(160,-66,o),
(137,80,o),
(152,213,cs),
(165,333,o),
(226,456,o),
(336,574,cs),
(365,605,o),
(358,628,o),
(343,643,cs),
(327,658,o),
(294,659,o),
(265,631,cs),
(142,505,o),
(60,330,o),
(48,221,cs),
(31,64,o),
(71,-112,o),
(175,-275,cs),
(193,-304,o),
(229,-310,o),
(249,-295,cs)
);
}
);
width = 360;
},
{
layerId = m01;
shapes = (
{
closed = 1;
nodes = (
(222,-292,o),
(222,-278,o),
(213,-261,cs),
(115,-81,o),
(91,77,o),
(106,219,cs),
(120,347,o),
(186,480,o),
(304,607,cs),
(320,625,o),
(321,639,o),
(314,646,cs),
(305,654,o),
(287,651,o),
(269,633,cs),
(146,506,o),
(61,329,o),
(50,219,cs),
(36,94,o),
(76,-101,o),
(179,-283,cs),
(188,-299,o),
(204,-303,o),
(215,-297,cs)
);
}
);
width = 353;
}
);
unicode = 40;
},
{
glyphname = parenright;
lastChange = "2022-03-21 00:29:12 +0000";
layers = (
{
layerId = m002;
shapes = (
{
closed = 1;
nodes = (
(202,-132,o),
(282,41,o),
(294,164,cs),
(307,299,o),
(270,480,o),
(171,631,cs),
(146,669,o),
(118,679,o),
(96,669,cs),
(79,660,o),
(68,640,o),
(88,601,cs),
(170,448,o),
(203,309,o),
(191,190,cs),
(177,56,o),
(125,-76,o),
(2,-207,cs),
(-16,-225,o),
(-25,-249,o),
(-8,-267,cs),
(9,-289,o),
(46,-291,o),
(66,-270,cs)
);
}
);
width = 360;
},
{
layerId = m01;
shapes = (
{
closed = 1;
nodes = (
(13,-284,o),
(30,-285,o),
(42,-273,cs),
(178,-133,o),
(257,42,o),
(271,167,cs),
(283,276,o),
(239,476,o),
(146,640,cs),
(132,664,o),
(116,673,o),
(105,668,cs),
(97,664,o),
(95,650,o),
(107,627,cs),
(193,465,o),
(230,314,o),
(217,186,cs),
(202,44,o),
(146,-100,o),
(13,-240,cs),
(1,-253,o),
(-2,-267,o),
(4,-274,cs)
);
}
);
width = 337;
}
);
unicode = 41;
},
{
glyphname = braceleft;
lastChange = "2022-03-21 00:29:12 +0000";
layers = (
{
layerId = m002;
shapes = (
{
closed = 1;
nodes = (
(61,182,o),
(71,172,o),
(82,153,cs),
(97,126,o),
(103,103,o),
(101,79,cs),
(98,26,o),
(60,-75,o),
(68,-143,cs),
(75,-203,o),
(116,-256,o),
(145,-285,cs),
(170,-311,o),
(201,-308,o),
(213,-289,cs),
(229,-268,o),
(216,-252,o),
(199,-235,cs),
(174,-211,o),
(157,-187,o),
(152,-139,cs),
(147,-83,o),
(186,12,o),
(187,66,cs),
(190,114,o),
(181,154,o),
(153,197,c),
(188,219,o),
(200,255,o),
(206,302,cs),
(211,357,o),
(190,459,o),
(204,511,cs),
(217,552,o),
(250,567,o),
(279,576,cs),
(301,585,o),
(312,605,o),
(300,628,cs),
(288,656,o),
(255,652,o),
(233,642,cs),
(205,629,o),
(141,599,o),
(124,540,cs),
(107,475,o),
(125,369,o),
(120,316,cs),
(116,291,o),
(107,273,o),
(89,254,cs),
(70,235,o),
(63,225,o),
(62,206,cs)
);
}
);
width = 360;
},
{
layerId = m01;
shapes = (
{
closed = 1;
nodes = (
(61,188,o),
(74,178,o),
(86,162,cs),
(111,129,o),
(123,100,o),
(121,71,cs),
(117,14,o),
(64,-94,o),
(74,-160,cs),
(83,-217,o),
(138,-267,o),
(174,-294,cs),
(190,-306,o),
(208,-308,o),
(218,-298,cs),
(229,-289,o),
(223,-268,o),
(208,-258,cs),
(168,-231,o),
(133,-212,o),
(125,-158,cs),
(116,-95,o),
(171,9,o),
(174,63,cs),
(177,107,o),
(171,144,o),
(129,197,c),
(183,236,o),
(195,267,o),
(202,311,cs),
(209,364,o),
(172,479,o),
(201,534,cs),
(220,570,o),
(272,584,o),
(317,595,cs),
(333,600,o),
(348,615,o),
(344,629,cs),
(341,644,o),
(315,652,o),
(293,645,cs),
(254,634,o),
(179,600,o),
(155,550,cs),
(126,492,o),
(158,366,o),
(149,317,cs),
(144,288,o),
(125,264,o),
(93,240,cs),
(76,228,o),
(62,221,o),
(61,205,cs)
);
}
);
width = 350;
}
);
unicode = 123;
},
{
glyphname = braceright;
lastChange = "2022-03-21 00:29:12 +0000";
layers = (
{
layerId = m002;
shapes = (
{
closed = 1;
nodes = (
(269,174,o),
(266,182,o),
(252,205,cs),
(237,231,o),
(232,253,o),
(233,278,c),
(239,332,o),
(279,430,o),
(273,497,cs),
(268,558,o),
(216,607,o),
(189,630,cs),
(167,648,o),
(135,662,o),
(118,637,cs),
(105,618,o),
(108,598,o),
(131,580,cs),
(156,562,o),
(185,536,o),
(190,493,cs),
(192,437,o),
(152,343,o),
(146,289,cs),
(142,241,o),
(149,202,o),
(174,167,c),
(141,139,o),
(126,101,o),
(119,55,cs),
(111,0,o),
(123,-99,o),
(108,-151,cs),
(93,-195,o),
(74,-213,o),
(46,-227,cs),
(22,-240,o),
(10,-254,o),
(18,-275,cs),
(27,-300,o),
(61,-309,o),
(87,-291,c),
(120,-273,o),
(169,-235,o),
(188,-179,cs),
(209,-116,o),
(197,-11,o),
(204,40,cs),
(208,66,o),
(221,83,o),
(239,107,cs),
(251,123,o),
(262,141,o),
(266,159,cs)
);
}
);
width = 360;
},
{
layerId = m01;
shapes = (
{
closed = 1;
nodes = (
(253,188,o),
(240,198,o),
(227,214,cs),
(202,247,o),
(191,276,o),
(192,305,cs),
(197,362,o),
(248,439,o),
(238,505,cs),
(229,562,o),
(175,612,o),
(138,639,cs),
(122,651,o),
(104,653,o),
(94,643,cs),
(84,634,o),
(90,613,o),
(104,603,cs),
(144,576,o),
(180,557,o),
(187,503,cs),
(196,440,o),
(143,367,o),
(139,313,cs),
(136,269,o),
(143,232,o),
(184,179,c),
(131,140,o),
(119,109,o),
(112,65,cs),
(104,13,o),
(140,-134,o),
(111,-188,cs),
(92,-224,o),
(40,-239,o),
(-4,-250,cs),
(-21,-255,o),
(-35,-270,o),
(-32,-284,cs),
(-29,-299,o),
(-3,-307,o),
(19,-300,cs),
(58,-288,o),
(133,-255,o),
(158,-205,cs),
(187,-147,o),
(155,10,o),
(164,59,cs),
(170,88,o),
(188,112,o),
(220,136,cs),
(237,148,o),
(252,155,o),
(252,171,cs)
);
}
);
width = 344;
}
);
unicode = 125;
},
{
glyphname = bracketleft;
lastChange = "2022-03-21 00:29:12 +0000";
layers = (
{
layerId = m01;
shapes = (
{
closed = 1;
nodes = (
(148,636,o),
(147,650,o),
(126,650,cs),
(105,650,o),
(97,639,o),
(95,623,cs),
(0,-273,ls),
(-2,-288,o),
(7,-300,o),
(27,-300,cs),
(49,-300,o),
(50,-283,o),
(51,-273,cs),
(146,618,ls)
);
},
{
closed = 1;
nodes = (
(169,-300,ls),
(186,-300,o),
(194,-288,o),
(193,-277,cs),
(193,-266,o),
(184,-255,o),
(166,-255,cs),
(27,-255,l),
(24,-300,l)
);
},
{
closed = 1;
nodes = (
(265,605,ls),
(282,605,o),
(290,616,o),
(290,627,cs),
(290,638,o),
(281,650,o),
(262,650,cs),
(124,650,l),
(122,605,l)
);
}
);
width = 263;
},
{
layerId = m002;
shapes = (
{
closed = 1;
nodes = (
(212,640,o),
(187,650,o),
(160,650,cs),
(130,650,o),
(110,637,o),
(107,609,cs),
(16,-251,ls),
(13,-279,o),
(34,-300,o),
(68,-300,cs),
(101,-300,o),
(114,-278,o),
(117,-255,cs),
(208,600,ls)
);
},
{
closed = 1;
nodes = (
(204,-300,ls),
(234,-300,o),
(250,-284,o),
(253,-258,cs),
(256,-230,o),
(229,-215,o),
(198,-215,cs),
(72,-215,l),
(66,-300,l)
);
},
{
closed = 1;
nodes = (
(296,565,ls),
(324,565,o),
(342,582,o),
(345,605,cs),
(348,633,o),
(320,650,o),
(291,650,cs),
(158,650,l),
(153,565,l)
);
}
);
width = 360;
}
);
unicode = 91;
},
{
glyphname = bracketright;
lastChange = "2022-03-21 00:29:12 +0000";
layers = (
{
layerId = m01;
shapes = (
{
closed = 1;
nodes = (
(221,638,o),
(213,650,o),
(193,650,cs),
(171,650,o),
(170,634,o),
(168,615,cs),
(75,-259,ls),
(72,-286,o),
(73,-300,o),
(94,-300,c),
(116,-300,o),
(122,-289,o),
(124,-273,cs),
(219,623,ls)
);
},
{
closed = 1;
nodes = (
(98,-255,l),
(-44,-255,ls),
(-61,-255,o),
(-70,-266,o),
(-70,-277,cs),
(-69,-289,o),
(-60,-300,o),
(-41,-300,cs),
(94,-300,l)
);
},
{
closed = 1;
nodes = (
(193,650,l),
(52,650,ls),
(34,650,o),
(25,638,o),
(26,627,cs),
(27,616,o),
(37,605,o),
(55,605,cs),
(190,605,l)
);
}
);
width = 263;
},
{
layerId = m002;
shapes = (
{
closed = 1;
nodes = (
(317,629,o),
(296,650,o),
(262,650,cs),
(228,650,o),
(216,632,o),
(213,610,cs),
(122,-246,ls),
(117,-291,o),
(143,-300,o),
(170,-300,cs),
(201,-300,o),
(219,-287,o),
(222,-259,cs),
(314,601,ls)
);
},
{
closed = 1;
nodes = (
(179,-215,l),
(34,-215,ls),
(8,-215,o),
(-12,-233,o),
(-14,-257,cs),
(-16,-281,o),
(6,-300,o),
(40,-300,cs),
(171,-300,l)
);
},
{
closed = 1;
nodes = (
(263,650,l),
(127,650,ls),
(96,650,o),
(81,634,o),
(78,607,cs),
(75,583,o),
(101,565,o),
(132,565,cs),
(252,565,l)
);
}
);
width = 360;
}
);
unicode = 93;
},
{
glyphname = quotedbl;
lastChange = "2022-03-21 00:29:12 +0000";
layers = (
{
layerId = m01;
shapes = (
{
closed = 1;
nodes = (
(120,500,o),
(133,508,o),
(135,524,cs),
(146,620,ls),
(148,640,o),
(135,650,o),
(122,650,cs),
(110,650,o),
(96,641,o),
(94,624,cs),
(84,528,ls),
(82,510,o),
(95,500,o),
(108,500,cs)
);
},
{
closed = 1;
nodes = (
(229,500,o),
(243,507,o),
(245,526,cs),
(254,620,ls),
(255,640,o),
(243,650,o),
(229,650,cs),
(217,650,o),
(205,642,o),
(203,628,cs),
(192,528,ls),
(190,509,o),
(203,500,o),
(217,500,cs)
);
}
);
width = 291;
},
{
layerId = m002;
shapes = (
{
closed = 1;
nodes = (
(170,456,o),
(194,471,o),
(197,498,cs),
(207,594,ls),
(211,628,o),
(186,650,o),
(158,650,cs),
(135,650,o),
(110,634,o),
(107,606,cs),
(96,510,ls),
(93,477,o),
(119,456,o),
(147,456,cs)
);
},
{
closed = 1;
nodes = (
(328,456,o),
(354,470,o),
(356,496,cs),
(366,595,ls),
(370,629,o),
(343,650,o),
(315,650,cs),
(292,650,o),
(269,635,o),
(265,610,cs),
(254,510,ls),
(250,472,o),
(282,456,o),
(306,456,cs)
);
}
);
width = 419;
}
);
unicode = 34;
},
{
glyphname = quotesingle;
lastChange = "2022-03-21 00:29:12 +0000";
layers = (
{
layerId = m01;
shapes = (
{
closed = 1;
nodes = (
(121,500,o),
(135,507,o),
(136,521,cs),
(146,620,ls),
(147,640,o),
(135,650,o),
(121,650,cs),
(109,650,o),
(97,642,o),
(95,628,cs),
(84,528,ls),
(82,509,o),
(95,500,o),
(109,500,cs)
);
}
);
width = 183;
},
{
layerId = m002;
shapes = (
{
closed = 1;
nodes = (
(160,456,o),
(186,470,o),
(188,496,cs),
(198,595,ls),
(201,629,o),
(175,650,o),
(147,650,cs),
(124,650,o),
(99,635,o),
(96,610,cs),
(86,510,ls),
(82,472,o),
(114,456,o),
(138,456,cs)
);
}
);
width = 261;
}
);
unicode = 39;
},
{
glyphname = at;
lastChange = "2022-03-21 00:29:12 +0000";
layers = (
{
layerId = m01;
shapes = (
{
closed = 1;
nodes = (
(461,0,o),
(496,43,o),
(517,76,cs),
(533,101,l),
(493,127,l),
(483,109,ls),
(470,85,o),
(438,46,o),
(423,46,cs),
(402,46,o),
(411,117,o),
(413,133,cs),
(433,322,ls),
(435,338,o),
(433,349,o),
(416,350,cs),
(397,351,o),
(384,343,o),
(382,325,cs),
(367,155,ls),
(361,87,o),
(349,0,o),
(421,0,cs)
);
},
{
closed = 1;
nodes = (
(331,-4,o),
(380,89,o),
(400,166,cs),
(420,244,o),
(398,354,o),
(315,354,cs),
(225,354,o),
(175,271,o),
(155,184,cs),
(132,80,o),
(172,-4,o),
(245,-4,cs)
);
},
{
closed = 1;
nodes = (
(201,41,o),
(191,109,o),
(204,175,cs),
(214,226,o),
(257,309,o),
(304,309,cs),
(358,309,o),
(370,223,o),
(360,184,cs),
(347,131,o),
(296,41,o),
(257,41,cs)
);
},
{
closed = 1;
nodes = (
(364,-110,o),
(375,-92,o),
(369,-79,cs),
(363,-66,o),
(346,-63,o),
(334,-67,cs),
(281,-83,o),
(205,-93,o),
(159,-67,cs),
(101,-34,o),
(39,48,o),
(79,208,cs),
(113,347,o),
(188,429,o),
(359,429,cs),
(481,429,o),
(548,382,o),
(537,272,cs),
(531,217,o),
(512,167,o),
(491,124,c),
(530,97,l),
(561,151,o),
(581,207,o),
(587,267,cs),
(601,406,o),
(518,479,o),
(361,479,cs),
(165,479,o),
(68,372,o),
(27,209,cs),
(-16,34,o),
(58,-67,o),
(134,-109,cs),
(197,-144,o),
(289,-133,o),
(353,-113,cs)
);
}
);
width = 624;
},
{
layerId = m002;
shapes = (
{
closed = 1;
nodes = (
(482,0,o),
(530,46,o),
(549,79,cs),
(557,93,l),
(479,145,l),
(476,138,ls),
(467,118,o),
(457,105,o),
(446,105,cs),
(438,105,o),
(437,121,o),
(438,135,cs),
(455,301,ls),
(459,336,o),
(442,350,o),
(420,350,cs),
(389,350,o),
(373,338,o),
(370,309,cs),
(357,160,ls),
(351,87,o),
(356,0,o),
(441,0,cs)
);
},
{
closed = 1;
nodes = (
(363,-4,o),
(428,89,o),
(435,161,cs),
(443,239,o),
(399,354,o),
(334,354,cs),
(239,354,o),
(192,271,o),
(172,189,cs),
(146,84,o),
(188,-4,o),
(271,-4,cs)
);
},
{
closed = 1;
nodes = (
(254,86,o),
(249,116,o),
(262,170,cs),
(272,211,o),
(298,265,o),
(325,265,cs),
(356,265,o),
(362,228,o),
(351,184,cs),
(337,126,o),
(316,86,o),
(281,86,cs)
);
},
{
closed = 1;
nodes = (
(389,-109,o),
(407,-79,o),
(396,-54,cs),
(385,-31,o),
(356,-24,o),
(333,-32,cs),
(287,-47,o),
(223,-52,o),
(188,-32,cs),
(138,-4,o),
(92,62,o),
(126,200,cs),
(157,323,o),
(216,389,o),
(364,389,cs),
(469,389,o),
(527,359,o),
(518,270,cs),
(514,224,o),
(497,180,o),
(478,142,c),
(555,89,l),
(584,142,o),
(607,203,o),
(613,262,cs),
(628,408,o),
(537,479,o),
(375,479,cs),
(176,479,o),
(71,372,o),
(31,213,cs),
(-13,37,o),
(64,-69,o),
(141,-110,cs),
(208,-146,o),
(302,-135,o),
(365,-116,cs)
);
}
);
width = 655;
}
);
unicode = 64;
},
{
glyphname = ampersand;
lastChange = "2022-03-21 00:29:12 +0000";
layers = (
{
layerId = m01;
shapes = (
{
closed = 1;
nodes = (
(303,-4,o),
(363,51,o),
(442,186,c),
(452,200,o),
(455,219,o),
(440,229,cs),
(425,239,o),
(409,232,o),
(398,216,c),
(333,108,o),
(286,46,o),
(200,46,cs),
(137,46,o),
(92,90,o),
(90,156,cs),
(88,227,o),
(150,297,o),
(215,336,cs),
(260,363,ls),
(368,428,o),
(418,491,o),
(416,556,cs),
(414,613,o),
(357,648,o),
(297,648,cs),
(197,649,o),
(131,585,o),
(124,520,cs),
(119,463,o),
(173,390,o),
(195,353,cs),
(393,22,ls),
(403,5,o),
(417,-5,o),
(433,4,cs),
(448,12,o),
(445,33,o),
(432,55,cs),
(237,383,ls),
(219,413,o),
(172,485,o),
(175,520,cs),
(178,563,o),
(226,598,o),
(291,598,cs),
(341,598,o),
(362,574,o),
(363,546,cs),
(365,500,o),
(310,449,o),
(212,388,cs),
(191,375,ls),
(107,323,o),
(32,243,o),
(35,154,cs),
(38,77,o),
(93,-4,o),
(188,-4,cs)
);
}
);
width = 514;
},
{
layerId = m002;
shapes = (
{
closed = 1;
nodes = (
(314,-4,o),
(385,80,o),
(453,199,cs),
(468,225,o),
(461,250,o),
(433,266,cs),
(412,279,o),
(381,270,o),
(365,243,cs),
(301,134,o),
(265,87,o),
(211,87,cs),
(165,87,o),
(128,115,o),
(123,156,cs),
(117,203,o),
(152,264,o),
(224,318,cs),
(244,333,ls),
(379,434,o),
(417,484,o),
(417,555,cs),
(417,614,o),
(361,649,o),
(273,649,cs),
(165,649,o),
(81,579,o),
(81,504,cs),
(81,457,o),
(107,422,o),
(125,393,cs),
(361,28,ls),
(376,5,o),
(416,-9,o),
(443,10,cs),
(473,32,o),
(467,60,o),
(451,84,cs),
(258,371,ls),
(224,421,o),
(184,480,o),
(183,505,cs),
(183,527,o),
(215,560,o),
(258,560,cs),
(297,560,o),
(306,549,o),
(310,534,cs),
(318,506,o),
(283,462,o),
(201,408,cs),
(166,385,ls),
(89,335,o),
(11,250,o),
(23,138,cs),
(33,45,o),
(112,-4,o),
(209,-4,cs)
);
}
);
width = 522;
}
);
unicode = 38;
},
{
glyphname = degree;
lastChange = "2022-03-21 00:29:12 +0000";
layers = (
{
layerId = m002;
shapes = (
{
closed = 1;
nodes = (
(270,372,o),
(309,445,o),
(318,514,cs),
(325,585,o),
(296,654,o),
(223,654,cs),
(162,654,o),
(109,607,o),
(99,514,cs),
(92,443,o),
(121,372,o),
(193,372,cs)
);
},
{
closed = 1;
nodes = (
(179,459,o),
(172,485,o),
(175,513,cs),
(178,552,o),
(194,569,o),
(215,569,cs),
(240,569,o),
(244,536,o),
(241,515,cs),
(238,478,o),
(221,459,o),
(203,459,cs)
);
}
);
width = 348;
},
{
layerId = m01;
shapes = (
{
closed = 1;
nodes = (
(229,404,o),
(263,469,o),
(270,530,cs),
(276,593,o),
(251,654,o),
(189,654,cs),
(137,654,o),
(91,612,o),
(82,530,cs),
(76,467,o),
(101,404,o),
(163,404,cs)
);
},
{
closed = 1;
nodes = (
(135,450,o),
(124,487,o),
(128,528,cs),
(134,583,o),
(156,608,o),
(186,608,cs),
(223,608,o),
(227,559,o),
(224,531,cs),
(218,478,o),
(194,450,o),
(170,450,cs)
);
}
);
width = 298;
}
);
unicode = 176;
},
{
glyphname = bar;
lastChange = "2022-03-21 00:29:12 +0000";
layers = (
{
layerId = m002;
shapes = (
{
closed = 1;
nodes = (
(102,-302,o),
(113,-281,o),
(116,-260,c),
(213,645,ls),
(216,681,o),
(192,702,o),
(164,702,cs),
(142,702,o),
(117,685,o),
(114,657,cs),
(16,-250,ls),
(12,-278,o),
(36,-302,o),
(68,-302,cs)
);
}
);
width = 261;
},
{
layerId = m01;
shapes = (
{
closed = 1;
nodes = (
(48,-300,o),
(50,-285,o),
(51,-275,cs),
(151,668,ls),
(154,690,o),
(142,700,o),
(129,700,cs),
(117,700,o),
(103,690,o),
(101,672,cs),
(0,-273,ls),
(-2,-288,o),
(8,-300,o),
(26,-300,cs)
);
}
);
width = 182;
}
);
unicode = 124;
},
{
glyphname = brokenbar;
lastChange = "2022-03-21 00:29:12 +0000";
layers = (
{
layerId = m002;
shapes = (
{
closed = 1;
nodes = (
(159,141,o),
(136,163,o),
(109,163,cs),
(86,163,o),
(60,146,o),
(57,119,cs),
(17,-248,ls),
(14,-276,o),
(37,-300,o),
(69,-300,cs),
(103,-300,o),
(115,-279,o),
(117,-258,cs),
(156,111,ls)
);
},
{
closed = 1;
nodes = (
(217,679,o),
(192,700,o),
(164,700,cs),
(142,700,o),
(117,683,o),
(114,655,cs),
(75,290,ls),
(71,259,o),
(96,236,o),
(124,238,cs),
(147,239,o),
(171,256,o),
(174,282,cs),
(213,643,ls)
);
}
);
width = 261;
},
{
layerId = m01;
shapes = (
{
closed = 1;
nodes = (
(96,152,o),
(85,162,o),
(73,162,cs),
(60,162,o),
(45,152,o),
(44,135,cs),
(0,-273,ls),
(-2,-288,o),
(8,-300,o),
(26,-300,cs),
(48,-300,o),
(50,-285,o),
(51,-275,cs),
(95,135,ls)
);
},
{
closed = 1;
nodes = (
(154,690,o),
(142,700,o),
(129,700,cs),
(117,700,o),
(103,690,o),
(101,672,cs),
(57,266,ls),
(56,249,o),
(67,238,o),
(80,239,cs),
(93,239,o),
(107,249,o),
(108,266,cs),
(151,668,ls)
);
}
);
width = 182;
}
);
unicode = 166;
},
{
glyphname = dollar;
lastChange = "2022-03-21 00:29:12 +0000";
layers = (
{
layerId = m01;
shapes = (
{
closed = 1;
nodes = (
(270,-4,o),
(361,35,o),
(370,124,cs),
(378,202,o),
(316,254,o),
(236,300,cs),
(154,347,o),
(103,369,o),
(109,426,cs),
(115,483,o),
(170,522,o),
(265,522,cs),
(316,522,o),
(347,497,o),
(360,461,cs),
(365,448,o),
(379,442,o),
(392,446,cs),
(406,450,o),
(408,466,o),
(402,484,cs),
(386,531,o),
(341,568,o),
(263,568,cs),
(135,568,o),
(69,504,o),
(61,430,cs),
(53,350,o),
(119,309,o),
(198,264,cs),
(286,214,o),
(327,190,o),
(321,131,cs),
(314,67,o),
(240,42,o),
(170,42,cs),
(107,42,o),
(81,68,o),
(73,99,cs),
(69,116,o),
(54,122,o),
(40,118,cs),
(25,114,o),
(23,98,o),
(27,82,cs),
(40,30,o),
(85,-4,o),
(154,-4,cs)
);
},
{
closed = 1;
nodes = (
(196,-39,o),
(208,-32,o),
(209,-17,cs),
(273,585,ls),
(275,601,o),
(261,611,o),
(247,611,cs),
(236,611,o),
(225,605,o),
(223,590,cs),
(159,-12,ls),
(157,-30,o),
(171,-39,o),
(185,-39,cs)
);
}
);
width = 451;
},
{
layerId = m002;
shapes = (
{
closed = 1;
nodes = (
(287,-4,o),
(388,38,o),
(399,139,cs),
(407,228,o),
(337,279,o),
(261,323,cs),
(183,368,o),
(153,372,o),
(157,405,cs),
(161,446,o),
(195,478,o),
(274,478,cs),
(311,478,o),
(334,463,o),
(344,436,cs),
(354,411,o),
(375,393,o),
(400,401,cs),
(429,410,o),
(438,441,o),
(426,471,cs),
(408,525,o),
(358,568,o),
(272,568,cs),
(138,568,o),
(67,497,o),
(57,415,cs),
(48,323,o),
(123,285,o),
(199,243,cs),
(280,196,o),
(304,188,o),
(300,151,cs),
(295,109,o),
(246,86,o),
(186,86,cs),
(139,86,o),
(118,102,o),
(112,123,cs),
(106,154,o),
(82,170,o),
(54,162,cs),
(28,154,o),
(18,128,o),
(27,96,cs),
(42,35,o),
(94,-4,o),
(171,-4,cs)
);
},
{
closed = 1;
nodes = (
(222,-39,o),
(243,-21,o),
(247,12,cs),
(306,558,ls),
(309,586,o),
(294,611,o),
(259,611,cs),
(229,611,o),
(209,590,o),
(206,563,cs),
(147,18,ls),
(143,-18,o),
(160,-39,o),
(193,-39,cs)
);
}
);
width = 456;
}
);
unicode = 36;
},
{
glyphname = plus;
lastChange = "2022-03-21 00:29:12 +0000";
layers = (
{
layerId = m01;
shapes = (
{
closed = 1;
nodes = (
(168,57,o),
(178,64,o),
(180,86,cs),
(203,304,ls),
(204,323,o),
(192,334,o),
(180,334,cs),
(170,334,o),
(160,327,o),
(158,311,cs),
(135,87,ls),
(133,68,o),
(146,57,o),
(158,57,cs)
);
},
{
closed = 1;
nodes = (
(29,187,o),
(39,175,o),
(57,175,cs),
(284,175,ls),
(302,175,o),
(310,187,o),
(309,198,cs),
(308,209,o),
(299,220,o),
(281,220,cs),
(54,220,ls),
(36,220,o),
(27,209,o),
(28,198,cs)
);
}
);
width = 370;
},
{
layerId = m002;
shapes = (
{
closed = 1;
nodes = (
(217,41,o),
(238,54,o),
(241,81,cs),
(263,296,ls),
(266,329,o),
(242,350,o),
(215,350,cs),
(195,350,o),
(173,337,o),
(170,310,cs),
(148,95,ls),
(146,62,o),
(170,41,o),
(197,41,cs)
);
},
{
closed = 1;
nodes = (
(48,174,o),
(69,154,o),
(100,154,cs),
(317,154,ls),
(348,154,o),
(367,174,o),
(365,198,cs),
(364,221,o),
(342,241,o),
(311,241,cs),
(94,241,ls),
(63,241,o),
(45,221,o),
(46,198,cs)
);
}
);
width = 439;
}
);
unicode = 43;
},
{
glyphname = multiply;
lastChange = "2022-03-21 00:29:12 +0000";
layers = (
{
layerId = m002;
shapes = (
{
closed = 1;
nodes = (
(385,292,o),
(382,319,o),
(361,336,cs),
(342,351,o),
(311,355,o),
(289,337,cs),
(49,122,ls),
(29,102,o),
(31,78,o),
(48,59,cs),
(67,40,o),
(99,36,o),
(124,56,cs),
(363,270,l)
);
},
{
closed = 1;
nodes = (
(120,355,o),
(85,353,o),
(70,335,cs),
(56,317,o),
(53,294,o),
(73,273,cs),
(269,59,l),
(290,38,o),
(323,40,o),
(339,55,cs),
(357,72,o),
(360,97,o),
(339,120,cs),
(145,331,l)
);
}
);
width = 441;
},
{
layerId = m01;
shapes = (
{
closed = 1;
nodes = (
(325,302,o),
(322,317,o),
(312,325,cs),
(303,334,o),
(286,337,o),
(273,325,cs),
(23,101,ls),
(12,91,o),
(15,76,o),
(23,67,cs),
(33,58,o),
(48,54,o),
(63,67,cs),
(312,290,ls)
);
},
{
closed = 1;
nodes = (
(72,336,o),
(57,335,o),
(48,327,cs),
(40,318,o),
(37,303,o),
(48,291,cs),
(252,69,ls),
(264,56,o),
(279,58,o),
(287,66,cs),
(297,74,o),
(300,89,o),
(288,102,cs),
(86,321,ls)
);
}
);
width = 370;
}
);
unicode = 215;
},
{
glyphname = divide;
lastChange = "2022-03-21 00:29:12 +0000";
layers = (
{
layerId = m002;
shapes = (
{
closed = 1;
nodes = (
(383,154,o),
(380,241,o),
(311,241,cs),
(94,241,ls),
(25,241,o),
(34,154,o),
(100,154,cs),
(317,154,ls)
);
},
{
closed = 1;
nodes = (
(226,16,o),
(251,40,o),
(249,69,cs),
(247,100,o),
(217,122,o),
(188,122,cs),
(157,122,o),
(135,98,o),
(137,69,cs),
(139,40,o),
(166,16,o),
(196,16,cs)
);
},
{
closed = 1;
nodes = (
(254,273,o),
(279,297,o),
(277,327,cs),
(275,356,o),
(246,379,o),
(216,379,cs),
(186,379,o),
(163,355,o),
(165,327,cs),
(167,298,o),
(194,273,o),
(224,273,cs)
);
}
);
width = 440;
},
{
layerId = m01;
shapes = (
{
closed = 1;
nodes = (
(318,175,o),
(317,220,o),
(280,220,cs),
(53,220,ls),
(16,220,o),
(21,175,o),
(56,175,cs),
(283,175,ls)
);
},
{
closed = 1;
nodes = (
(175,57,o),
(190,73,o),
(189,90,cs),
(187,108,o),
(169,122,o),
(152,122,cs),
(133,122,o),
(123,106,o),
(124,90,cs),
(125,73,o),
(139,57,o),
(157,57,cs)
);
},
{
closed = 1;
nodes = (
(198,273,o),
(213,289,o),
(212,306,cs),
(210,323,o),
(193,338,o),
(176,338,cs),
(158,338,o),
(145,322,o),
(147,306,cs),
(148,290,o),
(163,273,o),
(181,273,cs)
);
}
);
width = 369;
}
);
unicode = 247;
},
{
glyphname = equal;
lastChange = "2022-03-21 00:29:12 +0000";
layers = (
{
layerId = m01;
shapes = (
{
closed = 1;
nodes = (
(309,248,o),
(317,260,o),
(316,271,cs),
(315,282,o),
(306,293,o),
(288,293,cs),
(61,293,ls),
(43,293,o),
(34,282,o),
(35,271,cs),
(36,260,o),
(46,248,o),
(64,248,cs),
(291,248,ls)
);
},
{
closed = 1;
nodes = (
(293,97,o),
(301,108,o),
(301,120,cs),
(300,131,o),
(290,142,o),
(272,142,cs),
(45,142,ls),
(27,142,o),
(19,131,o),
(20,120,cs),
(20,109,o),
(30,97,o),
(48,97,cs),
(275,97,ls)
);
}
);
width = 370;
},
{
layerId = m002;
shapes = (
{
closed = 1;
nodes = (
(358,248,o),
(377,266,o),
(376,290,cs),
(374,314,o),
(352,333,o),
(322,333,cs),
(104,333,ls),
(74,333,o),
(54,314,o),
(56,290,cs),
(57,266,o),
(80,248,o),
(110,248,cs),
(328,248,ls)
);
},
{
closed = 1;
nodes = (
(342,97,o),
(362,116,o),
(360,141,cs),
(358,165,o),
(336,182,o),
(306,182,cs),
(88,182,ls),
(58,182,o),
(38,165,o),
(40,141,cs),
(42,117,o),
(64,97,o),
(94,97,cs),
(312,97,ls)
);
}
);
width = 441;
}
);
unicode = 61;
},
{
glyphname = notequal;
lastChange = "2022-03-21 00:29:12 +0000";
layers = (
{
layerId = m01;
shapes = (
{
closed = 1;
nodes = (
(249,337,o),
(237,350,o),
(223,350,cs),
(213,350,o),
(203,345,o),
(198,333,cs),
(95,72,ls),
(88,54,o),
(97,42,o),
(108,38,cs),
(119,35,o),
(131,38,o),
(136,51,cs),
(239,312,ls)
);
},
{
closed = 1;
nodes = (
(293,97,o),
(301,108,o),
(301,120,cs),
(300,131,o),
(290,142,o),
(272,142,cs),
(45,142,ls),
(27,142,o),
(19,131,o),
(20,120,cs),
(20,109,o),
(30,97,o),
(48,97,cs),
(275,97,ls)
);
},
{
closed = 1;
nodes = (
(309,248,o),
(317,260,o),
(316,271,cs),
(315,282,o),
(306,293,o),
(288,293,cs),
(61,293,ls),
(43,293,o),
(34,282,o),
(35,271,cs),
(36,260,o),
(46,248,o),
(64,248,cs),
(291,248,ls)
);
}
);
width = 370;
},
{
layerId = m002;
shapes = (
{
closed = 1;
nodes = (
(331,376,o),
(301,401,o),
(272,401,cs),
(255,401,o),
(234,391,o),
(226,372,cs),
(103,60,ls),
(91,30,o),
(107,8,o),
(133,-1,cs),
(153,-7,o),
(181,-1,o),
(190,22,cs),
(314,333,ls)
);
},
{
closed = 1;
nodes = (
(342,97,o),
(362,116,o),
(360,141,cs),
(358,165,o),
(336,182,o),
(306,182,cs),
(88,182,ls),
(58,182,o),
(38,165,o),
(40,141,cs),
(42,117,o),
(64,97,o),
(94,97,cs),
(312,97,ls)
);
},
{
closed = 1;
nodes = (
(358,248,o),
(377,266,o),
(376,290,cs),
(374,314,o),
(352,333,o),
(322,333,cs),
(104,333,ls),
(74,333,o),
(54,314,o),
(56,290,cs),
(57,266,o),
(80,248,o),
(110,248,cs),
(328,248,ls)
);
}
);
width = 441;
}
);
unicode = 8800;
},
{
glyphname = greater;
lastChange = "2022-03-21 00:29:12 +0000";
layers = (
{
layerId = m01;
shapes = (
{
closed = 1;
nodes = (
(241,216,l),
(34,103,ls),
(14,93,o),
(12,81,o),
(17,70,cs),
(22,60,o),
(34,50,o),
(52,60,cs),
(269,179,l)
);
},
{
closed = 1;
nodes = (
(258,171,o),
(269,176,o),
(275,186,cs),
(282,197,o),
(282,207,o),
(266,217,cs),
(81,330,ls),
(64,340,o),
(51,339,o),
(44,329,cs),
(37,318,o),
(41,304,o),
(56,294,cs),
(242,181,ls)
);
}
);
width = 340;
},
{
layerId = m002;
shapes = (
{
closed = 1;
nodes = (
(283,245,l),
(66,127,ls),
(37,112,o),
(31,92,o),
(38,70,cs),
(47,46,o),
(79,29,o),
(108,45,cs),
(321,162,l)
);
},
{
closed = 1;
nodes = (
(290,147,o),
(321,153,o),
(333,176,cs),
(344,198,o),
(340,218,o),
(314,235,cs),
(135,344,ls),
(109,359,o),
(80,355,o),
(67,337,cs),
(53,315,o),
(60,291,o),
(86,272,c),
(265,164,l)
);
}
);
width = 418;
}
);
unicode = 62;
},
{
glyphname = less;
lastChange = "2022-03-21 00:29:12 +0000";
layers = (
{
layerId = m01;
shapes = (
{
closed = 1;
nodes = (
(273,290,ls),
(292,300,o),
(294,312,o),
(289,323,cs),
(285,333,o),
(273,343,o),
(255,333,cs),
(37,214,l),
(66,177,l)
);
},
{
closed = 1;
nodes = (
(242,53,o),
(255,54,o),
(263,64,cs),
(270,75,o),
(266,89,o),
(250,99,cs),
(64,212,ls),
(48,222,o),
(38,217,o),
(32,207,cs),
(24,196,o),
(25,186,o),
(41,176,cs),
(226,63,ls)
);
}
);
width = 340;
},
{
layerId = m002;
shapes = (
{
closed = 1;
nodes = (
(321,266,ls),
(350,281,o),
(357,301,o),
(349,323,cs),
(341,347,o),
(309,364,o),
(280,348,cs),
(69,232,l),
(105,148,l)
);
},
{
closed = 1;
nodes = (
(279,34,o),
(307,38,o),
(320,56,cs),
(335,78,o),
(328,102,o),
(302,121,c),
(123,229,l),
(98,246,o),
(67,239,o),
(55,217,cs),
(43,195,o),
(48,175,o),
(74,158,cs),
(253,49,ls)
);
}
);
width = 415;
}
);
unicode = 60;
},
{
glyphname = greaterequal;
lastChange = "2022-03-21 00:29:12 +0000";
layers = (
{
layerId = m01;
shapes = (
{
closed = 1;
nodes = (
(267,198,o),
(278,202,o),
(284,212,cs),
(291,223,o),
(291,233,o),
(275,243,cs),
(84,360,ls),
(67,370,o),
(54,369,o),
(47,359,cs),
(40,348,o),
(44,334,o),
(59,324,cs),
(252,207,ls)
);
},
{
closed = 1;
nodes = (
(272,97,o),
(280,108,o),
(280,120,cs),
(279,131,o),
(269,142,o),
(251,142,cs),
(47,142,ls),
(29,142,o),
(21,131,o),
(22,120,cs),
(22,109,o),
(32,97,o),
(50,97,cs),
(254,97,ls)
);
},
{
closed = 1;
nodes = (
(267,248,l),
(61,248,ls),
(39,248,o),
(31,239,o),
(30,227,cs),
(30,216,o),
(36,202,o),
(58,202,cs),
(271,202,l)
);
}
);
width = 349;
},
{
layerId = m002;
shapes = (
{
closed = 1;
nodes = (
(304,197,o),
(331,200,o),
(343,219,cs),
(356,241,o),
(353,261,o),
(326,279,c),
(141,393,ls),
(111,411,o),
(84,403,o),
(73,386,cs),
(59,364,o),
(67,344,o),
(93,325,c),
(280,212,ls)
);
},
{
closed = 1;
nodes = (
(317,57,o),
(336,75,o),
(334,99,cs),
(332,123,o),
(311,142,o),
(280,142,cs),
(84,142,ls),
(54,142,o),
(34,122,o),
(36,98,cs),
(38,75,o),
(60,57,o),
(90,57,cs),
(286,57,ls)
);
},
{
closed = 1;
nodes = (
(304,287,l),
(105,287,ls),
(71,287,o),
(53,271,o),
(52,247,cs),
(51,223,o),
(70,202,o),
(105,202,cs),
(312,202,l)
);
}
);
width = 421;
}
);
unicode = 8805;
},
{
glyphname = lessequal;
lastChange = "2022-03-21 00:29:12 +0000";
layers = (
{
layerId = m01;
shapes = (
{
closed = 1;
nodes = (
(305,332,o),
(306,348,o),
(297,359,cs),
(288,369,o),
(276,369,o),
(260,360,cs),
(42,243,ls),
(28,235,o),
(28,223,o),
(37,212,cs),
(45,202,o),
(56,199,o),
(71,207,cs),
(289,324,ls)
);
},
{
closed = 1;
nodes = (
(271,97,o),
(279,109,o),
(279,120,cs),
(278,131,o),
(268,142,o),
(250,142,cs),
(46,142,ls),
(28,142,o),
(20,131,o),
(21,120,cs),
(21,108,o),
(31,97,o),
(49,97,cs),
(253,97,ls)
);
},
{
closed = 1;
nodes = (
(265,202,ls),
(281,202,o),
(290,213,o),
(289,225,cs),
(289,236,o),
(279,248,o),
(256,248,cs),
(50,248,l),
(52,202,l)
);
}
);
width = 348;
},
{
layerId = m002;
shapes = (
{
closed = 1;
nodes = (
(365,337,o),
(372,362,o),
(353,386,cs),
(340,403,o),
(313,408,o),
(286,393,cs),
(76,281,ls),
(49,266,o),
(47,242,o),
(65,221,cs),
(79,201,o),
(104,197,o),
(128,210,cs),
(338,322,ls)
);
},
{
closed = 1;
nodes = (
(316,57,o),
(336,75,o),
(334,98,cs),
(332,122,o),
(310,142,o),
(280,142,cs),
(84,142,ls),
(54,142,o),
(34,122,o),
(36,98,cs),
(38,74,o),
(60,57,o),
(90,57,cs),
(286,57,ls)
);
},
{
closed = 1;
nodes = (
(304,202,ls),
(332,202,o),
(352,222,o),
(351,245,cs),
(351,272,o),
(324,287,o),
(292,287,cs),
(99,287,l),
(103,202,l)
);
}
);
width = 422;
}
);
unicode = 8804;
},
{
glyphname = plusminus;
lastChange = "2022-03-21 00:29:12 +0000";
layers = (
{
layerId = m002;
shapes = (
{
closed = 1;
nodes = (
(261,390,o),
(234,411,o),
(208,411,cs),
(187,411,o),
(167,398,o),
(164,371,cs),
(147,222,ls),
(144,188,o),
(170,167,o),
(196,167,cs),
(217,167,o),
(237,181,o),
(241,207,cs),
(257,357,ls)
);
},
{
closed = 1;
nodes = (
(311,57,o),
(331,74,o),
(329,99,cs),
(327,122,o),
(305,142,o),
(275,142,cs),
(85,142,ls),
(55,142,o),
(36,122,o),
(38,99,cs),
(40,75,o),
(61,57,o),
(91,57,cs),
(281,57,ls)
);
},
{
closed = 1;
nodes = (
(329,248,o),
(347,266,o),
(346,290,cs),
(344,313,o),
(323,333,o),
(293,333,cs),
(103,333,ls),
(73,333,o),
(54,313,o),
(56,290,cs),
(57,266,o),
(79,248,o),
(109,248,cs),
(299,248,ls)
);
}
);
width = 415;
},
{
layerId = m01;
shapes = (
{
closed = 1;
nodes = (
(195,364,o),
(182,375,o),
(170,375,cs),
(160,375,o),
(150,368,o),
(148,352,cs),
(131,196,ls),
(130,177,o),
(142,166,o),
(154,166,cs),
(164,166,o),
(174,173,o),
(176,189,cs),
(193,345,ls)
);
},
{
closed = 1;
nodes = (
(263,97,o),
(271,108,o),
(271,120,cs),
(270,131,o),
(260,142,o),
(242,142,cs),
(45,142,ls),
(27,142,o),
(19,131,o),
(20,120,cs),
(20,109,o),
(30,97,o),
(48,97,cs),
(245,97,ls)
);
},
{
closed = 1;
nodes = (
(279,248,o),
(287,260,o),
(286,271,cs),
(285,282,o),
(276,293,o),
(258,293,cs),
(61,293,ls),
(43,293,o),
(34,282,o),
(35,271,cs),
(36,260,o),
(46,248,o),
(64,248,cs),
(261,248,ls)
);
}
);
width = 340;
}
);
unicode = 177;
},
{
glyphname = approxequal;
lastChange = "2022-03-21 00:29:12 +0000";
layers = (
{
layerId = m01;
shapes = (
{
closed = 1;
nodes = (
(252,227,o),
(271,237,o),
(292,246,cs),
(309,254,o),
(317,260,o),
(316,271,cs),
(315,282,o),
(302,302,o),
(285,294,cs),
(267,285,o),
(255,272,o),
(225,272,cs),
(197,272,o),
(151,310,o),
(120,310,cs),
(94,310,o),
(78,301,o),
(60,294,cs),
(43,287,o),
(34,282,o),
(35,271,cs),
(36,259,o),
(47,238,o),
(65,246,cs),
(79,253,o),
(92,265,o),
(115,265,cs),
(146,265,o),
(192,227,o),
(220,227,cs)
);
},
{
closed = 1;
nodes = (
(237,76,o),
(256,86,o),
(276,95,cs),
(294,103,o),
(301,109,o),
(301,120,cs),
(300,131,o),
(286,151,o),
(270,143,cs),
(252,134,o),
(240,121,o),
(210,121,cs),
(182,121,o),
(136,159,o),
(105,159,cs),
(79,159,o),
(63,150,o),
(45,143,cs),
(27,136,o),
(19,131,o),
(20,120,cs),
(20,108,o),
(32,87,o),
(49,95,cs),
(64,102,o),
(77,114,o),
(100,114,cs),
(131,114,o),
(177,76,o),
(205,76,cs)
);
}
);
width = 370;
},
{
layerId = m002;
shapes = (
{
closed = 1;
nodes = (
(297,229,o),
(321,241,o),
(339,249,cs),
(366,262,o),
(377,273,o),
(376,293,cs),
(374,321,o),
(339,351,o),
(309,335,cs),
(285,323,o),
(281,316,o),
(262,316,cs),
(245,316,o),
(200,352,o),
(161,352,cs),
(130,352,o),
(109,342,o),
(94,335,cs),
(67,324,o),
(54,313,o),
(56,293,cs),
(58,261,o),
(92,234,o),
(122,249,cs),
(139,258,o),
(146,265,o),
(159,265,cs),
(179,265,o),
(223,229,o),
(260,229,cs)
);
},
{
closed = 1;
nodes = (
(277,35,o),
(301,47,o),
(318,55,cs),
(345,68,o),
(356,79,o),
(355,99,cs),
(353,127,o),
(319,157,o),
(288,141,cs),
(265,129,o),
(260,122,o),
(241,122,cs),
(224,122,o),
(180,158,o),
(141,158,cs),
(110,158,o),
(89,148,o),
(73,141,cs),
(47,130,o),
(34,119,o),
(35,99,cs),
(37,67,o),
(71,40,o),
(101,55,cs),
(119,64,o),
(126,71,o),
(139,71,cs),
(159,71,o),
(203,35,o),
(240,35,cs)
);
}
);
width = 441;
}
);
unicode = 8776;
},
{
glyphname = asciitilde;
lastChange = "2022-03-21 00:29:12 +0000";
layers = (
{
layerId = m002;
shapes = (
{
closed = 1;
nodes = (
(288,139,o),
(312,151,o),
(330,159,cs),
(357,172,o),
(368,183,o),
(367,203,cs),
(365,231,o),
(331,261,o),
(300,245,cs),
(277,233,o),
(272,226,o),
(253,226,cs),
(236,226,o),
(192,262,o),
(153,262,cs),
(122,262,o),
(100,252,o),
(85,245,cs),
(59,234,o),
(45,223,o),
(47,203,cs),
(49,171,o),
(83,144,o),
(113,159,cs),
(130,168,o),
(138,175,o),
(151,175,cs),
(171,175,o),
(214,139,o),
(251,139,cs)
);
}
);
width = 442;
},
{
layerId = m01;
shapes = (
{
closed = 1;
nodes = (
(245,158,o),
(264,168,o),
(285,177,cs),
(302,185,o),
(310,191,o),
(309,202,cs),
(308,213,o),
(295,233,o),
(278,225,cs),
(260,216,o),
(248,203,o),
(218,203,cs),
(190,203,o),
(144,241,o),
(113,241,cs),
(87,241,o),
(71,232,o),
(53,225,cs),
(36,218,o),
(27,213,o),
(28,202,cs),
(29,190,o),
(40,169,o),
(58,177,cs),
(72,184,o),
(85,196,o),
(108,196,cs),
(139,196,o),
(185,158,o),
(213,158,cs)
);
}
);
width = 370;
}
);
unicode = 126;
},
{
glyphname = asciicircum;
lastChange = "2022-03-21 00:29:12 +0000";
layers = (
{
layerId = m01;
shapes = (
{
closed = 1;
nodes = (
(267,619,o),
(264,634,o),
(254,642,cs),
(244,651,o),
(228,654,o),
(215,642,cs),
(90,531,ls),
(79,521,o),
(82,506,o),
(90,497,cs),
(100,488,o),
(115,484,o),
(130,497,cs),
(254,607,ls)
);
},
{
closed = 1;
nodes = (
(218,609,l),
(319,499,ls),
(331,486,o),
(346,488,o),
(354,496,cs),
(364,504,o),
(366,520,o),
(355,532,cs),
(255,641,l)
);
}
);
width = 410;
},
{
layerId = m002;
shapes = (
{
closed = 1;
nodes = (
(333,590,o),
(329,617,o),
(310,635,cs),
(291,653,o),
(257,657,o),
(235,638,cs),
(110,527,ls),
(88,507,o),
(93,481,o),
(108,464,cs),
(127,442,o),
(162,439,o),
(185,459,cs),
(308,569,ls)
);
},
{
closed = 1;
nodes = (
(239,573,l),
(339,464,ls),
(359,441,o),
(394,443,o),
(411,460,cs),
(429,477,o),
(431,502,o),
(410,525,cs),
(310,635,l)
);
}
);
width = 489;
}
);
unicode = 94;
},
{
glyphname = infinity;
lastChange = "2022-03-21 00:29:12 +0000";
layers = (
{
layerId = m01;
shapes = (
{
closed = 1;
nodes = (
(286,196,ls),
(323,146,o),
(376,90,o),
(434,80,cs),
(499,69,o),
(592,109,o),
(603,211,cs),
(614,307,o),
(539,349,o),
(481,359,cs),
(428,368,o),
(352,356,o),
(276,279,c),
(274,213,l)
);
},
{
closed = 1;
nodes = (
(225,214,o),
(120,123,o),
(95,127,cs),
(76,130,o),
(72,191,o),
(75,227,cs),
(79,267,o),
(99,322,o),
(156,312,cs),
(198,305,o),
(228,267,o),
(248,241,c),
(278,279,l),
(254,309,o),
(222,352,o),
(167,361,cs),
(80,377,o),
(32,298,o),
(24,226,cs),
(18,168,o),
(36,90,o),
(90,81,cs),
(147,71,o),
(218,140,o),
(282,210,c),
(279,280,l)
);
},
{
closed = 1;
nodes = (
(376,307,o),
(430,319,o),
(469,312,cs),
(518,303,o),
(560,263,o),
(554,214,cs),
(548,158,o),
(483,123,o),
(440,130,cs),
(398,137,o),
(355,186,o),
(324,227,cs),
(313,241,l)
);
}
);
width = 652;
},
{
layerId = m002;
shapes = (
{
closed = 1;
nodes = (
(275,179,ls),
(312,127,o),
(368,71,o),
(430,61,cs),
(500,49,o),
(597,92,o),
(609,205,cs),
(620,314,o),
(540,362,o),
(479,373,cs),
(423,383,o),
(342,369,o),
(263,284,c),
(258,204,l)
);
},
{
closed = 1;
nodes = (
(209,221,o),
(135,151,o),
(120,154,cs),
(105,156,o),
(107,195,o),
(111,227,cs),
(115,261,o),
(135,284,o),
(173,278,cs),
(215,271,o),
(239,220,o),
(257,198,c),
(315,272,l),
(297,296,o),
(261,361,o),
(188,374,cs),
(90,391,o),
(37,301,o),
(28,225,cs),
(22,164,o),
(43,72,o),
(110,60,cs),
(177,49,o),
(247,126,o),
(312,197,c),
(251,272,l)
);
},
{
closed = 1;
nodes = (
(396,277,o),
(433,284,o),
(461,279,cs),
(502,272,o),
(527,247,o),
(523,215,cs),
(519,175,o),
(483,150,o),
(449,156,cs),
(406,163,o),
(365,212,o),
(354,227,cs),
(350,233,l)
);
}
);
width = 663;
}
);
unicode = 8734;
},
{
glyphname = percent;
lastChange = "2022-03-21 00:29:12 +0000";
layers = (
{
layerId = m01;
shapes = (
{
closed = 1;
nodes = (
(128,0,o),
(137,6,o),
(145,20,cs),
(432,526,ls),
(443,546,o),
(426,560,o),
(411,560,cs),
(400,560,o),
(391,553,o),
(382,537,cs),
(95,31,ls),
(85,13,o),
(101,0,o),
(117,0,cs)
);
},
{
closed = 1;
nodes = (
(193,315,o),
(227,380,o),
(234,441,cs),
(240,504,o),
(215,565,o),
(153,565,cs),
(101,565,o),
(55,523,o),
(46,441,cs),
(40,378,o),
(65,315,o),
(127,315,cs)
);
},
{
closed = 1;
nodes = (
(99,361,o),
(88,398,o),
(92,439,cs),
(98,494,o),
(120,519,o),
(150,519,cs),
(187,519,o),
(191,470,o),
(188,442,cs),
(182,389,o),
(158,361,o),
(134,361,cs)
);
},
{
closed = 1;
nodes = (
(443,-4,o),
(477,61,o),
(484,122,cs),
(490,185,o),
(465,246,o),
(403,246,cs),
(351,246,o),
(305,204,o),
(296,122,cs),
(290,59,o),
(315,-4,o),
(377,-4,cs)
);
},
{
closed = 1;
nodes = (
(349,42,o),
(338,79,o),
(342,120,cs),
(348,175,o),
(370,200,o),
(400,200,cs),
(437,200,o),
(441,151,o),
(438,123,cs),
(432,70,o),
(408,42,o),
(384,42,cs)
);
}
);
width = 529;
},
{
layerId = m002;
shapes = (
{
closed = 1;
nodes = (
(171,0,o),
(182,10,o),
(193,30,cs),
(460,493,ls),
(481,530,o),
(457,568,o),
(426,568,cs),
(406,568,o),
(389,556,o),
(377,534,cs),
(113,67,ls),
(96,37,o),
(111,0,o),
(157,0,cs)
);
},
{
closed = 1;
nodes = (
(207,290,o),
(246,363,o),
(255,432,cs),
(262,503,o),
(233,572,o),
(160,572,cs),
(99,572,o),
(46,525,o),
(36,432,cs),
(29,361,o),
(58,290,o),
(130,290,cs)
);
},
{
closed = 1;
nodes = (
(116,377,o),
(109,403,o),
(112,431,cs),
(115,470,o),
(131,487,o),
(152,487,cs),
(177,487,o),
(181,454,o),
(178,433,cs),
(175,396,o),
(158,377,o),
(140,377,cs)
);
},
{
closed = 1;
nodes = (
(490,-4,o),
(529,69,o),
(538,138,cs),
(545,209,o),
(516,278,o),
(443,278,cs),
(382,278,o),
(329,231,o),
(319,138,cs),
(312,67,o),
(341,-4,o),
(413,-4,cs)
);
},
{
closed = 1;
nodes = (
(399,83,o),
(392,109,o),
(395,137,cs),
(398,176,o),
(414,193,o),
(435,193,cs),
(460,193,o),
(464,160,o),
(461,139,cs),
(458,102,o),
(441,83,o),
(423,83,cs)
);
}
);
width = 579;
}
);
unicode = 37;
},
{
glyphname = grave;
lastChange = "2022-03-21 00:29:12 +0000";
layers = (
{
layerId = m01;
shapes = (
{
closed = 1;
nodes = (
(146,696,o),
(133,701,o),
(122,701,cs),
(106,700,o),
(92,686,o),
(107,664,cs),
(167,572,ls),
(177,557,o),
(190,554,o),
(199,559,cs),
(207,563,o),
(209,573,o),
(202,587,cs),
(153,683,ls)
);
}
);
width = 248;
},
{
layerId = m002;
shapes = (
{
closed = 1;
nodes = (
(202,690,o),
(177,700,o),
(157,700,cs),
(124,698,o),
(96,669,o),
(124,630,cs),
(187,542,ls),
(207,515,o),
(232,508,o),
(251,519,cs),
(269,530,o),
(271,547,o),
(258,573,cs),
(212,669,ls)
);
}
);
width = 325;
}
);
unicode = 96;
},
{
glyphname = tilde;
lastChange = "2022-03-21 00:29:12 +0000";
layers = (
{
layerId = m002;
shapes = (
{
closed = 1;
nodes = (
(288,139,o),
(312,151,o),
(330,159,cs),
(357,172,o),
(368,183,o),
(367,203,cs),
(365,231,o),
(331,261,o),
(300,245,cs),
(277,233,o),
(272,226,o),
(253,226,cs),
(236,226,o),
(192,262,o),
(153,262,cs),
(122,262,o),
(100,252,o),
(85,245,cs),
(59,234,o),
(45,223,o),
(47,203,cs),
(49,171,o),
(83,144,o),
(113,159,cs),
(130,168,o),
(138,175,o),
(151,175,cs),
(171,175,o),
(214,139,o),
(251,139,cs)
);
}
